<svg width="16" height="16" viewBox="0 0 16 16" fill="none" xmlns="http://www.w3.org/2000/svg">
<path d="M14.3674 15.06C15.0888 15.06 15.6735 14.3857 15.6735 13.554C15.6735 12.7222 15.0888 12.048 14.3674 12.048C13.6461 12.048 13.0613 12.7222 13.0613 13.554C13.0613 14.3857 13.6461 15.06 14.3674 15.06Z" fill="#F54748"/>
<path d="M4.89792 15.06C5.61927 15.06 6.20404 14.3857 6.20404 13.554C6.20404 12.7222 5.61927 12.048 4.89792 12.048C4.17657 12.048 3.5918 12.7222 3.5918 13.554C3.5918 14.3857 4.17657 15.06 4.89792 15.06Z" fill="#F54748"/>
<path d="M15.3469 10.1656H5.14971L5.36751 9.75819C5.4609 9.5835 5.48833 9.37228 5.44359 9.17348L5.23102 8.22997L14.6949 7.66296C15.0537 7.64187 15.3469 7.28532 15.3469 6.87117V1.88251C15.3469 1.46836 15.0531 1.12951 14.6939 1.12951H3.63069L3.50302 0.563624C3.46665 0.402228 3.38484 0.259318 3.27043 0.157312C3.15602 0.0553069 3.01548 -2.37883e-05 2.87086 7.67223e-09H0.653061C0.479859 7.67223e-09 0.31375 0.0793342 0.191277 0.22055C0.0688045 0.361766 0 0.553296 0 0.753005C0 0.952714 0.0688045 1.14424 0.191277 1.28546C0.31375 1.42668 0.479859 1.50601 0.653061 1.50601H2.36604L4.10971 9.24125L3.424 10.5232C3.36301 10.6373 3.32955 10.7681 3.32708 10.9021C3.32461 11.036 3.35322 11.1683 3.40996 11.2853C3.46647 11.4024 3.54908 11.4999 3.64926 11.5678C3.74944 11.6358 3.86354 11.6716 3.97975 11.6716H15.3469C15.5201 11.6716 15.6863 11.5922 15.8087 11.451C15.9312 11.3098 16 11.1183 16 10.9186C16 10.7189 15.9312 10.5273 15.8087 10.3861C15.6863 10.2449 15.5201 10.1656 15.3469 10.1656Z" fill="#F54748"/>
</svg>
