<svg width="15" height="14" viewBox="0 0 15 14" fill="none" xmlns="http://www.w3.org/2000/svg">
<path d="M4.98987 8.64706L5.39585 8.71459C5.40565 8.65563 5.4025 8.59524 5.38661 8.53761C5.37073 8.47999 5.34249 8.42652 5.30385 8.38091C5.26522 8.33531 5.21713 8.29865 5.1629 8.27351C5.10868 8.24836 5.04964 8.23532 4.98987 8.23529V8.64706ZM14.0482 8.64706V9.05882C14.1574 9.05882 14.2621 9.01544 14.3394 8.93822C14.4166 8.861 14.46 8.75627 14.46 8.64706H14.0482ZM12.4012 -1.78814e-07L3.04644 -1.78814e-07V0.823529L12.4012 0.823529V-1.78814e-07ZM2.05826 9.05882L4.98987 9.05882V8.23529L2.05826 8.23529V9.05882ZM4.58389 8.57953L3.92016 12.5613L4.73212 12.6972L5.39585 8.71459L4.58389 8.57953ZM5.1381 14H5.3135V13.1765H5.1381V14ZM7.71231 12.7161L9.78421 9.60894L9.09906 9.15188L7.028 12.2599L7.71314 12.7161H7.71231ZM10.8119 9.05882H14.0482V8.23529H10.8119V9.05882ZM14.46 8.64706L14.46 2.05882H13.6365L13.6365 8.64706H14.46ZM1.02725 1.65529L0.0390691 6.59647L0.846085 6.75788L1.83427 1.81671L1.02725 1.65529ZM9.78421 9.60894C9.89699 9.43973 10.0498 9.30099 10.2291 9.20502C10.4084 9.10906 10.6086 9.05884 10.8119 9.05882V8.23529C10.473 8.23529 10.1394 8.31895 9.84059 8.47884C9.54179 8.63873 9.28708 8.86992 9.09906 9.15188L9.78421 9.60894ZM3.92016 12.5613C3.89062 12.7382 3.89997 12.9195 3.94757 13.0925C3.99517 13.2654 4.07987 13.426 4.19577 13.5629C4.31168 13.6998 4.45602 13.8098 4.61875 13.8853C4.78149 13.9608 4.95871 13.9999 5.1381 14V13.1765C5.07826 13.1766 5.01912 13.1636 4.9648 13.1385C4.91047 13.1134 4.86227 13.0768 4.82355 13.0312C4.78483 12.9855 4.75652 12.932 4.74058 12.8743C4.72465 12.8167 4.72148 12.7562 4.73129 12.6972L3.92016 12.5613ZM2.05826 8.23529C1.87551 8.23531 1.69503 8.19476 1.52984 8.1166C1.36466 8.03843 1.21887 7.92457 1.103 7.78325C0.987122 7.64193 0.904048 7.47665 0.859764 7.29934C0.81548 7.12203 0.810266 6.9371 0.846085 6.75788L0.0390691 6.59647C-0.0206063 6.89505 -0.0124946 7.20314 0.0612344 7.49856C0.134964 7.79398 0.273297 8.06937 0.466268 8.30488C0.659239 8.5404 0.902044 8.73018 1.17719 8.86055C1.45233 8.99092 1.75297 9.05864 2.05743 9.05882V8.23529H2.05826ZM3.04644 -1.78814e-07C2.5704 -9.35347e-05 2.10905 0.164795 1.7409 0.466598C1.37275 0.768401 1.12055 1.18847 1.02725 1.65529L1.83427 1.81671C1.89027 1.5365 2.04168 1.28437 2.26271 1.10328C2.48374 0.922185 2.76071 0.823321 3.04644 0.823529V-1.78814e-07ZM5.31432 14C5.78896 14.0001 6.25627 13.8829 6.67475 13.6589C7.09323 13.435 7.44992 13.1111 7.71314 12.7161L7.028 12.2599C6.83998 12.5418 6.58527 12.773 6.28648 12.9329C5.98768 13.0928 5.65403 13.1765 5.31515 13.1765V14H5.31432ZM12.4012 0.823529C12.7288 0.823529 13.043 0.953677 13.2747 1.18534C13.5063 1.417 13.6365 1.7312 13.6365 2.05882H14.46C14.46 1.78845 14.4067 1.52073 14.3033 1.27095C14.1998 1.02116 14.0481 0.794195 13.857 0.603015C13.6658 0.411836 13.4389 0.260185 13.1891 0.156719C12.9393 0.0532535 12.6716 -1.78814e-07 12.4012 -1.78814e-07V0.823529Z" fill="#1F272D"/>
<path d="M10.7544 8.64703L10.7544 0.411739Z" fill="#1F272D"/>
<path d="M10.7544 8.64703L10.7544 0.411739" stroke="#1F272D"/>
</svg>
