<svg width="17" height="14" viewBox="0 0 17 14" fill="none" xmlns="http://www.w3.org/2000/svg">
<path d="M1.7 14C1.2325 14 0.832151 13.8285 0.498951 13.4855C0.165751 13.1425 -0.000565223 12.7307 1.44312e-06 12.25V1.75C1.44312e-06 1.26875 0.166601 0.856626 0.499801 0.513626C0.833001 0.170626 1.23307 -0.000581848 1.7 1.48557e-06H15.3C15.7675 1.48557e-06 16.1678 0.171501 16.501 0.514501C16.8342 0.857501 17.0006 1.26933 17 1.75V12.25C17 12.7312 16.8334 13.1434 16.5002 13.4864C16.167 13.8294 15.7669 14.0006 15.3 14H1.7ZM8.5 7.72187C8.57083 7.72187 8.64535 7.71079 8.72355 7.68862C8.80175 7.66646 8.87598 7.63379 8.94625 7.59063L14.96 3.71875C15.0733 3.64583 15.1583 3.55454 15.215 3.44488C15.2717 3.33521 15.3 3.21504 15.3 3.08438C15.3 2.79271 15.1796 2.57396 14.9387 2.42813C14.6979 2.28229 14.45 2.28958 14.195 2.45L8.5 6.125L2.805 2.45C2.55 2.28958 2.30208 2.28608 2.06125 2.4395C1.82042 2.59292 1.7 2.80788 1.7 3.08438C1.7 3.23021 1.72833 3.35796 1.785 3.46763C1.84167 3.57729 1.92667 3.661 2.04 3.71875L8.05375 7.59063C8.12458 7.63438 8.1991 7.66733 8.2773 7.6895C8.3555 7.71167 8.42973 7.72246 8.5 7.72187Z" fill="#F56A6B"/>
</svg>
