<svg width="27" height="26" viewBox="0 0 27 26" fill="none" xmlns="http://www.w3.org/2000/svg">
<path d="M18.1604 16.7573L18.7368 12.9995H15.1313V10.561C15.1313 9.53281 15.635 8.5308 17.2499 8.5308H18.8891V5.3316C18.8891 5.3316 17.4014 5.0777 15.979 5.0777C13.0097 5.0777 11.0688 6.87738 11.0688 10.1355V12.9995H7.76807V16.7573H11.0688V25.8415C11.7408 25.9468 12.4199 25.9996 13.1001 25.9995C13.7802 25.9997 14.4594 25.9469 15.1313 25.8415V16.7573H18.1604Z" fill="white"/>
<path d="M26.0492 12.9999C26.0492 5.82031 20.2289 0 13.0492 0C5.86963 0 0.0493164 5.82021 0.0493164 12.9999C0.0493164 19.4885 4.80323 24.8667 11.018 25.8419V16.7577H7.71724V12.9999H11.018V10.1359C11.018 6.87777 12.9589 5.0781 15.9282 5.0781C17.3506 5.0781 18.8383 5.332 18.8383 5.332V8.5312H17.1991C15.584 8.5312 15.0805 9.53331 15.0805 10.5614V12.9999H18.6859L18.1096 16.7577H15.0805V25.8419C21.2953 24.8667 26.0492 19.4886 26.0492 12.9999Z" fill="#1877F2"/>
</svg>
