<svg width="14" height="18" viewBox="0 0 14 18" fill="none" xmlns="http://www.w3.org/2000/svg">
<path d="M2.63791 5.20358C2.55717 6.0649 2.5005 7.58921 3.00907 8.23803C3.00907 8.23803 2.76966 6.56356 4.91587 4.46268C5.78002 3.61695 5.97977 2.46663 5.67803 1.6039C5.50661 1.11516 5.19353 0.711416 4.92154 0.429505C4.76288 0.263758 4.88471 -0.00965404 5.11562 0.000262442C6.51243 0.0625946 8.77622 0.450754 9.73812 2.86471C10.1603 3.92436 10.1914 5.01942 9.99028 6.1329C9.86278 6.84405 9.40946 8.42502 10.4436 8.6191C11.1817 8.75793 11.5387 8.17145 11.6987 7.74929C11.7653 7.57362 11.9962 7.52971 12.1209 7.66995C13.3675 9.08801 13.4738 10.7582 13.216 12.1961C12.7173 14.9756 9.90245 16.9985 7.106 16.9985C3.61256 16.9985 0.831698 14.9997 0.110628 11.3816C-0.179784 9.921 -0.0324527 7.03105 2.22001 4.99109C2.38717 4.83809 2.66058 4.97409 2.63791 5.20358Z" fill="url(#paint0_radial_126_542)"/>
<path d="M8.01819 10.4535C6.73047 8.79598 7.30704 6.90477 7.62295 6.15112C7.66545 6.05195 7.55212 5.95845 7.46287 6.01937C6.90896 6.39619 5.77423 7.28301 5.24583 8.53107C4.53042 10.2183 4.58142 11.0442 5.005 12.0528C5.25999 12.6606 4.96392 12.7895 4.81517 12.8122C4.67067 12.8348 4.53751 12.7385 4.43126 12.6379C4.1256 12.3445 3.90779 11.9716 3.80227 11.5613C3.7796 11.4734 3.66486 11.4494 3.61244 11.5216C3.21578 12.0698 3.01037 12.9496 3.00045 13.5715C2.96928 15.4939 4.55734 17.0522 6.4783 17.0522C8.89934 17.0522 10.6631 14.3747 9.27192 12.1364C8.86818 11.4848 8.48852 11.0584 8.01819 10.4535Z" fill="url(#paint1_radial_126_542)"/>
<defs>
<radialGradient id="paint0_radial_126_542" cx="0" cy="0" r="1" gradientUnits="userSpaceOnUse" gradientTransform="translate(6.41408 17.0426) rotate(-179.751) scale(9.99974 16.4076)">
<stop offset="0.314" stop-color="#FF9800"/>
<stop offset="0.662" stop-color="#FF6D00"/>
<stop offset="0.972" stop-color="#F44336"/>
</radialGradient>
<radialGradient id="paint1_radial_126_542" cx="0" cy="0" r="1" gradientUnits="userSpaceOnUse" gradientTransform="translate(6.61146 7.14395) rotate(90.5787) scale(10.4628 7.87404)">
<stop offset="0.214" stop-color="#FFF176"/>
<stop offset="0.328" stop-color="#FFF27D"/>
<stop offset="0.487" stop-color="#FFF48F"/>
<stop offset="0.672" stop-color="#FFF7AD"/>
<stop offset="0.793" stop-color="#FFF9C4"/>
<stop offset="0.822" stop-color="#FFF8BD" stop-opacity="0.804"/>
<stop offset="0.863" stop-color="#FFF6AB" stop-opacity="0.529"/>
<stop offset="0.91" stop-color="#FFF38D" stop-opacity="0.209"/>
<stop offset="0.941" stop-color="#FFF176" stop-opacity="0"/>
</radialGradient>
</defs>
</svg>
