<svg width="10" height="10" viewBox="0 0 10 10" fill="none" xmlns="http://www.w3.org/2000/svg">
<path d="M2.49479 0.0473267C2.93713 -0.0363986 3.39073 -0.00877968 3.82218 0.128148C4.25363 0.265075 4.65191 0.50782 4.98768 0.838488L5.00617 0.85681L5.02316 0.840154C5.34362 0.52774 5.72036 0.294833 6.12825 0.156969C6.53615 0.0191056 6.96582 -0.0205444 7.3886 0.0406644L7.51155 0.0606516C8.04446 0.162869 8.54257 0.423285 8.95313 0.81432C9.36369 1.20536 9.67142 1.71246 9.84372 2.28192C10.016 2.85138 10.0465 3.46201 9.93191 4.04914C9.81732 4.63627 9.56193 5.17805 9.19279 5.6171L9.10283 5.71982L9.07884 5.74258L5.35551 9.83941C5.26959 9.93388 5.15575 9.99055 5.0351 9.99892C4.91444 10.0073 4.79514 9.96679 4.69931 9.88493L4.65233 9.83941L0.907504 5.7187C0.510792 5.2899 0.228658 4.74748 0.0923492 4.15152C-0.0439601 3.55556 -0.0291255 2.92932 0.13521 2.34215C0.299546 1.75498 0.606969 1.22979 1.02343 0.824759C1.4399 0.419725 1.94915 0.150648 2.49479 0.0473267Z" fill="#F54748"/>
</svg>
