<svg width="26" height="26" viewBox="0 0 26 26" fill="none" xmlns="http://www.w3.org/2000/svg">
<path d="M25.747 10.4538H24.6999V10.3998H12.9999V15.5998H20.3468C19.275 18.6268 16.3949 20.7997 12.9999 20.7997C8.6924 20.7997 5.19997 17.3073 5.19997 12.9998C5.19997 8.69231 8.6924 5.19992 12.9999 5.19992C14.9883 5.19992 16.7972 5.95 18.1745 7.17523L21.8516 3.49824C19.5298 1.33443 16.4241 0 12.9999 0C5.82072 0 0 5.82066 0 12.9998C0 20.1789 5.82072 25.9996 12.9999 25.9996C20.1791 25.9996 25.9999 20.1789 25.9999 12.9998C25.9999 12.1282 25.9102 11.2773 25.747 10.4538Z" fill="#FFC107"/>
<path d="M1.49902 6.94904L5.77015 10.0813C6.92584 7.22009 9.72473 5.19992 13.0001 5.19992C14.9884 5.19992 16.7973 5.95001 18.1747 7.17524L21.8517 3.49824C19.5299 1.33443 16.4242 0 13.0001 0C8.00679 0 3.67651 2.81901 1.49902 6.94904Z" fill="#FF3D00"/>
<path d="M12.9997 25.999C16.3576 25.999 19.4087 24.714 21.7155 22.6243L17.692 19.2196C16.343 20.2456 14.6945 20.8004 12.9997 20.7991C9.61842 20.7991 6.74738 18.6431 5.66579 15.6343L1.42651 18.9005C3.578 23.1105 7.94728 25.999 12.9997 25.999Z" fill="#4CAF50"/>
<path d="M25.7471 10.4536H24.6999V10.3997H13V15.5996H20.3469C19.8342 17.0402 18.9106 18.2991 17.6904 19.2207L17.6923 19.2194L21.7158 22.624C21.4311 22.8827 25.9999 19.4995 25.9999 12.9996C25.9999 12.128 25.9102 11.2771 25.7471 10.4536Z" fill="#1976D2"/>
</svg>
