<svg width="30" height="30" viewBox="0 0 30 30" fill="none" xmlns="http://www.w3.org/2000/svg">
<circle cx="15" cy="15" r="15" fill="white"/>
<path d="M21.5515 16.2297L15.0072 22.8571L8.46301 16.2297C8.03136 15.8002 7.69135 15.284 7.4644 14.7135C7.23745 14.143 7.12848 13.5307 7.14434 12.915C7.16019 12.2994 7.30055 11.6938 7.55655 11.1363C7.81256 10.5789 8.17867 10.0816 8.63184 9.67597C9.085 9.2703 9.61541 8.96497 10.1896 8.7792C10.7639 8.59343 11.3695 8.53125 11.9684 8.59658C12.5673 8.66191 13.1465 8.85332 13.6695 9.15877C14.1925 9.46422 14.648 9.87709 15.0072 10.3714C15.3681 9.88068 15.8241 9.47142 16.3467 9.16921C16.8693 8.867 17.4474 8.67835 18.0446 8.61507C18.6418 8.55178 19.2453 8.61522 19.8175 8.80142C20.3896 8.98763 20.918 9.29258 21.3696 9.69719C21.8212 10.1018 22.1862 10.5974 22.4418 11.1529C22.6975 11.7084 22.8383 12.3119 22.8553 12.9256C22.8724 13.5392 22.7654 14.1499 22.5411 14.7194C22.3167 15.2889 21.9798 15.8049 21.5515 16.2351" stroke="#F54748" stroke-width="2" stroke-linecap="round" stroke-linejoin="round"/>
</svg>
