<svg width="15" height="16" viewBox="0 0 15 16" fill="none" xmlns="http://www.w3.org/2000/svg">
<path d="M7.825 0.895424C7.73443 0.817959 7.61918 0.775391 7.5 0.775391C7.38082 0.775391 7.26557 0.817959 7.175 0.895424L0 7.04542V14.2754C0 14.6732 0.158035 15.0548 0.43934 15.3361C0.720644 15.6174 1.10218 15.7754 1.5 15.7754H5.5C5.63261 15.7754 5.75979 15.7227 5.85355 15.629C5.94732 15.5352 6 15.408 6 15.2754V12.2754C6 11.8776 6.15804 11.4961 6.43934 11.2148C6.72064 10.9335 7.10218 10.7754 7.5 10.7754C7.89782 10.7754 8.27936 10.9335 8.56066 11.2148C8.84196 11.4961 9 11.8776 9 12.2754V15.2754C9 15.408 9.05268 15.5352 9.14645 15.629C9.24021 15.7227 9.36739 15.7754 9.5 15.7754H13.5C13.8978 15.7754 14.2794 15.6174 14.5607 15.3361C14.842 15.0548 15 14.6732 15 14.2754V7.04542L7.825 0.895424Z" fill="#F54748"/>
</svg>
