<svg width="16" height="16" viewBox="0 0 16 16" fill="none" xmlns="http://www.w3.org/2000/svg">
<path d="M8 16C12.4183 16 16 12.4183 16 8C16 3.58172 12.4183 0 8 0C3.58172 0 0 3.58172 0 8C0 12.4183 3.58172 16 8 16Z" fill="#00ACC1"/>
<path d="M8.0001 14.4001C11.5347 14.4001 14.4001 11.5347 14.4001 8.0001C14.4001 4.46547 11.5347 1.6001 8.0001 1.6001C4.46547 1.6001 1.6001 4.46547 1.6001 8.0001C1.6001 11.5347 4.46547 14.4001 8.0001 14.4001Z" fill="#EEEEEE"/>
<path d="M7.6001 2.80005H8.4001V8.00005H7.6001V2.80005Z" fill="black"/>
<path d="M10.9142 10.2617L10.2642 10.9121L7.6626 8.31047L8.313 7.65967L10.9142 10.2617Z" fill="black"/>
<path d="M7.99995 8.79995C8.44178 8.79995 8.79995 8.44178 8.79995 7.99995C8.79995 7.55812 8.44178 7.19995 7.99995 7.19995C7.55812 7.19995 7.19995 7.55812 7.19995 7.99995C7.19995 8.44178 7.55812 8.79995 7.99995 8.79995Z" fill="black"/>
<path d="M8.0001 8.4001C8.22101 8.4001 8.4001 8.22101 8.4001 8.0001C8.4001 7.77918 8.22101 7.6001 8.0001 7.6001C7.77918 7.6001 7.6001 7.77918 7.6001 8.0001C7.6001 8.22101 7.77918 8.4001 8.0001 8.4001Z" fill="#00ACC1"/>
</svg>
