<svg width="27" height="26" viewBox="0 0 27 26" fill="none" xmlns="http://www.w3.org/2000/svg">
<path d="M20.2059 0H6.39352C3.02805 0 0.299805 2.72825 0.299805 6.09372V19.9061C0.299805 23.2716 3.02805 25.9999 6.39352 25.9999H20.2059C23.5714 25.9999 26.2997 23.2716 26.2997 19.9061V6.09372C26.2997 2.72825 23.5714 0 20.2059 0Z" fill="url(#paint0_radial_158_7)"/>
<path d="M20.2059 0H6.39352C3.02805 0 0.299805 2.72825 0.299805 6.09372V19.9061C0.299805 23.2716 3.02805 25.9999 6.39352 25.9999H20.2059C23.5714 25.9999 26.2997 23.2716 26.2997 19.9061V6.09372C26.2997 2.72825 23.5714 0 20.2059 0Z" fill="url(#paint1_radial_158_7)"/>
<path d="M13.3007 2.84296C10.5424 2.84296 10.1962 2.85504 9.11296 2.9043C8.03173 2.95386 7.29368 3.12499 6.64795 3.37616C5.97987 3.63555 5.41326 3.98258 4.84878 4.54727C4.28379 5.11185 3.93675 5.67846 3.67655 6.34623C3.42468 6.99217 3.25334 7.73052 3.20469 8.81124C3.15625 9.89461 3.14355 10.2409 3.14355 12.9993C3.14355 15.7576 3.15574 16.1027 3.2049 17.1859C3.25466 18.2672 3.4258 19.0052 3.67675 19.651C3.93635 20.319 4.28338 20.8856 4.84807 21.4501C5.41245 22.0151 5.97906 22.363 6.64663 22.6223C7.29287 22.8735 8.03102 23.0446 9.11204 23.0942C10.1954 23.1435 10.5413 23.1555 13.2994 23.1555C16.058 23.1555 16.4031 23.1435 17.4863 23.0942C18.5676 23.0446 19.3064 22.8735 19.9527 22.6223C20.6204 22.363 21.1862 22.0151 21.7505 21.4501C22.3155 20.8856 22.6624 20.319 22.9227 19.6513C23.1724 19.0052 23.3438 18.267 23.3946 17.1861C23.4432 16.1029 23.4559 15.7576 23.4559 12.9993C23.4559 10.2409 23.4432 9.89481 23.3946 8.81145C23.3438 7.73022 23.1724 6.99227 22.9227 6.34654C22.6624 5.67846 22.3155 5.11185 21.7505 4.54727C21.1856 3.98238 20.6206 3.63534 19.9521 3.37626C19.3046 3.12499 18.5661 2.95376 17.4849 2.9043C16.4016 2.85504 16.0566 2.84296 13.2975 2.84296H13.3007ZM12.3896 4.6732C12.66 4.6728 12.9618 4.6732 13.3007 4.6732C16.0125 4.6732 16.3338 4.68295 17.4047 4.7316C18.3949 4.7769 18.9324 4.94234 19.2904 5.08138C19.7644 5.26541 20.1023 5.4855 20.4575 5.84107C20.813 6.19653 21.033 6.53504 21.2175 7.00903C21.3566 7.36653 21.5222 7.90399 21.5673 8.89422C21.6159 9.96489 21.6265 10.2864 21.6265 12.9969C21.6265 15.7074 21.6159 16.029 21.5673 17.0996C21.522 18.0898 21.3566 18.6273 21.2175 18.9849C21.0335 19.4589 20.813 19.7964 20.4575 20.1517C20.1021 20.5071 19.7646 20.7271 19.2904 20.9112C18.9328 21.0509 18.3949 21.2159 17.4047 21.2612C16.334 21.3099 16.0125 21.3204 13.3007 21.3204C10.5888 21.3204 10.2673 21.3099 9.19675 21.2612C8.20652 21.2155 7.66905 21.0501 7.31074 20.911C6.83685 20.7269 6.49825 20.5069 6.14278 20.1514C5.78731 19.796 5.56733 19.4583 5.38279 18.9841C5.24375 18.6265 5.07811 18.089 5.03301 17.0988C4.98436 16.0281 4.97461 15.7066 4.97461 12.9944C4.97461 10.2823 4.98436 9.96235 5.03301 8.89168C5.07831 7.90145 5.24375 7.36399 5.38279 7.00598C5.56692 6.53199 5.78731 6.19349 6.14288 5.83802C6.49835 5.48255 6.83685 5.26247 7.31084 5.07803C7.66885 4.93838 8.20652 4.77334 9.19675 4.72784C10.1337 4.68549 10.4967 4.6728 12.3896 4.67067V4.6732ZM18.722 6.35954C18.0492 6.35954 17.5033 6.90493 17.5033 7.57788C17.5033 8.25072 18.0492 8.79662 18.722 8.79662C19.3949 8.79662 19.9408 8.25072 19.9408 7.57788C19.9408 6.90503 19.3949 6.35913 18.722 6.35913V6.35954ZM13.3007 7.78354C10.4204 7.78354 8.08505 10.1189 8.08505 12.9993C8.08505 15.8797 10.4204 18.2138 13.3007 18.2138C16.1811 18.2138 18.5156 15.8797 18.5156 12.9993C18.5156 10.119 16.1809 7.78354 13.3005 7.78354H13.3007ZM13.3007 9.61379C15.1703 9.61379 16.6861 11.1294 16.6861 12.9993C16.6861 14.8689 15.1703 16.3847 13.3007 16.3847C11.4309 16.3847 9.9153 14.8689 9.9153 12.9993C9.9153 11.1294 11.4309 9.61379 13.3007 9.61379Z" fill="white"/>
<defs>
<radialGradient id="paint0_radial_158_7" cx="0" cy="0" r="1" gradientUnits="userSpaceOnUse" gradientTransform="translate(7.20602 28.0024) rotate(-90) scale(25.7678 23.9661)">
<stop stop-color="#FFDD55"/>
<stop offset="0.1" stop-color="#FFDD55"/>
<stop offset="0.5" stop-color="#FF543E"/>
<stop offset="1" stop-color="#C837AB"/>
</radialGradient>
<radialGradient id="paint1_radial_158_7" cx="0" cy="0" r="1" gradientUnits="userSpaceOnUse" gradientTransform="translate(-4.05527 1.8729) rotate(78.681) scale(11.5183 47.479)">
<stop stop-color="#3771C8"/>
<stop offset="0.128" stop-color="#3771C8"/>
<stop offset="1" stop-color="#6600FF" stop-opacity="0"/>
</radialGradient>
</defs>
</svg>
