<svg width="15" height="15" viewBox="0 0 15 15" fill="none" xmlns="http://www.w3.org/2000/svg">
<path d="M7.5 0C5.99083 0 4.75446 1.27624 4.75446 2.8341C4.75446 3.72622 5.16037 4.52544 5.79033 5.04608H3.21429L0 15H15L11.7857 5.04608H9.20967C9.83963 4.52544 10.2455 3.72622 10.2455 2.8341C10.2455 1.27624 9.00917 0 7.5 0ZM7.5 1.24424C8.35775 1.24424 9.04018 1.94869 9.04018 2.8341C9.04018 3.71952 8.35775 4.42396 7.5 4.42396C6.64225 4.42396 5.95982 3.71952 5.95982 2.8341C5.95982 1.94869 6.64225 1.24424 7.5 1.24424ZM4.74727 8.25864H5.5341V9.40828L6.66824 8.25861H7.58173L6.11243 9.74997L7.73297 11.4081H6.74799L5.5341 10.1677V11.4081H4.74727V8.25864ZM8.76291 8.99274C8.92229 8.99274 9.06264 9.02502 9.18388 9.08972C9.30509 9.15442 9.41618 9.25631 9.51703 9.3956V9.04548H10.2527V11.1697C10.2527 11.5494 10.1362 11.8391 9.90321 12.0388C9.67162 12.24 9.33509 12.3405 8.89366 12.3405C8.75062 12.3405 8.61241 12.3292 8.47882 12.3067C8.34216 12.2835 8.20753 12.2489 8.07623 12.2034V11.6148C8.20433 11.6908 8.32969 11.747 8.45223 11.7836C8.57491 11.8216 8.69822 11.8406 8.82221 11.8406C9.06201 11.8406 9.23772 11.7864 9.34942 11.6781C9.46115 11.5699 9.51703 11.4004 9.51703 11.1698V11.0073C9.41625 11.1451 9.30516 11.2464 9.18388 11.3111C9.06268 11.3757 8.92229 11.4081 8.76291 11.4081C8.48357 11.4081 8.25271 11.2949 8.07017 11.0685C7.88759 10.8407 7.79628 10.551 7.79628 10.1994C7.79628 9.84639 7.88759 9.55738 8.07017 9.33238C8.25271 9.106 8.48357 8.99274 8.76291 8.99274ZM9.03472 9.53696C8.88348 9.53696 8.76559 9.59468 8.68115 9.70994C8.59667 9.82531 8.55445 9.98844 8.55445 10.1994C8.55445 10.416 8.5953 10.5805 8.67706 10.693C8.75883 10.8041 8.87806 10.8597 9.03472 10.8597C9.1873 10.8597 9.30579 10.8019 9.3903 10.6866C9.47474 10.5713 9.517 10.4089 9.517 10.1994C9.517 9.98841 9.47474 9.82528 9.39027 9.70998C9.30579 9.59464 9.1873 9.53696 9.03469 9.53696H9.03472Z" fill="#255F7B"/>
</svg>
