<svg width="15" height="14" viewBox="0 0 15 14" fill="none" xmlns="http://www.w3.org/2000/svg">
<path d="M9.47059 5.35294L9.06459 5.28541C9.05479 5.34437 9.05794 5.40476 9.07382 5.46239C9.08971 5.52001 9.11795 5.57348 9.15659 5.61909C9.19522 5.66469 9.24332 5.70135 9.29754 5.72649C9.35177 5.75164 9.41082 5.76468 9.47059 5.76471V5.35294ZM0.411765 5.35294V4.94118C0.302558 4.94118 0.197824 4.98456 0.120603 5.06178C0.0433823 5.139 0 5.24373 0 5.35294H0.411765ZM2.05882 14H11.4141V13.1765H2.05882V14ZM12.4024 4.94118H9.47059V5.76471H12.4024V4.94118ZM9.87659 5.42047L10.5404 1.43871L9.72835 1.30282L9.06459 5.28541L9.87659 5.42047ZM9.32235 3.22532e-08H9.14694V0.823529H9.32235V3.22532e-08ZM6.748 1.28388L4.676 4.39106L5.36118 4.84812L7.43235 1.74012L6.74718 1.28388H6.748ZM3.64824 4.94118H0.411765V5.76471H3.64824V4.94118ZM0 5.35294V11.9412H0.823529V5.35294H0ZM13.4334 12.3447L14.4216 7.40353L13.6146 7.24212L12.6264 12.1833L13.4334 12.3447ZM4.676 4.39106C4.5632 4.56027 4.41038 4.69901 4.23109 4.79498C4.0518 4.89094 3.85159 4.94116 3.64824 4.94118V5.76471C3.98714 5.76471 4.3208 5.68105 4.61962 5.52116C4.91843 5.36127 5.17315 5.13008 5.36118 4.84812L4.676 4.39106ZM10.5404 1.43871C10.5699 1.26176 10.5605 1.0805 10.5129 0.907533C10.4653 0.734566 10.3806 0.574043 10.2647 0.437123C10.1488 0.300204 10.0045 0.190175 9.84172 0.114687C9.67898 0.0391988 9.50175 6.26889e-05 9.32235 3.22532e-08V0.823529C9.38219 0.823437 9.44134 0.836389 9.49566 0.861484C9.54999 0.886578 9.59819 0.923212 9.63691 0.968834C9.67564 1.01446 9.70395 1.06797 9.71989 1.12565C9.73582 1.18333 9.73899 1.24379 9.72918 1.30282L10.5404 1.43871ZM12.4024 5.76471C12.5851 5.76469 12.7656 5.80524 12.9308 5.8834C13.096 5.96157 13.2418 6.07543 13.3577 6.21675C13.4735 6.35807 13.5566 6.52335 13.6009 6.70066C13.6452 6.87797 13.6504 7.0629 13.6146 7.24212L14.4216 7.40353C14.4813 7.10495 14.4732 6.79686 14.3995 6.50144C14.3257 6.20602 14.1874 5.93063 13.9944 5.69512C13.8014 5.4596 13.5586 5.26982 13.2835 5.13945C13.0083 5.00908 12.7077 4.94136 12.4032 4.94118V5.76471H12.4024ZM11.4141 14C11.8902 14.0001 12.3516 13.8352 12.7197 13.5334C13.0879 13.2316 13.3401 12.8115 13.4334 12.3447L12.6264 12.1833C12.5703 12.4635 12.4189 12.7156 12.1979 12.8967C11.9769 13.0778 11.6999 13.1767 11.4141 13.1765V14ZM9.14612 3.22532e-08C8.67145 -7.09689e-05 8.20412 0.117084 7.78562 0.341059C7.36712 0.565034 7.01041 0.888897 6.74718 1.28388L7.43235 1.74012C7.62038 1.45816 7.8751 1.22697 8.17391 1.06707C8.47273 0.90718 8.80639 0.823524 9.14529 0.823529V3.22532e-08H9.14612ZM2.05882 13.1765C1.7312 13.1765 1.417 13.0463 1.18534 12.8147C0.953676 12.583 0.823529 12.2688 0.823529 11.9412H0C0 12.2115 0.0532531 12.4793 0.156719 12.7291C0.260184 12.9788 0.411836 13.2058 0.603015 13.397C0.794195 13.5882 1.02116 13.7398 1.27095 13.8433C1.52073 13.9467 1.78845 14 2.05882 14V13.1765Z" fill="#1F272D"/>
<path d="M3.70581 5.35297V13.5883Z" fill="#1F272D"/>
<path d="M3.70581 5.35297V13.5883" stroke="#1F272D"/>
</svg>
