<svg width="40" height="37" viewBox="0 0 40 37" fill="none" xmlns="http://www.w3.org/2000/svg">
<ellipse cx="20" cy="18.5" rx="20" ry="18.5" fill="#F5F5F5"/>
<path d="M8.26007 23.3606C8.26007 23.3606 8.03507 24.5406 8.55773 25.5815C8.99367 26.4533 10.1234 27.6013 12.2843 28.4769C14.4452 29.3525 16.9273 29.6606 20.5905 29.7207C24.2538 29.7827 28.0179 29.0969 29.8249 27.8249C31.6343 26.551 32.2671 25.48 32.2155 24.317C32.164 23.1539 31.3929 22.7124 31.3929 22.7124L8.26007 23.3606Z" fill="#FCB745"/>
<path d="M9.3079 22.175L8.23915 23.0318C8.23915 23.0318 7.94853 24.178 9.56103 25.418C10.7821 26.3556 12.9431 27.9846 20.1196 28.0278C26.8368 28.0692 28.9485 26.8855 30.2446 26.0494C31.5431 25.2132 32.0306 23.7608 31.9017 23.3531C31.7751 22.9454 31.3767 22.7105 31.3767 22.7105L9.3079 22.175Z" fill="#E78B20"/>
<path d="M9.76487 23.3982C9.76487 23.3982 9.46253 23.8097 9.56097 24.0708C9.63831 24.2756 9.79065 25.1118 12.8164 26.1715C14.4172 26.7332 17.1407 27.1917 20.6774 27.109C24.8727 27.0113 28.2336 26.3349 29.8602 25.1099C31.5266 23.8566 31.2078 23.1107 31.2078 23.1107L9.76487 23.3982Z" fill="#FFD290"/>
<path d="M8.9001 20.5422C8.9001 20.5422 7.89698 21.3614 7.73057 21.7259C7.57354 22.0698 7.59464 22.5696 7.8712 22.9735C8.24385 23.5147 8.70792 23.571 9.28214 23.8472C9.90323 24.1441 10.8853 25.0704 13.3017 25.4781C15.7181 25.8858 18.8985 26.07 20.6024 26.07C22.3064 26.07 24.5704 26.0493 26.6821 25.4781C28.7939 24.9069 31.2103 23.7852 31.7704 22.7856C32.3306 21.7861 31.7962 21.1942 31.7962 21.1942L30.5751 20.5422H8.9001Z" fill="#6D544D"/>
<path d="M8.314 19.5031C8.314 19.5031 7.53587 19.475 7.34837 20.42C7.21244 21.1077 7.83119 21.5418 7.83119 21.5418C7.83119 21.5418 7.50306 21.9194 7.88275 22.3985C8.239 22.8476 8.62103 22.9491 9.40853 23.0505C9.97572 23.1238 10.2734 22.9885 11.0117 23.3154C11.9374 23.725 12.3335 24.4578 13.6062 24.6814C14.8788 24.905 16.3038 24.7021 16.3531 24.5386C16.4023 24.3751 14.5718 23.7645 11.2648 22.2745C10.1492 21.7729 9.12728 21.0908 8.84837 20.7451C8.56947 20.3994 8.314 19.5031 8.314 19.5031ZM24.3171 24.4785C24.3171 24.7434 25.4117 24.6213 25.9202 24.3977C26.4288 24.1741 27.2421 23.6029 27.9804 23.3568C28.7187 23.1125 28.9976 23.3361 30.0663 22.9284C31.1351 22.5207 31.721 21.5624 31.721 21.5624C31.721 21.5624 32.2413 21.0476 32.2835 20.6869C32.3492 20.1363 32.2812 19.8695 31.7984 19.7474C31.3156 19.6253 30.2632 20.8935 30.1109 21.0363C29.9585 21.1791 27.7038 22.5 26.8132 23.0092C25.9226 23.5184 24.3171 24.3357 24.3171 24.4785Z" fill="#9B7169"/>
<path d="M9.30791 18.8098C9.30791 18.8098 8.03525 18.932 7.85713 19.3604C7.679 19.7888 8.23916 20.4201 9.71338 21.2167C10.9228 21.8687 15.0665 23.4376 16.7095 24.2549C18.5915 25.1925 20.1853 26.5021 20.4501 26.519C20.7806 26.5397 23.0751 24.5856 26.2509 22.8683C29.2696 21.2336 31.3392 20.8297 32.0774 19.6253C32.4735 18.9789 31.5173 18.605 31.5173 18.605L19.2548 14.8735L9.30791 18.8098Z" fill="#FFE869"/>
<path d="M20.6022 25.418C20.9819 25.3842 22.9671 23.8473 25.3085 22.6654C27.6499 21.4836 31.1093 20.2172 31.6179 19.5051C32.1265 18.793 30.9054 18.3214 30.9054 18.3214L16.6577 16.4049L8.31396 19.0354C8.31396 19.0354 7.85693 19.1575 8.16162 19.4638C8.46631 19.77 8.94912 20.2792 10.0179 20.8091C11.3163 21.4535 14.6491 22.5226 16.7585 23.4395C18.8726 24.3564 20.1452 25.4575 20.6022 25.418Z" fill="#FFBE01"/>
<path d="M9.4624 19.3397L9.90537 20.2904C9.90537 20.2904 13.0929 22.8664 19.4327 22.9679C25.7421 23.0693 29.2788 20.6624 29.2788 20.6624L30.0851 19.0391L9.4624 19.3397Z" fill="#F4482B"/>
<path d="M17.7734 20.9105L17.2742 21.5512C17.2742 21.5512 18.3406 22.0641 18.6477 22.1524C19.0883 22.2783 19.5219 22.2332 20.1711 22.0716C20.8203 21.9119 23.5156 21.0514 23.5156 21.0514C23.5156 21.0514 25.7445 21.0777 27.1438 21.0984C28.3836 21.1172 29.6258 20.7602 30.275 20.1589C30.9242 19.5577 31.932 18.2687 31.932 18.2687C31.932 18.2687 32.457 18.1692 32.8062 17.8479C33.1555 17.5266 33.1812 17.2466 33.1812 17.2466C33.1812 17.2466 33.0805 16.7055 32.7078 16.5664C32.3328 16.4255 15.6313 15.6063 15.6313 15.6063L8.93984 16.0065L7.8125 17.8685L11.532 20.4107L16.775 20.6512L17.7734 20.9105Z" fill="#A6B732"/>
<path d="M8.16163 16.2282C7.78428 16.091 7.38819 16.108 7.21241 16.5082C7.03663 16.9084 7.09053 17.085 7.09053 17.085C7.09053 17.085 6.57725 17.1714 6.51397 17.6881C6.43897 18.3082 7.28741 18.528 7.28741 18.528C7.28741 18.528 7.32725 18.7685 7.66241 19.009C8.04444 19.2833 8.42647 19.2551 8.42647 19.2551C8.42647 19.2551 9.43428 20.0499 10.1093 20.3693C10.7843 20.6887 11.7569 20.9104 12.7319 20.8898C13.7069 20.8691 14.0304 20.5102 14.7546 20.7094C15.4788 20.9086 17.3983 21.7184 18.1718 21.7315C19.3952 21.7522 22.0413 20.2303 22.6413 20.2509C23.2413 20.2716 25.9624 20.6117 27.4108 20.6117C28.8593 20.6117 29.3843 20.2716 29.7077 19.9315C30.0312 19.5914 30.5819 18.7309 30.4062 18.7102C30.2304 18.6896 29.0819 19.4505 28.2593 19.3904C27.4343 19.3303 26.7124 18.9507 25.6882 18.9507C24.664 18.9507 19.6718 19.4712 19.346 19.5914C19.0202 19.7117 17.6233 20.5722 17.3491 20.5328C17.0749 20.4933 16.1257 19.8526 15.8023 19.7117C15.4788 19.5708 12.0733 19.4806 11.5835 19.552C11.2319 19.6027 10.7351 19.6722 10.7351 19.6722C10.7351 19.6722 10.7843 19.0522 10.3601 18.6914C9.93585 18.3307 8.53663 17.7107 8.53663 17.7107C8.53663 17.7107 8.71007 16.4274 8.16163 16.2282ZM30.3054 17.3086C30.3054 17.3086 31.8288 17.3086 32.253 17.2879C32.6773 17.2672 33.1765 17.2484 33.1765 17.2484C33.1765 17.2484 33.0312 16.6942 32.8108 16.3992C32.3608 15.7942 31.278 15.627 31.278 15.627L30.3054 17.3086Z" fill="#C2DD1F"/>
<path d="M7.8124 15.4879L7.646 16.0779C7.646 16.0779 9.9499 19.3491 20.3046 19.4731C26.3655 19.5464 29.8483 18.0714 31.3858 16.8652C32.3069 16.1418 32.3374 15.4391 32.3374 15.4391L7.8124 15.4879Z" fill="#DE8010"/>
<path d="M7.28746 13.8608C7.15621 15.4955 7.65308 16.0817 7.65308 16.0817C7.65308 16.0817 11.0796 18.5694 19.8312 18.684C28.8007 18.8005 31.7164 16.4161 32.2273 15.721C32.5531 15.2794 32.8132 14.4132 32.607 13.1506C32.2648 11.065 29.2695 7.10805 19.789 7.13811C10.3086 7.16817 7.47964 11.4878 7.28746 13.8608Z" fill="url(#paint0_radial_35_11)"/>
<path d="M16.2945 9.17299C16.3672 9.4924 14.5695 10.5559 14.3093 9.53562C14.0656 8.57549 16.2265 8.878 16.2945 9.17299ZM16.9367 11.174C17.0304 11.3713 18.8726 11.655 18.6757 10.8227C18.4695 9.95649 16.7445 10.7682 16.9367 11.174ZM18.5515 8.88927C18.5984 9.17299 20.7453 9.50367 20.7007 8.70326C20.6468 7.71496 18.4976 8.56046 18.5515 8.88927ZM15.0101 11.8316C15.0218 11.8955 14.4945 12.2281 13.9554 12.3577C13.482 12.4723 12.9968 12.4235 12.9429 11.9519C12.8914 11.4972 13.2945 11.3319 13.7773 11.3713C14.3328 11.4145 14.9867 11.7095 15.0101 11.8316ZM19.4703 13.16C19.3812 12.8613 17.3632 12.446 17.4992 13.3911C17.6375 14.3325 19.5664 13.4776 19.4703 13.16ZM21.3593 11.0087C21.2609 10.9166 20.7992 10.9335 20.2367 11.0519C19.8312 11.1383 19.5312 11.5047 19.8125 11.8523C20.1406 12.2582 20.6914 12.0872 21.0429 11.7433C21.3289 11.4653 21.4695 11.112 21.3593 11.0087ZM23.5203 8.81224C23.457 8.75775 22.9953 8.72017 22.6179 8.86673C22.2382 9.01328 21.9101 9.36276 22.2617 9.68969C22.6179 10.0185 23.1476 9.82873 23.3984 9.48113C23.5976 9.20117 23.6164 8.89491 23.5203 8.81224ZM24.9687 11.6719C24.9078 11.3657 23.2109 10.8208 23.2226 11.655C23.2343 12.5099 25.0226 11.9481 24.9687 11.6719ZM27.3148 10.1613C27.2586 9.92643 25.1 9.73666 25.4679 10.6104C25.85 11.5216 27.3828 10.4469 27.3148 10.1613ZM24.3429 13.2352C24.357 12.9721 22.714 12.369 22.5922 13.1581C22.4703 13.9473 24.3242 13.5771 24.3429 13.2352Z" fill="#FDEAC8"/>
<defs>
<radialGradient id="paint0_radial_35_11" cx="0" cy="0" r="1" gradientUnits="userSpaceOnUse" gradientTransform="translate(19.8745 9.39147) rotate(89.1995) scale(8.27506 17.9851)">
<stop offset="0.517" stop-color="#DF8016"/>
<stop offset="0.643" stop-color="#E58C21"/>
<stop offset="1" stop-color="#F5AC3C"/>
</radialGradient>
</defs>
</svg>
