<svg width="40" height="37" viewBox="0 0 40 37" fill="none" xmlns="http://www.w3.org/2000/svg">
<ellipse cx="20" cy="18.5" rx="20" ry="18.5" fill="#1F272D"/>
<path d="M31 23.3919C30.9633 14.74 23.3733 7.4356 14.4267 7.40015L9 28.6751L31 23.3919Z" fill="#F6DA77"/>
<path d="M28.2373 24.0502L29 23.9158C28.6368 17.5326 23.6973 10.8471 14.109 10.1752L14 10.8471C21.3366 11.7206 27.3293 17.2303 28.2373 24.0502Z" fill="#860D16"/>
<path d="M28.9249 24.0501L30.9999 23.5499C31.0363 14.8319 23.4646 7.40015 14.5096 7.40015L14 9.43673C22.5545 10.2228 28.1241 15.7251 28.9249 24.0501Z" fill="#C98E52"/>
<path d="M12.8552 21.8582C12.1947 21.8582 11.6119 21.6549 11.1457 21.2484C10.9514 21.079 10.9514 20.8079 11.1457 20.6724C11.34 20.503 11.6508 20.503 11.8062 20.6724C12.3501 21.1467 13.3214 21.1467 13.8653 20.6724C14.1373 20.4352 14.2927 20.1303 14.2927 19.7915C14.2927 19.4527 14.1373 19.1478 13.8653 18.9106C13.6711 18.7412 13.6711 18.4702 13.8653 18.3347C14.0596 18.1653 14.3704 18.1653 14.5258 18.3347C14.992 18.7412 15.2251 19.2494 15.2251 19.8254C15.2251 20.4014 14.992 20.9096 14.5258 21.3161C14.0984 21.621 13.4768 21.8582 12.8552 21.8582ZM22.6069 15.15V15.3194C22.5681 15.421 22.5292 15.4888 22.4127 15.5565C22.2961 15.6243 22.1796 15.6243 22.1019 15.5904C21.7911 15.5226 21.4802 15.5904 21.2083 15.7259C20.9363 15.8614 20.7421 16.0986 20.6644 16.3696C20.509 16.9117 20.9363 17.4877 21.558 17.6232C21.7911 17.6571 21.9465 17.8942 21.8688 18.0636C21.8299 18.2669 21.5968 18.4024 21.3637 18.3347C20.5867 18.1653 20.0039 17.6571 19.8096 16.9795C19.7319 16.7084 19.7319 16.4374 19.8096 16.2002C19.9262 15.7259 20.2758 15.3532 20.7421 15.0822C21.2083 14.8112 21.7522 14.7434 22.2961 14.845C22.4127 14.9128 22.5681 15.0144 22.6069 15.15ZM24.6661 24.9752H24.4718C24.3553 24.9413 24.2776 24.9074 24.2387 24.8058C24.1999 24.738 24.161 24.6364 24.1999 24.5347C24.2776 24.2976 24.2387 24.0265 24.0833 23.7894C23.9279 23.5522 23.6948 23.3828 23.384 23.315C22.8012 23.1795 22.1407 23.5183 21.9853 23.9927C21.9465 24.1621 21.6745 24.2976 21.4802 24.2298C21.2471 24.1621 21.1306 23.9927 21.2083 23.7894C21.4025 23.1795 21.9853 22.6713 22.7235 22.5697C22.9955 22.5358 23.3063 22.5358 23.5782 22.6036C24.0833 22.7052 24.5107 23.0101 24.7438 23.3828C25.0158 23.7894 25.0546 24.2298 24.938 24.6703C24.938 24.8397 24.8215 24.9413 24.6661 24.9752Z" fill="#83BF4F"/>
<path d="M21.2936 19.1827C21.811 20.5461 20.998 22.0093 19.4459 22.4749C17.8937 22.9405 16.2307 22.2089 15.7503 20.8454C15.2329 19.482 16.046 18.0187 17.5981 17.5532C19.1133 17.0876 20.7763 17.8192 21.2936 19.1827ZM25.9131 19.4487C26.2087 20.2801 25.7283 21.1447 24.8044 21.444C23.8805 21.71 22.8827 21.2777 22.5871 20.4463C22.2914 19.615 22.7719 18.7503 23.6957 18.4511C24.5827 18.185 25.5805 18.6173 25.9131 19.4487ZM18.3002 13.4628C18.7068 14.5602 18.0416 15.7907 16.7851 16.1565C15.5286 16.5223 14.1612 15.9237 13.7547 14.8263C13.3482 13.7289 14.0134 12.4984 15.2699 12.1326C16.5264 11.7668 17.8937 12.3654 18.3002 13.4628ZM20.2958 25.102L16.7112 25.9001C16.3786 25.0355 17.0438 24.0046 18.0046 23.7718C19.1872 23.5058 19.9632 24.2707 20.2958 25.102ZM14.8264 22.7742C15.2699 23.9049 14.5677 25.1685 13.2743 25.5343C11.9809 25.9334 10.5765 25.3016 10.1331 24.1376C9.68961 23.007 10.3918 21.7433 11.6852 21.3775C12.9787 21.0117 14.383 21.6435 14.8264 22.7742Z" fill="#B21725"/>
<path d="M14 10.1752C15.939 10.209 17.878 10.5474 19.7073 11.2243C21.5366 11.8672 23.2561 12.8825 24.6463 14.2023C26.0366 15.4883 27.1341 17.0788 27.8659 18.7709C28.5976 20.463 28.9634 22.2566 29 24.0502C28.6707 22.2904 28.1585 20.5645 27.3537 18.974C26.5488 17.3834 25.4878 15.8944 24.1341 14.6761C22.8171 13.424 21.2073 12.4425 19.4878 11.7319C17.7683 10.9535 15.9024 10.4797 14 10.1752Z" fill="#E0A763"/>
<path d="M13.609 11.8134L14.3416 11.0999L15.0743 11.8134L14.3416 12.527L13.609 11.8134ZM18.3919 13.8346L19.1245 13.121L19.8571 13.8346L19.1245 14.5482L18.3919 13.8346ZM12.1711 16.503L12.9037 15.7894L13.6364 16.503L12.9037 17.2166L12.1711 16.503ZM14.702 18.5526L15.4347 17.839L16.1673 18.5526L15.4347 19.2662L14.702 18.5526ZM21.2873 18.6445L22.0199 17.9309L22.7525 18.6445L22.0199 19.3581L21.2873 18.6445ZM25.5347 23.7446L26.2674 23.031L27 23.7446L26.2674 24.4581L25.5347 23.7446ZM14.6535 23.0638L15.3862 22.3502L16.1188 23.0638L15.3862 23.7774L14.6535 23.0638ZM15.1779 25.677L15.9105 24.9634L16.6431 25.677L15.9105 26.3906L15.1779 25.677ZM9 27.9613L9.73264 27.2477L10.4653 27.9613L9.73264 28.6749L9 27.9613ZM12.564 13.2161L13.1135 12.6809L13.663 13.2161L13.1135 13.7513L12.564 13.2161ZM17.2196 17.0238L17.7691 16.4886L18.3186 17.0238L17.7691 17.559L17.2196 17.0238ZM22.2234 17.0461L22.7729 16.5109L23.3224 17.0461L22.7729 17.5813L22.2234 17.0461ZM12.3664 20.0047L12.9159 19.4695L13.4654 20.0047L12.9159 20.5399L12.3664 20.0047ZM10.1182 22.144L10.6677 21.6088L11.2172 22.1436L10.6677 22.6788L10.1182 22.144ZM9.25605 26.6076L9.80553 26.0724L10.355 26.6076L9.80553 27.1428L9.25605 26.6076ZM14.0093 26.8963L14.5588 26.3611L15.1083 26.8966L14.5588 27.4315L14.0093 26.8963ZM18.7833 24.3951L19.3328 23.8599L19.8823 24.3951L19.3328 24.9303L18.7833 24.3951ZM21.1011 25.3141L21.6506 24.7789L22.2001 25.3141L21.6506 25.8489L21.1011 25.3141ZM24.1849 23.2504L24.7344 22.7156L25.2838 23.2508L24.7344 23.786L24.1849 23.2504Z" fill="#FFAB41"/>
</svg>
