<svg width="40" height="37" viewBox="0 0 40 37" fill="none" xmlns="http://www.w3.org/2000/svg">
<ellipse cx="20" cy="18.5" rx="20" ry="18.5" fill="#F5F5F5"/>
<path d="M20.0212 10.6229C11.8268 10.7279 6.82651 14.2121 7.0046 18.9863C7.19183 24.0368 13.4136 27.0072 20.6605 27.0004C28.9144 26.9935 33.6429 22.9933 33.7479 19.2283C33.8712 14.8377 29.4555 10.5041 20.0212 10.6229Z" fill="black"/>
<path d="M20.0258 10.2274C12.3108 10.3278 7.60055 13.6682 7.76722 18.2437C7.94303 23.0842 14.1465 25.9839 20.6286 25.9268C28.1107 25.8606 32.8552 22.0864 32.9557 18.4766C33.0721 14.2664 28.9121 10.1109 20.0258 10.2274Z" fill="black"/>
<path d="M14.1808 14.155C14.1808 14.155 12.6967 14.3902 11.756 15.2624C10.8154 16.1345 10.4843 18.3698 12.062 20.3471C13.6397 22.3243 15.2128 22.0275 15.2128 22.0275C15.2128 22.0275 15.8773 22.749 16.464 23.0778C17.0508 23.4066 17.9002 23.9249 18.2061 24.2308C18.5121 24.5368 19.1925 25.1921 19.6331 25.0779C19.7953 25.0368 19.9026 24.9021 19.9482 24.8473C20.0373 24.7377 19.9368 24.6509 19.9026 24.5596C19.8546 24.4409 18.0897 23.1943 18.0897 23.1943L18.0189 22.7947C18.0189 22.7947 18.9139 23.1486 19.4071 23.4774C19.9026 23.8062 20.7405 24.3199 21.0807 24.2765C21.4323 24.2308 21.478 24.1007 21.51 24.055C21.6903 23.8062 21.3364 23.3358 21.3364 23.3358C21.3364 23.3358 21.6424 23.1486 22.2314 23.1714C22.8205 23.1943 25.5033 23.5482 26.7522 22.4408C27.4943 21.7832 27.6792 21.2581 27.7066 20.9407C27.7249 20.7238 27.75 20.6005 27.75 20.6005C27.75 20.6005 29.556 20.8151 30.2844 19.7557C31.0127 18.6963 31.1565 17.2122 30.7547 16.5295C30.3551 15.8469 29.9076 15.2578 29.9076 15.2578C29.9076 15.2578 29.8163 14.6619 29.2592 14.2897C28.6701 13.8947 27.8345 13.7052 27.8345 13.7052L14.1808 14.155Z" fill="#FFA726"/>
<path d="M23.526 21.97C23.526 21.97 24.2794 21.6869 24.7041 21.4517C25.1676 21.1937 25.5512 20.8627 25.7635 21.0522C25.9759 21.2394 25.6242 21.6755 25.1037 21.8056C24.3502 21.9929 23.526 21.97 23.526 21.97ZM13.1556 20.1069C13.1373 20.1366 13.3588 20.5225 13.7743 20.7942C14.1328 21.0271 14.5004 21.1823 14.5483 21.0659C14.5872 20.97 14.4913 20.9403 14.3063 20.7554C14.1785 20.6275 14.094 20.4563 14.094 20.4563C14.094 20.4563 13.8817 20.4563 13.6396 20.3695C13.4661 20.3066 13.3029 20.2181 13.1556 20.1069Z" fill="black"/>
<path d="M21.5989 16.5888C21.6171 16.6185 22.0236 17.1596 22.6126 17.1185C23.2017 17.0774 23.7268 16.3787 23.7268 16.3787C23.7268 16.3787 22.1583 16.1344 22.1468 16.1573C22.1354 16.1824 21.5989 16.5888 21.5989 16.5888Z" fill="#F7DF92"/>
<path d="M29.4692 16.0019C29.4692 16.0019 29.8665 15.2165 29.2706 14.6982C28.6746 14.1776 27.9874 14.1456 27.9874 14.1456L27.0695 14.6548C27.0695 14.6548 28.0193 14.6982 28.4395 14.9196C28.8596 15.1411 28.9806 15.4402 28.8596 15.5612C28.7386 15.6822 28.3002 15.4151 27.581 15.4151C26.8618 15.4151 26.5604 15.5841 26.5604 15.5841L26.6266 16.2028C26.6266 16.2028 28.2842 16.0156 28.96 16.6777C29.6336 17.3399 29.798 18.8217 28.4189 19.2418C27.0376 19.6619 25.6334 18.0362 23.9872 18.292C22.5465 18.5134 22.0076 20.2144 22.0076 20.2144C22.0076 20.2144 22.7588 19.3514 23.9529 19.0317C24.8274 18.7965 26.2636 19.6733 26.2636 19.6733L25.3799 19.7395C25.3799 19.7395 24.6584 19.2326 23.6995 19.5637C22.6378 19.929 21.7656 21.267 20.229 21.5318C19.0577 21.735 17.5097 21.4542 16.327 20.6802C15.1443 19.9062 14.2333 18.5271 14.0712 18.2372C13.9616 18.0385 13.7972 17.7371 13.9365 17.6412C14.0803 17.5408 14.2493 17.9152 14.4365 18.1595C14.6214 18.3993 16.5119 21.2601 19.6651 21.0113C22.8935 20.7578 21.7199 18.0819 21.7199 18.0819C21.7199 18.0819 22.4871 18.3194 23.22 18.1161C24.3274 17.8079 24.7817 16.8786 24.7817 16.8786L24.042 16.7576C24.042 16.7576 23.3798 17.5316 22.5054 17.4654C21.6332 17.3992 21.156 16.7462 21.156 16.7462L20.4368 17.0339L20.9345 17.5864C20.9345 17.5864 20.382 17.4198 19.8842 17.5522C19.3865 17.6846 19.1011 17.954 19.3089 18.26C19.4961 18.5363 19.9642 18.2394 20.1057 18.1938C20.3386 18.1161 20.9574 18.1504 21.1674 18.7029C21.3775 19.2555 21.2336 20.1733 19.9185 20.3172C18.6034 20.461 16.9663 19.8856 15.8064 18.8148C14.6465 17.744 14.7927 17.2714 14.0757 16.8786C13.4182 16.5202 13.0734 16.9974 13.1099 17.575C13.1487 18.2143 13.6853 19.1116 13.6853 19.1116C13.6853 19.1116 12.7789 18.4267 12.6122 17.5088C12.4455 16.591 12.6122 16.1503 13.0757 16.1275C13.5392 16.1046 13.5848 16.4037 13.7059 16.2827C13.8269 16.1617 13.2195 15.3215 12.3793 15.8192C11.5642 16.301 11.9204 17.6344 12.0186 17.9883C12.1601 18.5066 12.667 19.4769 13.3862 19.7646C13.9136 19.9747 14.1054 19.8194 14.1054 19.8194C14.1054 19.8194 15.0552 20.9131 15.9411 21.4337C16.8247 21.9542 18.3294 22.5387 19.3134 23.0365C20.2975 23.5342 20.9825 24.0639 21.2268 24.1416C21.4711 24.2192 21.7907 23.8881 21.5373 23.5456C21.2839 23.2032 20.9848 23.0479 20.7747 22.9041C20.5646 22.7602 19.8568 22.4063 19.8568 22.4063C19.8568 22.4063 20.277 22.4611 20.6309 22.4406C20.9848 22.4177 21.1172 22.3629 21.1172 22.3629C21.1172 22.3629 21.1058 22.8264 21.4939 22.9041C21.8798 22.9817 22.3045 22.7922 22.9643 22.8698C23.9803 22.9908 26.1151 23.0022 26.9234 21.7533C27.7271 20.509 26.8823 19.9587 26.8823 19.9587C26.8823 19.9587 28.9897 20.5478 29.9304 19.034C30.9008 17.4563 29.4692 16.0019 29.4692 16.0019ZM23.2429 20.445C23.9621 19.9633 24.4986 20.098 24.4986 20.098C24.4986 20.098 24.0077 20.4724 23.3479 20.8355C22.6629 21.2122 22.0967 21.3309 22.0967 21.3309C22.1743 21.2967 22.8068 20.7373 23.2429 20.445ZM25.2407 22.0159C23.9621 22.3995 22.4049 22.0227 22.4049 22.0227C22.4049 22.0227 23.6493 21.6026 24.332 21.1003C25.0169 20.598 26.0375 20.0957 26.4279 20.5843C26.7841 21.0318 25.9553 21.8013 25.2407 22.0159Z" fill="#F7DF92"/>
<path d="M24.1949 17.9174C24.1858 17.9585 24.9484 17.8558 25.7772 18.1937C26.606 18.5293 28.3549 19.4997 28.9143 18.3695C29.4258 17.3329 28.6061 16.7027 27.8252 16.6228C27.2795 16.5658 26.8663 16.5566 26.6471 16.6616C26.364 16.7964 26.3434 17.253 26.7886 17.2461C27.2339 17.2393 28.3709 17.0955 28.1609 17.906C27.985 18.5864 26.5854 17.6777 25.9735 17.5087C24.9872 17.237 24.2474 17.6822 24.1949 17.9174Z" fill="#F7DF92"/>
<path d="M27.6061 20.3374C27.6586 20.4196 27.6905 20.5406 27.6997 20.6091C27.7179 20.7301 27.7088 20.8831 27.7088 20.8899C27.7134 20.947 30.282 21.3922 31.0765 19.0839C31.5492 17.7117 30.9829 16.4787 30.6975 16.0541C30.4144 15.6271 30.0034 15.1545 29.9075 15.1864C29.8139 15.2184 29.9281 15.7824 30.129 16.134C30.3984 16.6066 31.0514 17.9286 30.4441 19.0382C29.5011 20.7712 27.6061 20.3374 27.6061 20.3374ZM14.8794 14.8873C14.8885 15.0951 15.2127 15.8782 16.2128 17.1797C16.8818 18.0496 17.7836 18.5199 18.2723 18.5724C18.8134 18.6318 18.8316 17.9971 18.3978 17.8304C17.964 17.6637 17.4937 17.4012 17.1717 17.1043C16.4959 16.4787 16.1123 15.6796 16.1123 15.6796L15.4799 14.9718L14.8794 14.8873Z" fill="#F7DF92"/>
<path d="M18.503 19.0022C17.6764 18.8424 16.6125 18.4428 15.5622 16.8218C14.5119 15.2007 14.142 14.4289 13.3041 14.2714C12.4661 14.1139 11.2469 14.5956 10.7446 16.0706C10.4112 17.0501 10.5779 19.6712 12.4547 21.2809C14.3315 22.8906 14.9594 22.5778 15.238 22.2764C15.432 22.0663 15.3955 21.7398 15.3955 21.7398C15.3955 21.7398 15.7745 22.2421 16.5805 22.7581C17.0828 23.0801 17.7952 23.4477 18.213 23.797C18.8386 24.3221 19.1308 24.7034 19.4984 24.8701C19.8341 25.0231 20.1925 24.8153 19.9574 24.4797C19.7222 24.144 19.2313 23.7079 18.7838 23.3175C18.4619 23.0367 17.9641 22.7581 17.9641 22.7581C17.9641 22.7581 17.375 22.5572 16.7152 22.2558C15.6421 21.7649 14.9252 21.0937 14.8589 21.0708C14.8019 21.0526 14.8932 21.6964 14.4228 21.6531C13.9525 21.6074 12.489 20.5229 11.8839 19.3265C11.3588 18.2876 11.183 16.824 11.5551 16.0569C12.0072 15.1208 12.7903 15.1071 13.1922 15.1664C13.7173 15.2441 14.0415 15.8925 14.4228 16.4519C14.8041 17.0113 16.2197 19.4589 18.2358 19.8402C20.4277 20.2534 20.8638 18.9566 20.551 18.8104C20.2382 18.6643 19.777 19.2488 18.503 19.0022Z" fill="#F7DF92"/>
<path d="M14.6875 12.7894C14.6875 12.7894 13.0254 13.3214 12.9934 14.1707C12.9729 14.6959 14.2994 14.9881 15.1693 15.4516C16.0369 15.9174 16.7561 16.9928 18.0188 17.3079C19.3202 17.6298 20.3339 17.1321 20.8796 16.9905C21.4253 16.849 22.2222 16.5681 22.8478 16.6595C23.4734 16.7508 24.5716 17.0818 25.4415 16.8901C26.3091 16.6983 26.8343 16.2348 27.1402 15.6526C27.3845 15.1891 27.4233 14.7073 27.4233 14.7073C27.4233 14.7073 28.3321 14.3625 28.3914 13.7666C28.4691 12.9995 27.1996 12.6022 27.1996 12.6022L14.6875 12.7894Z" fill="#BC2A16"/>
<path d="M13.8862 13.1362C13.9022 13.2435 14.5347 13.4285 15.1808 13.4125C15.827 13.3965 16.3567 13.5358 16.6649 13.8897C16.9731 14.2436 16.9594 15.2368 18.1855 15.682C19.4892 16.1569 21.14 15.2391 22.5716 15.1614C24.0032 15.0838 24.4438 15.472 25.3982 15.0108C26.3526 14.5495 26.3206 13.5792 26.5832 13.2253C26.8458 12.8714 27.2294 12.6088 27.2294 12.6088C27.2294 12.6088 26.4873 12.3417 25.9485 12.0334C25.4096 11.7252 24.7566 11.2275 24.2429 11.0014C23.7041 10.764 23.2566 10.6567 22.9986 10.563C22.8456 10.506 21.9917 9.96941 21.0829 10.0014C20.1742 10.0311 18.9824 10.4717 18.5805 10.6247C18.181 10.7777 17.0713 10.7936 16.3338 11.4718C15.5964 12.1499 15.5986 12.4079 14.9045 12.6659C14.4091 12.8508 13.8862 13.1362 13.8862 13.1362Z" fill="#DC4E20"/>
<path d="M23.0191 13.383C22.9848 13.7506 23.2679 14.1182 23.8228 14.1182C24.3959 14.1182 24.6265 13.6593 24.558 13.326C24.4758 12.9287 24.1356 12.7506 23.6972 12.7643C23.341 12.7757 23.051 13.0269 23.0191 13.383ZM22.1241 14.1297C21.8364 14.2552 21.7884 14.5817 21.8592 14.7256C21.9391 14.8854 22.1241 14.9904 22.4209 14.9425C22.6035 14.9151 22.8798 14.6594 22.7999 14.3922C22.7086 14.084 22.3935 14.0109 22.1241 14.1297ZM16.3977 12.9013C16.4503 13.3579 16.9137 13.6707 17.6147 13.3602C18.3682 13.0269 18.2563 12.4195 18.0051 12.109C17.7517 11.7985 17.2791 11.8145 16.9731 11.9492C16.6032 12.109 16.3292 12.3054 16.3977 12.9013Z" fill="#BC2A16"/>
</svg>
