<svg width="40" height="37" viewBox="0 0 40 37" fill="none" xmlns="http://www.w3.org/2000/svg">
<ellipse cx="20" cy="18.5" rx="20" ry="18.5" fill="#F5F5F5"/>
<path d="M14.1409 6.42443C14.5804 6.89295 14.8232 7.49196 14.825 8.11223C14.8268 8.7325 14.5876 9.33272 14.1509 9.80346C13.9609 9.99771 13.9809 10.2826 14.1709 10.4667L17.5259 13.5701C18.3119 14.298 18.3119 15.4848 17.5259 16.2128C17.1465 16.5621 16.6329 16.7583 16.0974 16.7583C15.562 16.7583 15.0484 16.5621 14.6689 16.2128L11.3139 13.1094C11.2194 13.0226 11.0926 12.9723 10.9594 12.9689C10.8262 12.9655 10.6966 13.0091 10.5969 13.0909C10.0881 13.4952 9.43894 13.7168 8.76809 13.7151C8.09724 13.7134 7.44943 13.4886 6.94295 13.0817C6.6579 12.8495 6.4273 12.5658 6.26537 12.2481C6.10344 11.9303 6.01361 11.5852 6.00143 11.2341C5.98925 10.883 6.05497 10.5333 6.19455 10.2066C6.33412 9.87985 6.54458 9.58305 6.81295 9.33448C7.32032 8.85732 8.01143 8.58558 8.73495 8.57876C8.87666 8.57639 9.01187 8.52333 9.11219 8.43071C9.21251 8.33809 9.27013 8.21311 9.27295 8.08203C9.28228 7.41063 9.57515 6.76924 10.0889 6.29493C10.3589 6.04809 10.6806 5.85485 11.0341 5.72705C11.3877 5.59925 11.7658 5.53958 12.1451 5.55171C12.5245 5.56383 12.8972 5.64749 13.2404 5.79756C13.5836 5.94763 13.89 6.16095 14.1409 6.42443Z" fill="#9A9397"/>
<path d="M14.1409 6.42443C14.5804 6.89295 14.8232 7.49196 14.825 8.11223C14.8268 8.7325 14.5876 9.33272 14.1509 9.80346C13.9609 9.99771 13.9809 10.2826 14.1709 10.4667L17.5259 13.5701C18.3119 14.298 18.3119 15.4848 17.5259 16.2128C17.1465 16.5621 16.6329 16.7583 16.0974 16.7583C15.562 16.7583 15.0484 16.5621 14.6689 16.2128L11.3139 13.1094C11.2194 13.0226 11.0926 12.9723 10.9594 12.9689C10.8262 12.9655 10.6966 13.0091 10.5969 13.0909C10.0881 13.4952 9.43894 13.7168 8.76809 13.7151C8.09724 13.7134 7.44943 13.4886 6.94295 13.0817C6.6579 12.8495 6.4273 12.5658 6.26537 12.2481C6.10344 11.9303 6.01361 11.5852 6.00143 11.2341C5.98925 10.883 6.05497 10.5333 6.19455 10.2066C6.33412 9.87985 6.54458 9.58305 6.81295 9.33448C7.32032 8.85732 8.01143 8.58558 8.73495 8.57876C8.87666 8.57639 9.01187 8.52333 9.11219 8.43071C9.21251 8.33809 9.27013 8.21311 9.27295 8.08203C9.28228 7.41063 9.57515 6.76924 10.0889 6.29493C10.3589 6.04809 10.6806 5.85485 11.0341 5.72705C11.3877 5.59925 11.7658 5.53958 12.1451 5.55171C12.5245 5.56383 12.8972 5.64749 13.2404 5.79756C13.5836 5.94763 13.89 6.16095 14.1409 6.42443Z" fill="url(#paint0_radial_35_36)"/>
<path d="M14.1409 6.42443C14.5804 6.89295 14.8232 7.49196 14.825 8.11223C14.8268 8.7325 14.5876 9.33272 14.1509 9.80346C13.9609 9.99771 13.9809 10.2826 14.1709 10.4667L17.5259 13.5701C18.3119 14.298 18.3119 15.4848 17.5259 16.2128C17.1465 16.5621 16.6329 16.7583 16.0974 16.7583C15.562 16.7583 15.0484 16.5621 14.6689 16.2128L11.3139 13.1094C11.2194 13.0226 11.0926 12.9723 10.9594 12.9689C10.8262 12.9655 10.6966 13.0091 10.5969 13.0909C10.0881 13.4952 9.43894 13.7168 8.76809 13.7151C8.09724 13.7134 7.44943 13.4886 6.94295 13.0817C6.6579 12.8495 6.4273 12.5658 6.26537 12.2481C6.10344 11.9303 6.01361 11.5852 6.00143 11.2341C5.98925 10.883 6.05497 10.5333 6.19455 10.2066C6.33412 9.87985 6.54458 9.58305 6.81295 9.33448C7.32032 8.85732 8.01143 8.58558 8.73495 8.57876C8.87666 8.57639 9.01187 8.52333 9.11219 8.43071C9.21251 8.33809 9.27013 8.21311 9.27295 8.08203C9.28228 7.41063 9.57515 6.76924 10.0889 6.29493C10.3589 6.04809 10.6806 5.85485 11.0341 5.72705C11.3877 5.59925 11.7658 5.53958 12.1451 5.55171C12.5245 5.56383 12.8972 5.64749 13.2404 5.79756C13.5836 5.94763 13.89 6.16095 14.1409 6.42443Z" fill="url(#paint1_radial_35_36)"/>
<path d="M12.6068 8.97715L17.5258 13.5698C18.3118 14.2978 18.3118 15.4845 17.5258 16.2125C17.1463 16.5619 16.6327 16.758 16.0973 16.758C15.5619 16.758 15.0483 16.5619 14.6688 16.2125L9.74883 11.6208C8.99883 10.9613 8.95183 9.61263 9.74983 8.97715C10.5038 8.37683 12.0698 8.45453 12.6068 8.97715Z" fill="url(#paint2_linear_35_36)"/>
<path d="M12.6068 8.97715L17.5258 13.5698C18.3118 14.2978 18.3118 15.4845 17.5258 16.2125C17.1463 16.5619 16.6327 16.758 16.0973 16.758C15.5619 16.758 15.0483 16.5619 14.6688 16.2125L9.74883 11.6208C8.99883 10.9613 8.95183 9.61263 9.74983 8.97715C10.5038 8.37683 12.0698 8.45453 12.6068 8.97715Z" fill="url(#paint3_radial_35_36)"/>
<path d="M22.5801 9.61896C21.2694 8.9545 19.7615 8.70021 18.2817 8.89412C16.8019 9.08802 15.4296 9.7197 14.3701 10.6947L11.5691 13.294C10.5107 14.2717 9.82481 15.5413 9.61502 16.9113C9.40522 18.2812 9.68288 19.6771 10.4061 20.8882C12.2779 24.0319 15.0756 26.6197 18.4741 28.3511C19.7846 29.0157 21.2925 29.2702 22.7723 29.0764C24.2521 28.8827 25.6244 28.2512 26.6841 27.2763L29.4941 24.6761C30.5525 23.6984 31.2383 22.4288 31.4481 21.0588C31.6579 19.6889 31.3803 18.293 30.6571 17.0819C28.7844 13.9362 25.9831 11.3473 22.5801 9.61896Z" fill="url(#paint4_linear_35_36)"/>
<g filter="url(#filter0_f_35_36)">
<path d="M18.6248 28.1554C20.4288 29.4319 24.2648 29.172 26.4058 27.2008L29.1738 24.6414C31.3138 22.6619 31.9158 18.7574 30.2498 17.2867C27.6488 14.9899 24.4538 15.1703 20.2178 18.5863C15.8908 22.0754 16.1048 26.3711 18.6248 28.1554Z" fill="url(#paint5_linear_35_36)"/>
<path d="M18.6248 28.1554C20.4288 29.4319 24.2648 29.172 26.4058 27.2008L29.1738 24.6414C31.3138 22.6619 31.9158 18.7574 30.2498 17.2867C27.6488 14.9899 24.4538 15.1703 20.2178 18.5863C15.8908 22.0754 16.1048 26.3711 18.6248 28.1554Z" fill="url(#paint6_radial_35_36)"/>
</g>
<path d="M26.0679 17.4014C25.0819 17.4014 24.1659 17.751 23.4689 18.3957L19.8849 21.7109C19.5422 22.0254 19.2706 22.3999 19.0861 22.8125C18.9015 23.2251 18.8076 23.6676 18.8099 24.1141C18.8077 24.5607 18.9016 25.0033 19.0862 25.416C19.2707 25.8288 19.5422 26.2034 19.8849 26.5182C20.225 26.8353 20.63 27.0865 21.0762 27.2572C21.5224 27.4279 22.001 27.5147 22.4839 27.5125C23.4689 27.5125 24.3849 27.1629 25.0819 26.5182L28.6659 23.203C29.0086 22.8884 29.2803 22.5137 29.4648 22.101C29.6494 21.6882 29.7432 21.2456 29.7409 20.7989C29.7409 19.8878 29.3629 19.0405 28.6659 18.3957C27.9753 17.7606 27.0417 17.4032 26.0679 17.4014Z" fill="url(#paint7_linear_35_36)"/>
<path d="M26.0679 17.4014C25.0819 17.4014 24.1659 17.751 23.4689 18.3957L19.8849 21.7109C19.5422 22.0254 19.2706 22.3999 19.0861 22.8125C18.9015 23.2251 18.8076 23.6676 18.8099 24.1141C18.8077 24.5607 18.9016 25.0033 19.0862 25.416C19.2707 25.8288 19.5422 26.2034 19.8849 26.5182C20.225 26.8353 20.63 27.0865 21.0762 27.2572C21.5224 27.4279 22.001 27.5147 22.4839 27.5125C23.4689 27.5125 24.3849 27.1629 25.0819 26.5182L28.6659 23.203C29.0086 22.8884 29.2803 22.5137 29.4648 22.101C29.6494 21.6882 29.7432 21.2456 29.7409 20.7989C29.7409 19.8878 29.3629 19.0405 28.6659 18.3957C27.9753 17.7606 27.0417 17.4032 26.0679 17.4014Z" fill="url(#paint8_radial_35_36)"/>
<path d="M33.0319 23.826C31.9649 22.9695 30.3649 23.0065 29.2989 23.863C29.2122 23.9346 29.0991 23.9726 28.9829 23.9691C28.8668 23.9657 28.7565 23.9211 28.6749 23.8445L25.7559 21.1824C23.9209 19.4656 21.1689 22.1277 22.8989 23.826L25.7759 26.5261C25.8584 26.6016 25.9064 26.7034 25.9101 26.8106C25.9138 26.9178 25.873 27.0222 25.7959 27.1024C24.8699 28.0894 24.8299 29.5703 25.7559 30.5563C26.0086 30.8257 26.3186 31.044 26.6665 31.1975C27.0145 31.3511 27.3929 31.4367 27.7782 31.4489C28.1635 31.4611 28.5474 31.3998 28.9059 31.2687C29.2644 31.1375 29.5899 30.9394 29.8619 30.6868C30.3831 30.2088 30.6796 29.56 30.6869 28.8812C30.6869 28.6111 30.9289 28.3872 31.2309 28.378C31.9644 28.3694 32.6651 28.0955 33.1829 27.6148C34.3199 26.5724 34.2699 24.8306 33.0329 23.826H33.0319Z" fill="#D7D4D3"/>
<path d="M33.0319 23.826C31.9649 22.9695 30.3649 23.0065 29.2989 23.863C29.2122 23.9346 29.0991 23.9726 28.9829 23.9691C28.8668 23.9657 28.7565 23.9211 28.6749 23.8445L25.7559 21.1824C23.9209 19.4656 21.1689 22.1277 22.8989 23.826L25.7759 26.5261C25.8584 26.6016 25.9064 26.7034 25.9101 26.8106C25.9138 26.9178 25.873 27.0222 25.7959 27.1024C24.8699 28.0894 24.8299 29.5703 25.7559 30.5563C26.0086 30.8257 26.3186 31.044 26.6665 31.1975C27.0145 31.3511 27.3929 31.4367 27.7782 31.4489C28.1635 31.4611 28.5474 31.3998 28.9059 31.2687C29.2644 31.1375 29.5899 30.9394 29.8619 30.6868C30.3831 30.2088 30.6796 29.56 30.6869 28.8812C30.6869 28.6111 30.9289 28.3872 31.2309 28.378C31.9644 28.3694 32.6651 28.0955 33.1829 27.6148C34.3199 26.5724 34.2699 24.8306 33.0329 23.826H33.0319Z" fill="url(#paint9_radial_35_36)"/>
<g filter="url(#filter1_f_35_36)">
<path d="M29.1131 24.9545L25.4947 21.6774C24.9154 21.1527 23.9861 21.1617 23.4191 21.6974C22.8521 22.233 22.8621 23.0926 23.4414 23.6173L27.0598 26.8943C27.6391 27.419 28.5684 27.4101 29.1354 26.8744C29.7024 26.3387 29.6924 25.4791 29.1131 24.9545Z" fill="#B7B2AF"/>
</g>
<path fill-rule="evenodd" clip-rule="evenodd" d="M31.2 28.3558C31.7544 28.3558 32.2963 28.2035 32.7571 27.9184C33.2178 27.6332 33.5767 27.2279 33.7882 26.7539C33.9997 26.2799 34.0544 25.7585 33.9452 25.2557C33.836 24.753 33.5679 24.2915 33.1749 23.9298C32.782 23.5681 32.2817 23.3224 31.7377 23.224C31.1936 23.1255 30.6302 23.1787 30.1188 23.3767C29.6074 23.5747 29.1711 23.9087 28.8651 24.3363C28.5591 24.7639 28.3973 25.2659 28.4 25.7787C28.3965 25.9077 28.3398 26.0306 28.2414 26.1221C28.143 26.2136 28.0105 26.2669 27.871 26.2708C27.3173 26.2708 26.7759 26.4227 26.3154 26.7073C25.855 26.9919 25.4961 27.3964 25.2842 27.8697C25.0723 28.3429 25.0168 28.8637 25.1248 29.3661C25.2329 29.8685 25.4996 30.33 25.8911 30.6922C26.2827 31.0545 26.7816 31.3011 27.3248 31.4011C27.8679 31.501 28.4309 31.4497 28.9426 31.2537C29.4542 31.0576 29.8915 30.7257 30.1992 30.2998C30.5068 29.8738 30.671 29.3731 30.671 28.8608V28.8479C30.6746 28.7189 30.7313 28.596 30.8297 28.5045C30.9281 28.413 31.0606 28.3598 31.2 28.3558Z" fill="#B8B3B6"/>
<path fill-rule="evenodd" clip-rule="evenodd" d="M31.2 28.3558C31.7544 28.3558 32.2963 28.2035 32.7571 27.9184C33.2178 27.6332 33.5767 27.2279 33.7882 26.7539C33.9997 26.2799 34.0544 25.7585 33.9452 25.2557C33.836 24.753 33.5679 24.2915 33.1749 23.9298C32.782 23.5681 32.2817 23.3224 31.7377 23.224C31.1936 23.1255 30.6302 23.1787 30.1188 23.3767C29.6074 23.5747 29.1711 23.9087 28.8651 24.3363C28.5591 24.7639 28.3973 25.2659 28.4 25.7787C28.3965 25.9077 28.3398 26.0306 28.2414 26.1221C28.143 26.2136 28.0105 26.2669 27.871 26.2708C27.3173 26.2708 26.7759 26.4227 26.3154 26.7073C25.855 26.9919 25.4961 27.3964 25.2842 27.8697C25.0723 28.3429 25.0168 28.8637 25.1248 29.3661C25.2329 29.8685 25.4996 30.33 25.8911 30.6922C26.2827 31.0545 26.7816 31.3011 27.3248 31.4011C27.8679 31.501 28.4309 31.4497 28.9426 31.2537C29.4542 31.0576 29.8915 30.7257 30.1992 30.2998C30.5068 29.8738 30.671 29.3731 30.671 28.8608V28.8479C30.6746 28.7189 30.7313 28.596 30.8297 28.5045C30.9281 28.413 31.0606 28.3598 31.2 28.3558Z" fill="url(#paint10_radial_35_36)"/>
<path fill-rule="evenodd" clip-rule="evenodd" d="M31.2 28.3558C31.7544 28.3558 32.2963 28.2035 32.7571 27.9184C33.2178 27.6332 33.5767 27.2279 33.7882 26.7539C33.9997 26.2799 34.0544 25.7585 33.9452 25.2557C33.836 24.753 33.5679 24.2915 33.1749 23.9298C32.782 23.5681 32.2817 23.3224 31.7377 23.224C31.1936 23.1255 30.6302 23.1787 30.1188 23.3767C29.6074 23.5747 29.1711 23.9087 28.8651 24.3363C28.5591 24.7639 28.3973 25.2659 28.4 25.7787C28.3965 25.9077 28.3398 26.0306 28.2414 26.1221C28.143 26.2136 28.0105 26.2669 27.871 26.2708C27.3173 26.2708 26.7759 26.4227 26.3154 26.7073C25.855 26.9919 25.4961 27.3964 25.2842 27.8697C25.0723 28.3429 25.0168 28.8637 25.1248 29.3661C25.2329 29.8685 25.4996 30.33 25.8911 30.6922C26.2827 31.0545 26.7816 31.3011 27.3248 31.4011C27.8679 31.501 28.4309 31.4497 28.9426 31.2537C29.4542 31.0576 29.8915 30.7257 30.1992 30.2998C30.5068 29.8738 30.671 29.3731 30.671 28.8608V28.8479C30.6746 28.7189 30.7313 28.596 30.8297 28.5045C30.9281 28.413 31.0606 28.3598 31.2 28.3558Z" fill="url(#paint11_radial_35_36)"/>
<g filter="url(#filter2_f_35_36)">
<path d="M30.797 18.688C30.766 18.3605 30.425 17.1987 29.375 16.505C28.062 15.6382 24.594 15.1757 21.687 17.7491" stroke="url(#paint12_radial_35_36)" stroke-width="0.5"/>
</g>
<g filter="url(#filter3_f_35_36)">
<path d="M18.719 28.0102C16.813 26.9122 15.75 24.079 19.125 19.5696" stroke="url(#paint13_radial_35_36)" stroke-width="0.5" stroke-linecap="round"/>
</g>
<g filter="url(#filter4_f_35_36)">
<path d="M10.5309 12.3718C9.31293 11.5624 8.71193 10.3599 9.68693 9.1343C10.2499 8.56542 11.6659 7.8948 13.2659 9.69855" stroke="url(#paint14_linear_35_36)" stroke-width="0.5" stroke-linecap="round"/>
</g>
<defs>
<filter id="filter0_f_35_36" x="16.0774" y="15.0081" width="15.8801" height="14.6807" filterUnits="userSpaceOnUse" color-interpolation-filters="sRGB">
<feFlood flood-opacity="0" result="BackgroundImageFix"/>
<feBlend mode="normal" in="SourceGraphic" in2="BackgroundImageFix" result="shape"/>
<feGaussianBlur stdDeviation="0.375" result="effect1_foregroundBlur_35_36"/>
</filter>
<filter id="filter1_f_35_36" x="21.5002" y="19.7897" width="9.55396" height="8.99243" filterUnits="userSpaceOnUse" color-interpolation-filters="sRGB">
<feFlood flood-opacity="0" result="BackgroundImageFix"/>
<feBlend mode="normal" in="SourceGraphic" in2="BackgroundImageFix" result="shape"/>
<feGaussianBlur stdDeviation="0.75" result="effect1_foregroundBlur_35_36"/>
</filter>
<filter id="filter2_f_35_36" x="21.0212" y="15.0698" width="10.5247" height="4.14172" filterUnits="userSpaceOnUse" color-interpolation-filters="sRGB">
<feFlood flood-opacity="0" result="BackgroundImageFix"/>
<feBlend mode="normal" in="SourceGraphic" in2="BackgroundImageFix" result="shape"/>
<feGaussianBlur stdDeviation="0.25" result="effect1_foregroundBlur_35_36"/>
</filter>
<filter id="filter3_f_35_36" x="16.1841" y="18.8196" width="3.69092" height="9.94067" filterUnits="userSpaceOnUse" color-interpolation-filters="sRGB">
<feFlood flood-opacity="0" result="BackgroundImageFix"/>
<feBlend mode="normal" in="SourceGraphic" in2="BackgroundImageFix" result="shape"/>
<feGaussianBlur stdDeviation="0.25" result="effect1_foregroundBlur_35_36"/>
</filter>
<filter id="filter4_f_35_36" x="8.45117" y="7.77625" width="5.5647" height="5.34558" filterUnits="userSpaceOnUse" color-interpolation-filters="sRGB">
<feFlood flood-opacity="0" result="BackgroundImageFix"/>
<feBlend mode="normal" in="SourceGraphic" in2="BackgroundImageFix" result="shape"/>
<feGaussianBlur stdDeviation="0.25" result="effect1_foregroundBlur_35_36"/>
</filter>
<radialGradient id="paint0_radial_35_36" cx="0" cy="0" r="1" gradientUnits="userSpaceOnUse" gradientTransform="translate(8.12495 10.5222) rotate(73.8647) scale(4.27301 4.56744)">
<stop stop-color="#CAC8C5"/>
<stop offset="0.92" stop-color="#B1AEAA" stop-opacity="0"/>
</radialGradient>
<radialGradient id="paint1_radial_35_36" cx="0" cy="0" r="1" gradientUnits="userSpaceOnUse" gradientTransform="translate(12.8749 7.28468) rotate(100.535) scale(4.46908 4.80756)">
<stop offset="0.152" stop-color="#F2F0EE"/>
<stop offset="0.853" stop-color="#F5F3F1" stop-opacity="0"/>
</radialGradient>
<linearGradient id="paint2_linear_35_36" x1="10.8128" y1="12.6568" x2="13.8384" y2="8.95833" gradientUnits="userSpaceOnUse">
<stop offset="0.42" stop-color="#9D9997"/>
<stop offset="1" stop-color="#D0CECC"/>
</linearGradient>
<radialGradient id="paint3_radial_35_36" cx="0" cy="0" r="1" gradientUnits="userSpaceOnUse" gradientTransform="translate(12.0628 8.55628) rotate(42.7732) scale(4.34236 3.17544)">
<stop stop-color="#CCCAC7"/>
<stop offset="1" stop-color="#CECBC8" stop-opacity="0"/>
</radialGradient>
<linearGradient id="paint4_linear_35_36" x1="14.4351" y1="24.801" x2="27.6625" y2="12.0268" gradientUnits="userSpaceOnUse">
<stop stop-color="#4F3B2E"/>
<stop offset="0.613" stop-color="#67432F"/>
<stop offset="1" stop-color="#915B42"/>
</linearGradient>
<linearGradient id="paint5_linear_35_36" x1="18.1328" y1="27.7096" x2="29.8694" y2="16.9051" gradientUnits="userSpaceOnUse">
<stop stop-color="#5E3A40"/>
<stop offset="1" stop-color="#995C4B"/>
</linearGradient>
<radialGradient id="paint6_radial_35_36" cx="0" cy="0" r="1" gradientUnits="userSpaceOnUse" gradientTransform="translate(20.5628 28.9389) rotate(12.2111) scale(4.22049 3.96951)">
<stop stop-color="#5D3743"/>
<stop offset="1" stop-color="#5F3843" stop-opacity="0"/>
</radialGradient>
<linearGradient id="paint7_linear_35_36" x1="21.6799" y1="19.7666" x2="27.4552" y2="25.5104" gradientUnits="userSpaceOnUse">
<stop stop-color="#D8303C"/>
<stop offset="1" stop-color="#CD2E7C"/>
</linearGradient>
<radialGradient id="paint8_radial_35_36" cx="0" cy="0" r="1" gradientUnits="userSpaceOnUse" gradientTransform="translate(22.7499 24.3971) rotate(132.286) scale(4.92323 2.35957)">
<stop stop-color="#AB1F4F"/>
<stop offset="1" stop-color="#AB1F4F" stop-opacity="0"/>
</radialGradient>
<radialGradient id="paint9_radial_35_36" cx="0" cy="0" r="1" gradientUnits="userSpaceOnUse" gradientTransform="translate(28.1753 26.3619) rotate(134.67) scale(3.98333 2.06682)">
<stop stop-color="#A8A1A0"/>
<stop offset="1" stop-opacity="0"/>
</radialGradient>
<radialGradient id="paint10_radial_35_36" cx="0" cy="0" r="1" gradientUnits="userSpaceOnUse" gradientTransform="translate(32.875 24.8019) rotate(123.254) scale(4.21713 4.3533)">
<stop offset="0.133" stop-color="#F8F6F4"/>
<stop offset="1" stop-color="#F8F6F4" stop-opacity="0"/>
</radialGradient>
<radialGradient id="paint11_radial_35_36" cx="0" cy="0" r="1" gradientUnits="userSpaceOnUse" gradientTransform="translate(29 28.0968) rotate(135.836) scale(3.48508 3.48146)">
<stop offset="0.227" stop-color="#E1DFDD"/>
<stop offset="1" stop-color="#E1DEDD" stop-opacity="0"/>
</radialGradient>
<radialGradient id="paint12_radial_35_36" cx="0" cy="0" r="1" gradientUnits="userSpaceOnUse" gradientTransform="translate(27.25 16.4772) rotate(140.161) scale(4.1512 12.7376)">
<stop stop-color="#AA7461"/>
<stop offset="1" stop-color="#AA7461" stop-opacity="0"/>
</radialGradient>
<radialGradient id="paint13_radial_35_36" cx="0" cy="0" r="1" gradientUnits="userSpaceOnUse" gradientTransform="translate(16.576 24.4258) rotate(73.8258) scale(5.11658 2.93247)">
<stop stop-color="#74574D"/>
<stop offset="1" stop-color="#684D44" stop-opacity="0"/>
</radialGradient>
<linearGradient id="paint14_linear_35_36" x1="9.03093" y1="11.2442" x2="12.2728" y2="11.0875" gradientUnits="userSpaceOnUse">
<stop stop-color="#9F999C"/>
<stop offset="0.442" stop-color="#B4B1AD"/>
<stop offset="1" stop-color="#DEDCD9"/>
</linearGradient>
</defs>
</svg>
