<svg width="40" height="37" viewBox="0 0 40 37" fill="none" xmlns="http://www.w3.org/2000/svg">
<ellipse cx="20" cy="18.5" rx="20" ry="18.5" fill="#1F272D"/>
<path d="M19.5438 14.6339C19.5438 14.6339 7.61581 15.7552 7.6647 16.8387C7.70341 17.7056 7.44061 20.6717 10.1257 23.7056C11.8858 25.6937 14.9702 27.6101 20.0123 27.6101C24.9709 27.6101 27.6947 25.492 29.3917 23.2006C31.5715 20.2533 31.4636 17.4888 31.4636 16.8029C31.4615 15.4292 22.1616 14.0931 19.5438 14.6339Z" fill="#D5D5D5"/>
<path d="M20.1608 12.1615C20.1608 12.1615 19.3561 11.6734 18.6206 11.7356C17.8852 11.7996 17.5409 12.2029 17.5409 12.2029L15.2368 17.5057L17.6876 20.0346L19.2868 21.0598L22.3814 20.9882L23.7483 12.186L20.1608 12.1615Z" fill="#307D31"/>
<path d="M20.3159 13.456C20.3159 13.456 19.7556 12.5836 19.6884 11.8373C19.6212 11.0911 20.2527 10.6614 20.5888 10.6614C21.4119 10.6614 21.5056 11.1325 21.9986 11.0911C22.4916 11.0496 22.6505 10.6464 22.7829 10.032C22.9174 9.4064 23.498 9.05401 24.0256 9.36494C24.5329 9.66456 24.3536 10.5502 24.3536 10.5502C24.3536 10.5502 24.757 10.0942 25.2072 10.4259C25.6065 10.7217 25.4761 11.63 25.4761 11.63C25.4761 11.63 26.3522 10.6953 27.0917 11.1533C27.8312 11.6112 27.2709 13.1866 27.2709 13.1866L27.0244 14.598L22.8074 13.1037C22.8074 13.1037 22.5609 12.5647 21.6625 12.6269C20.7661 12.6891 20.3159 13.456 20.3159 13.456ZM15.8075 17.1929C15.8075 17.1929 16.5612 15.7777 18.2012 16.2507C19.9206 16.7463 19.6089 18.2783 19.6089 18.2783C19.6089 18.2783 20.049 17.9806 20.5644 17.9391C21.0798 17.8977 21.7093 17.9806 21.7093 17.9806L21.6278 17.159C21.6278 17.159 20.5338 17.2928 19.8697 16.5691C18.9774 15.5949 19.5784 14.4736 19.5784 14.4736L19.7352 13.7689L18.1645 12.8342L17.0868 11.5471C17.0868 11.5471 16.7283 10.8216 15.7627 10.7801C14.797 10.7387 14.3427 11.3681 14.3427 11.3681C14.3427 11.3681 12.2749 10.816 11.2196 11.6451C10.5066 12.2067 10.692 13.1263 10.692 13.1263C10.692 13.1263 10.1908 13.4014 9.32502 12.7287C8.93998 12.429 8.18621 12.657 8.07416 13.2186C7.96211 13.7783 8.20251 14.4774 8.20251 14.4774L7.50781 14.8713L9.86285 17.1118L15.8075 17.1929Z" fill="#58A12F"/>
<path d="M21.0346 16.6933C21.0346 16.6933 20.0792 16.7442 19.3519 15.1783C18.9159 14.2398 19.2215 12.4194 20.2503 12.6041C21.057 12.7492 20.945 14.0156 21.5073 14.1192C21.7864 14.1701 22.4057 12.8114 23.7278 12.7285C24.8035 12.6607 26.2173 13.9741 26.2173 13.9741C26.2173 13.9741 26.8448 13.5595 26.912 13.4144C26.9793 13.2693 27.0913 12.7096 27.788 12.7511C28.5601 12.7963 28.4603 13.5821 28.4603 13.5821C28.4603 13.5821 29.3811 13.2505 30.0534 13.5614C30.7766 13.8968 30.7257 14.5375 30.7257 14.5375C30.7257 14.5375 31.3756 13.895 31.893 14.2266C32.4105 14.5583 30.9518 17.2059 29.5604 18.5344C28.169 19.863 26.3681 19.7744 26.3681 19.7744L21.0346 16.6933Z" fill="#86C82C"/>
<path d="M12.2196 12.4307L12.0505 12.1273C12.0505 12.1273 12.566 11.5111 13.715 11.6807C14.976 11.8672 15.1023 12.6794 15.1023 12.6794C15.1023 12.6794 14.4524 12.9074 14.4321 12.8792C14.4117 12.8509 13.8026 12.2592 13.8026 12.2592L12.5965 12.2969L12.2196 12.4307Z" fill="#D2608C"/>
<path d="M12.3401 12.6608C12.3401 12.6608 12.9268 12.4046 13.5034 12.5195C14.0799 12.6345 14.2144 13.0622 14.2144 13.0622L14.7501 12.8625C14.7501 12.8625 14.412 12.1916 13.6154 12.0616C12.7414 11.9184 12.2036 12.4064 12.2036 12.4064L12.3401 12.6608Z" fill="white"/>
<path d="M12.1504 13.441C12.1504 13.441 14.0246 12.9492 14.7417 12.6213C15.8907 12.0955 16.889 11.6225 17.1803 11.4416C17.3351 11.3455 17.4431 11.2362 17.6509 11.2758C17.8587 11.3153 19.7268 14.7526 16.6812 16.0038C15.4487 16.5107 14.1245 16.6822 14.1245 16.6822L12.2217 15.1954L12.1504 13.441Z" fill="#FE2A19"/>
<path d="M12.8 13.9403C12.7552 14.0628 13.7575 15.8285 15.862 15.1068C17.8422 14.4284 17.1923 12.2613 17.068 12.184C16.9865 12.135 16.0474 12.6155 15.0328 13.0339C13.9735 13.4692 12.8367 13.8423 12.8 13.9403Z" fill="#CB1C35"/>
<path d="M14.3038 14.2852C14.6501 14.4114 15.1085 14.2795 15.5709 14.0948C15.9967 13.9252 16.5223 13.6614 16.5366 13.3769C16.5508 13.0942 15.8032 12.7776 15.6076 12.7833C15.4141 12.7908 14.5421 13.1451 14.426 13.3166C14.3099 13.4899 14.0512 14.1928 14.3038 14.2852Z" fill="#FF5F5D"/>
<path d="M14.0695 14.2774C13.8739 14.2303 13.6946 14.4093 13.6457 14.6185C13.5826 14.8917 13.8678 14.9502 13.9982 14.8503C14.1998 14.6958 14.2549 14.3208 14.0695 14.2774ZM15.1207 14.4244C14.9271 14.4301 14.8538 14.7165 14.921 14.9219C15.0066 15.1914 15.2979 15.1198 15.3488 14.9709C15.4426 14.7071 15.3122 14.4187 15.1207 14.4244ZM16.1658 13.9476C16.0252 14.0626 16.1617 14.3189 16.3491 14.4338C16.5936 14.5846 16.7627 14.366 16.7016 14.2247C16.5936 13.974 16.3043 13.8346 16.1658 13.9476ZM16.5406 13.126C16.5508 13.2937 16.8381 13.3616 17.0397 13.3069C17.3046 13.2353 17.2251 12.9809 17.0764 12.9338C16.8116 12.849 16.5304 12.9602 16.5406 13.126Z" fill="#F7CA76"/>
<path d="M16.2615 17.5544C16.4469 17.0908 17.4186 16.3484 18.4454 17.0324C19.4457 17.6995 18.9873 18.7963 18.5595 19.1562C18.095 19.5481 17.1701 19.6631 16.6506 19.1317C16.1311 18.6003 16.013 18.1744 16.2615 17.5544Z" fill="#E9FCAE"/>
<path d="M10.264 18.1937C10.3169 18.1334 10.4493 17.9788 10.3679 17.7075C10.2314 17.2533 9.88504 16.6937 9.22294 15.9719C8.06783 14.7131 7.49537 14.3852 7.12867 14.7433C6.73956 15.1239 7.28961 16.0134 8.02097 16.8293C8.75234 17.6453 9.93189 18.5743 10.264 18.1937Z" fill="#307D31"/>
<path d="M9.87471 17.4211C9.76266 17.5059 9.15353 17.114 8.52403 16.4262C7.89453 15.7383 7.43208 15.1598 7.63173 15.0185C7.88434 14.8395 8.79906 15.727 9.03945 16.0342C9.27984 16.3414 10.1253 17.2308 9.87471 17.4211Z" fill="#E9FCAE"/>
<path d="M23.1028 13.8308L23.4471 13.5237C23.4471 13.5237 24.5614 14.8937 25.4374 14.285C26.4907 13.5538 25.4497 12.3685 25.4497 12.3685L25.908 12.1575L26.5151 13.0262L26.56 14.2548L25.5189 15.0915C25.5189 15.0915 24.374 15.0915 24.2823 14.9653C24.1907 14.8371 23.1028 13.8308 23.1028 13.8308Z" fill="white"/>
<path d="M22.748 14.1174L23.2023 13.7443C23.2023 13.7443 24.4878 15.4308 25.7713 14.5546C27.0018 13.7122 25.8711 12.1764 25.8711 12.1764L26.3254 11.9296C26.3254 11.9296 27.2259 12.8699 26.8694 14.1004C26.5821 15.0879 25.5166 15.5496 24.6467 15.38C23.2818 15.1124 22.748 14.1174 22.748 14.1174Z" fill="#D2608C"/>
<path d="M24.647 16.2865C24.647 16.2865 24.6836 15.5026 25.8693 14.6282C27.055 13.7538 28.0512 13.9932 28.3832 14.2551C28.7174 14.5189 29.1146 15.4875 28.2121 16.539C27.7802 17.0403 27.4461 17.1119 26.9755 17.0723C26.4255 17.0252 25.47 16.5843 25.47 16.5843L24.647 16.2865Z" fill="#2C7B2E"/>
<path d="M27.9329 14.6036C27.4378 14.3002 26.4172 14.7807 25.8916 15.2349C25.3313 15.7211 25.1765 16.2713 25.1765 16.2713L26.4009 16.6708C26.4009 16.6708 27.0895 16.6557 27.5499 16.1696C28.2364 15.4459 28.3037 14.8316 27.9329 14.6036Z" fill="#E0FEAC"/>
<path d="M21.2872 15.0144C21.1161 15.0935 20.4764 15.787 20.6658 17.1664C20.8634 18.5929 21.9656 19.5313 23.7909 19.6538C26.1276 19.8084 27.4416 18.2254 27.6209 17.939C27.8002 17.6526 28.1587 17.0232 27.9082 16.814C27.6576 16.6048 26.095 16.5163 24.2941 15.998C22.2712 15.4139 21.6681 14.8372 21.2872 15.0144Z" fill="#FE2A19"/>
<path d="M22.0962 15.8173C21.8415 15.9342 21.5909 18.0278 23.5895 18.6402C25.3109 19.1679 26.5903 17.4153 26.4599 17.1817C26.3295 16.948 25.5533 17.0271 24.2719 16.6069C22.9885 16.1848 22.2958 15.7269 22.0962 15.8173Z" fill="#CB1C35"/>
<path d="M22.968 16.9294C23.027 17.2064 23.3061 17.5437 23.9397 17.7943C24.4429 17.9941 24.9828 17.9055 25.2109 17.817C25.4391 17.7284 25.3515 16.8879 25.2476 16.8634C24.9237 16.7862 23.9418 16.4752 23.6423 16.3641C23.4487 16.2924 22.9048 16.6316 22.968 16.9294Z" fill="#FE6261"/>
<path d="M22.8539 16.9498C22.8437 16.7765 22.5401 16.718 22.3283 16.7821C22.0492 16.865 22.1306 17.1232 22.2875 17.1665C22.5666 17.2457 22.864 17.1213 22.8539 16.9498ZM23.4671 17.6734C23.3204 17.566 23.0718 17.7375 22.9842 17.9278C22.8681 18.1766 23.1309 18.2915 23.2695 18.2105C23.518 18.0673 23.6117 17.779 23.4671 17.6734Z" fill="#F7CA76"/>
<path d="M20.5603 20.7655C20.5603 20.7655 20.6153 20.4244 20.3464 19.9307C20.2302 19.7178 19.7719 19.2938 20.1161 18.9282C20.4604 18.5645 21.6257 18.7925 22.0026 18.8679C22.3795 18.9432 22.9866 18.9282 23.2168 18.7152C23.447 18.5023 23.61 17.6223 24.4473 17.4093C25.3111 17.1907 25.7185 17.8955 26.071 18.1838C26.3501 18.4118 26.7595 18.5023 27.334 18.3195C27.9085 18.1367 27.7435 18.8358 27.7435 18.8358L27.0712 20.2171L20.5603 20.7655ZM10.1765 18.8245C10.1765 18.8245 9.56943 17.7466 9.17625 16.0921C8.78306 14.4376 8.81362 13.8948 9.22514 13.7705C9.93002 13.5575 10.4067 14.3471 10.6532 14.3019C10.8997 14.2567 10.9486 13.2994 11.6698 13.1486C12.391 12.996 12.6701 13.6046 13.0307 14.1511C13.3913 14.6976 14.0636 16.1543 14.0636 16.1543C14.0636 16.1543 14.7032 15.881 15.2614 16.1543C15.8196 16.4275 16.3615 17.2473 16.5897 17.8239C16.8199 18.4005 17.044 18.9074 17.044 18.9074C17.044 18.9074 17.8324 19.045 18.5577 19.4483C19.3787 19.9043 19.7719 20.7994 19.7719 20.7994L15.7382 21.0387C15.7382 21.0387 10.8488 19.4144 10.7999 19.339C10.749 19.2636 10.1256 18.7623 10.1765 18.8245Z" fill="#86C82C"/>
<path d="M10.8161 19.4168C10.8161 19.4168 10.5696 18.8703 10.651 18.1731C10.7325 17.4759 11.085 17.0311 11.6758 17.0311C12.1362 17.0311 12.9307 17.3081 13.7028 18.3088C14.4749 19.3094 14.5727 20.2215 14.5727 20.2215L11.307 19.8276L10.8161 19.4168Z" fill="#2D792A"/>
<path d="M11.028 19.2187C11.028 19.2187 10.7082 18.0146 11.1095 17.7319C11.3886 17.534 11.8144 17.5962 12.5865 18.3839C13.4666 19.2847 13.6519 20.0686 13.6519 20.0686L11.028 19.2187Z" fill="#E7FCAE"/>
<path d="M14.9883 20.3644L15.3652 20.3945C15.3652 20.3945 15.5791 19.4692 16.4143 19.0886C17.219 18.7249 18.0706 19.0283 18.0706 19.0283L18.201 18.5873L17.3148 18.2538L16.1169 18.4818C16.1169 18.4818 15.0331 19.392 15.0331 19.4372C15.0331 19.4824 14.9883 20.3191 14.9883 20.3644Z" fill="white"/>
<path d="M14.3345 20.4982C14.3345 20.4529 14.4343 19.1791 15.5976 18.4649C17.0745 17.5585 18.2969 18.3292 18.2969 18.3292L18.1441 18.7645C18.1441 18.7645 16.8729 18.25 15.893 19.0264C15.0882 19.6634 14.909 20.6207 14.909 20.6207L14.3345 20.4982Z" fill="#D2608C"/>
<path d="M20.2729 26.8749C27.3563 26.8542 29.7602 21.5608 30.3327 19.601C30.7075 18.3177 30.842 17.1513 30.842 17.1513L28.3566 19.7405C28.3566 19.7405 20.5621 21.1236 20.3014 21.1236C20.0406 21.1236 15.7339 20.8033 15.7339 20.8033L11.3091 19.8253L8.27563 17.1079C8.27563 17.1079 8.33268 18.7982 8.82365 20.0815C9.20257 21.0709 11.3967 26.9013 20.2729 26.8749Z" fill="#F6F6F6"/>
<path d="M19.5782 21.5534C22.96 21.593 27.9023 20.7789 29.7541 19.0659C30.9398 17.9692 30.8522 16.9799 30.8522 16.9799C30.8522 16.9799 28.7131 20.7167 19.5476 20.5904C11.7736 20.483 8.26953 17.0986 8.26953 17.0986C8.26953 17.0986 8.47733 18.2632 9.43075 18.9868C11.686 20.6922 15.0678 21.4987 19.5782 21.5534ZM10.6999 21.25C10.3027 21.5948 10.7325 22.4711 11.7023 23.2607C12.672 24.0503 13.6417 24.6834 14.1266 24.2349C14.6298 23.7695 13.442 22.6577 12.7718 22.1168C12.1016 21.576 11.2174 20.8015 10.6999 21.25Z" fill="white"/>
</svg>
