<svg width="292" height="297" viewBox="0 0 292 297" fill="none" xmlns="http://www.w3.org/2000/svg">
<path d="M146 296.03C226.634 296.03 292 253.552 292 201.154C292 148.755 226.634 106.278 146 106.278C65.3664 106.278 0 148.755 0 201.154C0 253.552 65.3664 296.03 146 296.03Z" fill="#F5F5F5"/>
<path d="M49.1606 247.928C66.2513 247.928 80.1061 238.423 80.1061 226.699C80.1061 214.975 66.2513 205.47 49.1606 205.47C32.07 205.47 18.2152 214.975 18.2152 226.699C18.2152 238.423 32.07 247.928 49.1606 247.928Z" fill="#E0E0E0"/>
<path d="M11.2082 44.0784C13.8548 42.4194 17.4475 42.7418 21.4042 45.4622C23.2977 46.7912 25.0333 48.4148 26.5651 50.2897C32.1561 56.9885 36.126 67.1074 36.126 75.7718C36.126 86.9443 42.7425 100.515 50.8609 106.105L65.5959 116.208L128.393 73.1379L113.678 63.0268C105.546 57.4524 98.9431 43.8661 98.9431 32.7014C98.9431 21.5368 92.3266 7.96624 84.2082 2.38392C80.2383 -0.360068 76.5727 -0.650975 73.9195 1.07876L73.5622 1.31463L52.8459 15.5378L49.5376 17.7786L11.2082 44.0784Z" fill="#E6E6E6"/>
<path d="M197.358 104.147C197.285 104.09 197.2 104.059 197.113 104.059C197.026 104.059 196.941 104.09 196.868 104.147L195.062 105.397C194.869 105.552 194.708 105.759 194.593 106C194.479 106.242 194.412 106.512 194.4 106.789V132.004L270.49 183.306L273.488 156.346L197.358 104.147Z" fill="#263238"/>
<path d="M273.454 156.314C273.378 156.282 273.297 156.273 273.218 156.286C273.138 156.3 273.063 156.337 272.998 156.393L271.152 157.611C270.95 157.752 270.786 157.956 270.675 158.201L194.565 105.987C194.682 105.747 194.845 105.544 195.042 105.397L196.861 104.155C196.934 104.098 197.019 104.067 197.106 104.067C197.193 104.067 197.278 104.098 197.351 104.155L273.454 156.314Z" fill="#455A64"/>
<path d="M272.997 156.386L271.151 157.612C270.957 157.767 270.796 157.973 270.681 158.215C270.567 158.457 270.501 158.727 270.49 159.004V183.283L273.666 185.438V156.826C273.672 156.339 273.368 156.134 272.997 156.386Z" fill="#37474F"/>
<path d="M270.497 183.306V184.965L265.739 187.481L189.61 135.243L194.367 132.004L270.497 183.306Z" fill="black"/>
<path d="M267.327 190.752L272.998 186.821C273.192 186.667 273.353 186.46 273.468 186.219C273.583 185.977 273.649 185.706 273.659 185.429L270.484 183.275C270.473 183.552 270.408 183.823 270.293 184.065C270.178 184.307 270.017 184.513 269.822 184.666L268.002 185.916C267.632 186.168 267.341 185.964 267.341 185.452L267.327 190.752Z" fill="#37474F"/>
<path d="M284.841 188.125C285.194 187.838 285.485 187.456 285.692 187.011C285.899 186.566 286.015 186.07 286.032 185.562V103.974C286.009 103.449 285.882 102.939 285.661 102.484C285.44 102.029 285.132 101.642 284.762 101.356L196.683 40.925C196.315 40.65 195.891 40.4994 195.457 40.4895C195.022 40.4796 194.594 40.6107 194.217 40.8687C193.841 41.1267 193.531 41.5019 193.32 41.9537C193.11 42.4056 193.008 42.9171 193.024 43.4331V125.021C193.048 125.547 193.177 126.057 193.399 126.512C193.62 126.967 193.93 127.353 194.301 127.64L282.4 188.07C282.775 188.303 283.191 188.429 283.615 188.439C284.039 188.449 284.458 188.341 284.841 188.125Z" fill="#FDC55E"/>
<path d="M283.65 105.61V187.198C283.65 188.157 283.081 188.55 282.38 188.071L194.301 127.64C193.929 127.354 193.62 126.968 193.398 126.513C193.176 126.058 193.048 125.547 193.024 125.022V43.4335C193.024 42.4742 193.599 42.0811 194.301 42.5607L282.399 102.991C282.766 103.281 283.07 103.668 283.288 104.123C283.505 104.578 283.629 105.087 283.65 105.61Z" fill="#FCB32B"/>
<path opacity="0.2" d="M286.103 103.383V184.972C286.086 185.48 285.97 185.976 285.763 186.421C285.556 186.866 285.265 187.247 284.912 187.535C284.572 187.73 284.202 187.839 283.825 187.854C283.447 187.869 283.072 187.79 282.722 187.621C283.291 187.842 283.721 187.448 283.721 186.607V105.011C283.704 104.487 283.576 103.976 283.35 103.525L285.726 101.889C285.957 102.341 286.087 102.855 286.103 103.383Z" fill="black"/>
<path d="M276.491 126.878V139.748C276.491 140.715 275.922 141.101 275.22 140.621L261.068 130.88C260.698 130.594 260.391 130.208 260.17 129.755C259.949 129.301 259.822 128.792 259.797 128.269V115.422C259.797 114.463 260.366 114.07 261.068 114.549L275.22 124.259C275.591 124.546 275.899 124.933 276.12 125.388C276.34 125.843 276.468 126.353 276.491 126.878Z" fill="#455A64"/>
<mask id="mask0_20_478" style="mask-type:luminance" maskUnits="userSpaceOnUse" x="259" y="114" width="18" height="27">
<path d="M276.491 126.878V139.748C276.491 140.715 275.922 141.101 275.22 140.621L261.068 130.88C260.698 130.594 260.391 130.208 260.17 129.755C259.949 129.301 259.822 128.792 259.797 128.269V115.422C259.797 114.463 260.366 114.07 261.068 114.549L275.22 124.259C275.591 124.546 275.899 124.933 276.12 125.388C276.34 125.843 276.468 126.353 276.491 126.878Z" fill="white"/>
</mask>
<g mask="url(#mask0_20_478)">
<path d="M257.556 116.643L257.268 117.235L278.728 131.97L279.016 131.378L257.556 116.643Z" fill="white"/>
<path d="M272.011 126.768H271.436V133.325H272.011V126.768Z" fill="white"/>
<path d="M264.859 121.885H264.284V128.434H264.859V121.885Z" fill="white"/>
<path d="M257.555 123.217L257.267 123.809L278.728 138.544L279.016 137.952L257.555 123.217Z" fill="white"/>
</g>
<path d="M276.491 151.424V154.467C276.491 155.434 275.922 155.819 275.22 155.339L261.068 145.629C260.698 145.344 260.391 144.958 260.17 144.505C259.949 144.051 259.822 143.542 259.797 143.019V139.961C259.797 138.993 260.366 138.608 261.068 139.088L275.22 148.798C275.592 149.085 275.9 149.473 276.121 149.93C276.342 150.386 276.469 150.898 276.491 151.424Z" fill="#FAFAFA"/>
<path d="M256.595 137.783V140.841C256.595 141.8 256.026 142.194 255.325 141.714L241.172 132.004C240.802 131.717 240.494 131.331 240.273 130.876C240.052 130.421 239.925 129.91 239.902 129.386V126.335C239.902 125.368 240.471 124.975 241.172 125.462L255.325 135.172C255.694 135.458 256.002 135.844 256.223 136.297C256.443 136.751 256.571 137.26 256.595 137.783Z" fill="#FAFAFA"/>
<path d="M236.746 124.15V127.208C236.746 128.167 236.177 128.561 235.475 128.081L221.323 118.371C220.952 118.084 220.644 117.698 220.423 117.243C220.203 116.788 220.075 116.277 220.052 115.753V112.694C220.052 111.735 220.621 111.342 221.323 111.821L235.475 121.531C235.845 121.819 236.152 122.206 236.373 122.661C236.594 123.115 236.721 123.626 236.746 124.15Z" fill="#FAFAFA"/>
<path d="M216.896 110.516V113.582C216.896 114.549 216.327 114.942 215.625 114.455L201.473 104.753C201.103 104.465 200.796 104.078 200.576 103.623C200.355 103.168 200.227 102.658 200.202 102.134V99.0759C200.202 98.1167 200.771 97.7235 201.473 98.2031L215.625 107.913C215.994 108.198 216.301 108.582 216.522 109.034C216.742 109.487 216.871 109.994 216.896 110.516Z" fill="#FAFAFA"/>
<path opacity="0.15" d="M208.096 114.203L211.345 116.428C211.566 116.602 211.75 116.834 211.882 117.107C212.014 117.38 212.091 117.686 212.106 118.001V119.18C212.106 119.754 211.761 119.966 211.345 119.699L208.096 117.513C207.874 117.34 207.69 117.108 207.558 116.835C207.426 116.562 207.349 116.255 207.335 115.941V114.762C207.335 114.148 207.679 113.912 208.096 114.203Z" fill="black"/>
<path opacity="0.15" d="M200.944 109.297L204.186 111.522C204.409 111.694 204.595 111.926 204.728 112.199C204.861 112.473 204.939 112.779 204.953 113.095V114.274C204.953 114.856 204.609 115.06 204.186 114.801L200.944 112.576C200.721 112.404 200.536 112.172 200.404 111.898C200.272 111.625 200.196 111.318 200.183 111.003V109.824C200.183 109.242 200.52 109.006 200.944 109.297Z" fill="black"/>
<path opacity="0.15" d="M241.9 145.575L201.539 117.868C200.838 117.388 200.269 117.773 200.269 118.74V120.156C200.292 120.68 200.419 121.191 200.64 121.646C200.861 122.1 201.169 122.487 201.539 122.774L241.9 150.481C242.601 150.961 243.17 150.575 243.17 149.608V148.177C243.145 147.655 243.017 147.148 242.796 146.696C242.575 146.244 242.268 145.86 241.9 145.575Z" fill="black"/>
<path d="M201.287 65.6607C200.715 64.356 200.429 62.9014 200.454 61.4307C200.454 59.8582 200.725 58.8046 201.268 58.3329C201.81 57.8611 202.591 57.9869 203.61 58.6788C204.024 58.9626 204.412 59.2973 204.768 59.6774C205.101 60.0251 205.397 60.4213 205.648 60.8567C205.7 60.9384 205.73 61.0372 205.734 61.1398C205.736 61.2107 205.717 61.2804 205.681 61.3363L205.376 61.9732C205.337 62.044 205.297 62.0675 205.257 62.0361C205.197 61.9888 205.145 61.9273 205.105 61.8553C204.749 61.2837 204.299 60.8047 203.782 60.4479C203.18 60.039 202.71 59.9919 202.379 60.3142C202.048 60.6366 201.883 61.3363 201.883 62.4213C201.861 63.3928 202.038 64.356 202.399 65.2282C202.717 65.9765 203.212 66.5992 203.821 67.0209C204.225 67.355 204.714 67.5133 205.204 67.469C205.254 67.4513 205.307 67.4513 205.357 67.469C205.396 67.469 205.436 67.5476 205.476 67.7049L205.82 68.8685C205.838 68.9294 205.849 68.9929 205.853 69.0572C205.853 69.1123 205.82 69.1594 205.747 69.1909C205.29 69.3953 204.589 69.1909 203.636 68.5226C202.643 67.8484 201.83 66.8569 201.287 65.6607Z" fill="#081956"/>
<path d="M206.654 70.2522C206.586 70.0943 206.554 69.9182 206.561 69.7412V61.5171C206.561 61.3205 206.561 61.1868 206.654 61.1239C206.746 61.061 206.812 61.0846 206.951 61.179L209.168 62.6964C209.864 63.1399 210.441 63.8071 210.833 64.6219C211.225 65.4366 211.416 66.3661 211.384 67.3038C211.41 67.8176 211.321 68.3303 211.126 68.7898C211.047 68.951 210.933 69.0837 210.795 69.1737C210.658 69.2638 210.502 69.3077 210.346 69.3009L211.265 73.122C211.274 73.1924 211.274 73.2639 211.265 73.3343C211.265 73.4994 211.206 73.5387 211.08 73.4522L210.107 72.7918C210.04 72.7462 209.98 72.6878 209.929 72.6188C209.874 72.5333 209.838 72.4336 209.823 72.3279L209.042 68.7662L208.003 68.0507V70.7712C208.018 70.908 207.987 71.0463 207.917 71.1564C207.858 71.2193 207.752 71.1564 207.606 71.0935L206.945 70.6453C206.815 70.554 206.713 70.4164 206.654 70.2522ZM208.956 67.0208C209.287 67.2488 209.538 67.3038 209.704 67.2016C209.869 67.0994 209.955 66.7928 209.955 66.3132C209.966 65.8952 209.887 65.4808 209.724 65.1102C209.569 64.7803 209.34 64.508 209.062 64.324L208.023 63.6085V66.3761L208.956 67.0208Z" fill="#081956"/>
<path d="M212.199 74.058C212.131 73.9001 212.099 73.724 212.106 73.547V65.3228C212.106 65.1184 212.106 64.9926 212.199 64.9297C212.291 64.8668 212.358 64.8904 212.496 64.9848L216.129 67.4772C216.251 67.5507 216.353 67.6656 216.42 67.8074C216.479 67.9656 216.506 68.1378 216.499 68.3106V68.8216C216.515 68.9648 216.487 69.1098 216.42 69.2305C216.367 69.2855 216.268 69.2305 216.129 69.1676L213.548 67.3985V69.5528L215.348 70.7951C215.471 70.8645 215.572 70.9771 215.639 71.1175C215.698 71.2785 215.725 71.4532 215.719 71.6285V72.1081C215.734 72.2513 215.706 72.3963 215.639 72.517C215.586 72.572 215.494 72.517 215.348 72.4541L213.548 71.2197V73.4841L216.122 75.2531C216.243 75.3259 216.343 75.4412 216.407 75.5833C216.465 75.7446 216.492 75.9192 216.486 76.0944V76.5976C216.486 76.8099 216.486 76.9435 216.407 76.9907C216.327 77.0379 216.261 76.9907 216.122 76.9278L212.496 74.4433C212.366 74.3553 212.261 74.2205 212.199 74.058Z" fill="#081956"/>
<path d="M217.22 77.5015C217.152 77.3436 217.121 77.1675 217.127 76.9905V68.7664C217.127 68.5698 217.127 68.4362 217.22 68.3733C217.313 68.3104 217.379 68.3339 217.518 68.4283L219.357 69.6941C220.311 70.3259 221.099 71.2594 221.633 72.391C222.18 73.6589 222.446 75.0712 222.407 76.4951C222.407 78.0676 222.149 79.1133 221.62 79.5222C221.091 79.931 220.343 79.7895 219.357 79.1133L217.518 77.8553C217.391 77.7756 217.287 77.6523 217.22 77.5015ZM219.423 77.5015C219.946 77.8553 220.33 77.8947 220.588 77.6116C220.846 77.3286 220.972 76.6367 220.972 75.5281C221.007 74.6376 220.876 73.7488 220.588 72.9256C220.337 72.3019 219.931 71.7856 219.423 71.4475L218.57 70.8578V76.9119L219.423 77.5015Z" fill="#081956"/>
<path d="M223.222 81.622C223.154 81.4612 223.122 81.2826 223.129 81.1031V72.8868C223.129 72.6824 223.129 72.5566 223.222 72.4937C223.314 72.4308 223.38 72.4544 223.519 72.5487L224.181 72.9969C224.31 73.0785 224.418 73.201 224.492 73.3507C224.552 73.5171 224.581 73.6966 224.578 73.8775V82.133C224.592 82.2723 224.562 82.4129 224.492 82.5262C224.432 82.5812 224.326 82.5655 224.181 82.4633L223.519 82.0151C223.389 81.9226 223.285 81.7856 223.222 81.622Z" fill="#081956"/>
<path d="M227.006 84.216C226.941 84.0571 226.909 83.8817 226.914 83.705V76.5659L225.498 75.5831C225.377 75.5103 225.277 75.395 225.213 75.2529C225.155 75.0946 225.127 74.9224 225.134 74.7497V74.2701C225.118 74.1269 225.147 73.9819 225.213 73.8612C225.266 73.8062 225.359 73.8612 225.498 73.9241L229.818 76.8883C229.941 76.9669 230.044 77.0838 230.116 77.2263C230.174 77.3904 230.201 77.5675 230.195 77.7453V78.2013C230.195 78.4057 230.195 78.5315 230.116 78.5866C230.037 78.6416 229.957 78.5866 229.818 78.5237L228.382 77.5408V84.6799C228.382 84.8844 228.383 85.0102 228.296 85.0652C228.21 85.1202 228.131 85.0652 227.986 84.9944L227.324 84.5541C227.193 84.4793 227.083 84.3621 227.006 84.216Z" fill="#081956"/>
<path d="M234.529 88.462C233.958 87.1598 233.672 85.708 233.696 84.2398C233.696 82.6673 233.967 81.6059 234.509 81.142C235.052 80.6782 235.833 80.7882 236.852 81.488C237.266 81.769 237.654 82.1011 238.01 82.4787C238.34 82.8303 238.635 83.2261 238.89 83.658C238.941 83.7402 238.971 83.8387 238.976 83.9411C238.979 84.0122 238.961 84.0824 238.923 84.1376L238.618 84.7745C238.579 84.8531 238.539 84.8767 238.493 84.8452C238.436 84.7914 238.387 84.7278 238.347 84.6566C237.991 84.0881 237.54 83.6119 237.024 83.257C236.428 82.8403 235.958 82.801 235.628 83.1234C235.297 83.4457 235.125 84.1455 235.125 85.2226C235.105 86.1973 235.284 87.1632 235.648 88.0374C235.97 88.7826 236.463 89.4042 237.07 89.83C237.476 90.1578 237.963 90.3155 238.453 90.2782C238.5 90.2563 238.552 90.2563 238.598 90.2782C238.658 90.3411 238.702 90.4229 238.724 90.5141L239.062 91.6777C239.084 91.7372 239.098 91.8012 239.101 91.8664C239.101 91.9214 239.062 91.9686 238.995 92.0079C238.539 92.2123 237.838 92.0079 236.885 91.3318C235.887 90.6586 235.071 89.6637 234.529 88.462Z" fill="#081956"/>
<path d="M239.392 92.6363C239.387 92.5709 239.387 92.505 239.392 92.4397L241.662 85.4421C241.702 85.3085 241.748 85.2299 241.794 85.2063C241.832 85.1965 241.871 85.1964 241.908 85.2059C241.946 85.2154 241.981 85.2343 242.013 85.2613L242.674 85.7016C242.761 85.7569 242.834 85.8382 242.886 85.9375C242.944 86.0693 242.989 86.2093 243.018 86.3542L245.281 96.4574C245.29 96.5383 245.29 96.6202 245.281 96.7011C245.281 96.8584 245.228 96.8977 245.122 96.8269L244.064 96.0957C243.995 96.0501 243.934 95.9887 243.885 95.9149C243.837 95.8231 243.804 95.722 243.786 95.6161L243.382 93.7056L241.258 92.2431L240.861 93.6112C240.861 93.7056 240.802 93.7527 240.762 93.7685C240.731 93.7739 240.699 93.7718 240.668 93.7623C240.637 93.7529 240.609 93.7363 240.583 93.7134L239.525 92.9822C239.478 92.9448 239.441 92.8927 239.417 92.8316C239.394 92.7705 239.385 92.7028 239.392 92.6363ZM243.078 91.85L242.37 88.422L241.635 90.9144L243.078 91.85Z" fill="#081956"/>
<path d="M246.147 97.3463C246.079 97.1887 246.047 97.0124 246.055 96.8353V88.619C246.055 88.4146 246.055 88.281 246.147 88.2259C246.24 88.1709 246.306 88.1788 246.445 88.281L248.662 89.7984C249.36 90.2373 249.94 90.9022 250.333 91.7162C250.726 92.5302 250.918 93.46 250.885 94.3979C250.909 94.9124 250.818 95.4253 250.62 95.8839C250.541 96.0451 250.427 96.1778 250.289 96.2678C250.152 96.3579 249.996 96.4018 249.839 96.395L250.759 100.216C250.768 100.287 250.768 100.358 250.759 100.428C250.759 100.594 250.7 100.633 250.574 100.554L249.601 99.8859C249.533 99.8428 249.472 99.784 249.423 99.7129C249.372 99.6279 249.336 99.5316 249.317 99.4299L248.51 95.8289L247.471 95.1134V97.8574C247.485 97.9966 247.454 98.137 247.385 98.2505C247.325 98.3056 247.219 98.2505 247.074 98.1798L246.412 97.7316C246.294 97.6374 246.201 97.5033 246.147 97.3463ZM248.45 94.1149C248.781 94.3429 249.032 94.4058 249.198 94.2957C249.363 94.1856 249.449 93.8947 249.449 93.4151C249.461 92.9945 249.381 92.5774 249.218 92.2043C249.063 91.8744 248.834 91.6021 248.556 91.4181L247.517 90.7026V93.478L248.45 94.1149Z" fill="#081956"/>
<path d="M251.692 101.152C251.627 100.993 251.595 100.818 251.599 100.641V92.4246C251.592 92.3538 251.596 92.2819 251.612 92.2131C251.628 92.1443 251.655 92.0799 251.692 92.0236C251.752 91.9685 251.851 91.9843 251.99 92.0786L253.829 93.3445C254.783 93.9762 255.571 94.9097 256.105 96.0413C256.652 97.3093 256.918 98.7215 256.879 100.145C256.879 101.757 256.621 102.764 256.092 103.172C255.563 103.581 254.815 103.44 253.829 102.764L251.99 101.506C251.863 101.426 251.759 101.303 251.692 101.152ZM253.902 101.152C254.418 101.506 254.808 101.545 255.06 101.262C255.311 100.979 255.45 100.287 255.45 99.1784C255.484 98.2872 255.351 97.3983 255.06 96.5759C254.812 95.9528 254.407 95.4364 253.902 95.0978L253.042 94.5081V100.562L253.902 101.152Z" fill="#081956"/>
<path opacity="0.5" d="M285.655 102.48L283.28 104.147C283.063 103.689 282.754 103.302 282.38 103.023L194.294 42.5605C193.632 42.1281 193.13 42.4111 193.037 43.1895C193.055 42.6946 193.181 42.2139 193.405 41.7957C193.628 41.3774 193.94 41.0365 194.31 40.807C194.679 40.5776 195.093 40.4677 195.51 40.4884C195.926 40.5091 196.331 40.6597 196.683 40.9251L284.762 101.356C285.137 101.631 285.445 102.019 285.655 102.48Z" fill="#FAFAFA"/>
<path d="M267.129 160.702L259.599 165.569C259.473 165.908 259.406 166.275 259.401 166.646V195.257C259.396 195.343 259.406 195.429 259.43 195.51C259.454 195.591 259.491 195.665 259.54 195.729L183.45 143.546C183.381 143.49 183.326 143.413 183.291 143.323C183.256 143.233 183.243 143.133 183.251 143.035V114.416C183.263 114.139 183.329 113.869 183.444 113.627C183.559 113.386 183.72 113.179 183.913 113.024L190.496 108.495C190.565 108.431 190.649 108.393 190.736 108.386C190.823 108.379 190.91 108.403 190.986 108.456L267.129 160.702Z" fill="#263238"/>
<path opacity="0.5" d="M267.135 160.694L197.549 112.938L194.373 110.76L191.019 108.456C190.943 108.403 190.856 108.379 190.769 108.386C190.681 108.393 190.598 108.431 190.529 108.495L183.946 113.024C183.747 113.171 183.585 113.377 183.476 113.622L259.605 165.561L267.135 160.694Z" fill="#37474F"/>
<path d="M259.599 165.569C259.471 165.914 259.402 166.285 259.394 166.662V195.273C259.394 195.784 259.698 195.989 260.055 195.737L267.334 190.752V161.221C267.344 161.121 267.33 161.02 267.295 160.929C267.26 160.837 267.205 160.759 267.135 160.702L259.599 165.569Z" fill="#37474F"/>
<path d="M260.142 195.658L260.4 195.509L261.518 194.722C262.6 193.125 263.19 191.136 263.192 189.085V164.908C263.186 164.378 263.131 163.851 263.026 163.336L262.424 163.729C262.491 164.112 262.526 164.501 262.53 164.892V189.085C262.408 191.541 261.563 193.869 260.142 195.658Z" fill="#263238"/>
<path d="M174.775 80.9376C172.208 78.4688 167.537 75.2688 164.665 73.3032C159.835 69.9774 141.779 57.5783 134.229 52.397C133.182 51.7651 132.023 51.4357 130.848 51.4357C129.673 51.4357 128.515 51.7651 127.467 52.397L65.9338 94.634C64.9509 95.398 64.1329 96.4258 63.5456 97.6344C62.9583 98.843 62.6182 100.199 62.5528 101.592V145.818C62.6188 147.213 62.959 148.569 63.5462 149.779C64.1334 150.989 64.9512 152.018 65.9338 152.784L190.887 238.595C191.935 239.223 193.093 239.551 194.268 239.551C195.442 239.551 196.6 239.223 197.649 238.595L259.182 196.374C260.166 195.603 260.983 194.568 261.568 193.352C262.153 192.137 262.49 190.775 262.55 189.376V164.452C262.555 163.236 262.322 162.034 261.869 160.943C261.417 159.851 260.758 158.9 259.943 158.162C245.824 145.417 178.878 84.8767 174.775 80.9376Z" fill="#455A64"/>
<path d="M262.55 189.376V165.183C262.55 164.696 262.501 164.21 262.405 163.737L194.096 210.526C194.198 211.028 194.253 211.542 194.261 212.059V236.236C194.261 238.595 193.004 239.625 191.376 238.838H191.423C191.575 238.917 191.727 238.988 191.886 239.051L192.19 239.161C192.356 239.216 192.521 239.263 192.693 239.302C192.865 239.342 192.918 239.349 193.03 239.373L193.54 239.452H193.924H194.407H194.837L195.273 239.412C195.432 239.412 195.591 239.35 195.75 239.31L196.12 239.232C196.292 239.177 196.464 239.106 196.63 239.043C196.795 238.98 196.828 238.98 196.921 238.933C197.137 238.832 197.347 238.714 197.549 238.579C197.582 238.565 197.613 238.547 197.642 238.524L259.176 196.303L260.062 195.705C261.523 194.034 262.409 191.779 262.55 189.376Z" fill="#37474F"/>
<path d="M106.48 127.805C118.019 138.876 178.282 193.063 191.634 205.062C192.456 205.794 193.123 206.744 193.582 207.835C194.042 208.927 194.281 210.131 194.281 211.351V236.236C194.281 238.791 192.759 239.837 190.9 238.595L65.9007 152.816C64.9181 152.05 64.1003 151.02 63.5131 149.81C62.926 148.601 62.5857 147.244 62.5197 145.85V101.592C62.5197 99.0367 64.0415 97.991 65.9007 99.2725L96.3367 120.155C99.2281 122.129 103.899 125.329 106.48 127.805Z" fill="#263238"/>
<path d="M106.109 113.472C108.981 115.438 113.652 118.638 116.239 121.123C118.736 123.568 121.105 126.194 123.332 128.985C123.818 129.547 124.442 129.913 125.113 130.028C125.784 130.144 126.47 130.005 127.07 129.63L171.718 98.9662C171.982 98.813 172.21 98.5857 172.382 98.304C172.555 98.0223 172.667 97.6947 172.709 97.3498C172.75 97.005 172.721 96.6532 172.622 96.3251C172.523 95.997 172.358 95.7026 172.142 95.4674C169.908 92.6771 167.533 90.0514 165.029 87.605C162.455 85.1362 157.784 81.944 154.913 79.9706C149.447 76.2123 143.314 72.0059 137.789 68.2241C137.143 67.8383 136.431 67.6373 135.708 67.6373C134.985 67.6373 134.273 67.8383 133.627 68.2241L88.9988 98.8718C87.8541 99.6581 87.8541 100.94 88.9988 101.726L106.109 113.472Z" fill="#E0E0E0"/>
<path d="M133.627 70.7557C134.273 70.3699 134.985 70.169 135.708 70.169C136.431 70.169 137.143 70.3699 137.789 70.7557C143.314 74.5376 149.447 78.744 154.913 82.5022C157.784 84.4757 162.455 87.6757 165.029 90.1445C167.533 92.5906 169.908 95.2163 172.142 98.0069C172.222 98.1069 172.295 98.2147 172.36 98.3293C172.181 98.6037 171.956 98.8311 171.699 98.9976L127.05 129.661C126.45 130.036 125.765 130.176 125.093 130.06C124.422 129.944 123.798 129.579 123.312 129.016C121.085 126.225 118.717 123.6 116.219 121.154C113.632 118.669 108.941 115.469 106.089 113.504L88.9989 101.726C88.9195 101.671 88.8599 101.608 88.7937 101.553C88.8582 101.489 88.9268 101.431 88.9989 101.38L133.627 70.7557Z" fill="white"/>
<path d="M134.362 111.184L121.003 110.941V104.603L130.57 106.663L130.445 81.48L138.762 81.3228L134.362 111.184Z" fill="black"/>
<path d="M173.048 111.868L173.492 109.682L175.344 109.502L181.398 105.35C184.27 103.385 188.074 103.778 189.927 106.223C190.32 106.732 190.607 107.343 190.767 108.008L191.29 107.953L190.82 110.272C190.613 111.094 190.268 111.859 189.808 112.52C189.348 113.182 188.781 113.728 188.141 114.125L180.77 119.172C180.171 119.553 179.485 119.697 178.813 119.582C178.14 119.468 177.516 119.101 177.031 118.536C175.867 117.057 174.702 115.524 173.538 113.967C173.316 113.693 173.156 113.358 173.07 112.991C172.985 112.625 172.977 112.239 173.048 111.868Z" fill="#F54748"/>
<path opacity="0.1" d="M173.048 111.868L173.492 109.682L175.344 109.502L181.398 105.35C184.27 103.385 188.074 103.778 189.927 106.223C190.32 106.732 190.607 107.343 190.767 108.008L191.29 107.953L190.82 110.272C190.613 111.094 190.268 111.859 189.808 112.52C189.348 113.182 188.781 113.728 188.141 114.125L180.77 119.172C180.171 119.553 179.485 119.697 178.813 119.582C178.14 119.468 177.516 119.101 177.031 118.536C175.867 117.057 174.702 115.524 173.538 113.967C173.316 113.693 173.156 113.358 173.07 112.991C172.985 112.625 172.977 112.239 173.048 111.868Z" fill="black"/>
<path d="M181.167 116.994L188.538 111.939C191.416 109.965 192.184 106.435 190.331 104.029C188.478 101.623 184.674 101.191 181.802 103.157L174.431 108.212C174.167 108.371 173.937 108.602 173.761 108.886C173.586 109.17 173.469 109.499 173.421 109.847C173.372 110.195 173.394 110.551 173.483 110.888C173.573 111.224 173.727 111.53 173.935 111.782C175.1 113.354 176.266 114.877 177.435 116.35C177.918 116.916 178.541 117.284 179.212 117.4C179.883 117.516 180.568 117.374 181.167 116.994Z" fill="#F54748"/>
<path d="M135.354 139.119L135.804 136.902L136.327 136.847C136.827 136.134 137.432 135.534 138.113 135.078L145.484 130.023C146.078 129.646 146.759 129.511 147.424 129.639C148.088 129.767 148.699 130.15 149.163 130.73C150.307 132.263 151.452 133.773 152.597 135.235L153.635 135.133L153.166 137.437C153.017 138.014 152.685 138.499 152.239 138.789L144.868 143.845C141.99 145.818 138.106 145.504 136.267 143.058C135.852 142.543 135.552 141.913 135.393 141.226C135.233 140.538 135.22 139.814 135.354 139.119Z" fill="#F54748"/>
<path opacity="0.1" d="M135.354 139.119L135.804 136.902L136.327 136.847C136.827 136.134 137.432 135.534 138.113 135.078L145.484 130.023C146.078 129.646 146.759 129.511 147.424 129.639C148.088 129.767 148.699 130.15 149.163 130.73C150.307 132.263 151.452 133.773 152.597 135.235L153.635 135.133L153.166 137.437C153.017 138.014 152.685 138.499 152.239 138.789L144.868 143.845C141.99 145.818 138.106 145.504 136.267 143.058C135.852 142.543 135.552 141.913 135.393 141.226C135.233 140.538 135.22 139.814 135.354 139.119Z" fill="black"/>
<path d="M145.285 141.643L152.656 136.588C152.918 136.433 153.145 136.205 153.316 135.923C153.488 135.642 153.6 135.315 153.641 134.97C153.683 134.626 153.653 134.275 153.556 133.947C153.458 133.62 153.294 133.325 153.08 133.089C151.915 131.603 150.757 130.078 149.593 128.521C149.13 127.94 148.519 127.555 147.855 127.426C147.19 127.296 146.508 127.43 145.914 127.805L138.543 132.861C135.671 134.834 134.805 138.435 136.664 140.865C138.523 143.294 142.414 143.609 145.285 141.643Z" fill="#F54748"/>
<path d="M153.801 125.282L154.238 123.119L155.654 123.009L164.473 116.955C165.216 116.486 166.068 116.319 166.899 116.479C167.729 116.64 168.492 117.119 169.072 117.844C169.954 119.039 170.847 120.21 171.752 121.358C171.839 121.474 171.918 121.598 171.99 121.728L172.87 121.665L172.413 123.921C172.333 124.302 172.186 124.659 171.984 124.969C171.781 125.279 171.526 125.535 171.235 125.722L161.78 132.201C161.034 132.678 160.179 132.86 159.339 132.719C158.5 132.577 157.721 132.12 157.116 131.414C156.223 130.266 155.323 129.095 154.43 127.9C154.151 127.559 153.948 127.141 153.838 126.685C153.729 126.228 153.716 125.746 153.801 125.282Z" fill="#F54748"/>
<path opacity="0.1" d="M153.801 125.282L154.238 123.119L155.654 123.009L164.473 116.955C165.216 116.486 166.068 116.319 166.899 116.479C167.729 116.64 168.492 117.119 169.072 117.844C169.954 119.039 170.847 120.21 171.752 121.358C171.839 121.474 171.918 121.598 171.99 121.728L172.87 121.665L172.413 123.921C172.333 124.302 172.186 124.659 171.984 124.969C171.781 125.279 171.526 125.535 171.235 125.722L161.78 132.201C161.034 132.678 160.179 132.86 159.339 132.719C158.5 132.577 157.721 132.12 157.116 131.414C156.223 130.266 155.323 129.095 154.43 127.9C154.151 127.559 153.948 127.141 153.838 126.685C153.729 126.228 153.716 125.746 153.801 125.282Z" fill="black"/>
<path d="M154.846 125.706C155.739 126.901 156.639 128.065 157.532 129.22C158.137 129.926 158.916 130.383 159.756 130.525C160.595 130.666 161.451 130.485 162.197 130.007L171.652 123.528C171.979 123.334 172.262 123.05 172.476 122.698C172.69 122.346 172.829 121.938 172.882 121.509C172.935 121.079 172.899 120.641 172.778 120.231C172.657 119.822 172.455 119.453 172.188 119.156C171.295 118.009 170.401 116.798 169.508 115.634C168.928 114.91 168.165 114.431 167.334 114.272C166.503 114.113 165.652 114.282 164.91 114.754L155.461 121.232C155.129 121.431 154.84 121.72 154.62 122.076C154.399 122.433 154.253 122.846 154.193 123.282C154.133 123.719 154.161 124.166 154.274 124.587C154.388 125.009 154.584 125.392 154.846 125.706Z" fill="#F54748"/>
<g opacity="0.75">
<path d="M181.167 116.994L188.538 111.939C191.416 109.965 192.183 106.435 190.331 104.029C188.478 101.623 184.674 101.191 181.802 103.157L174.431 108.212C174.167 108.371 173.937 108.602 173.761 108.886C173.586 109.17 173.469 109.499 173.421 109.847C173.372 110.195 173.394 110.551 173.483 110.888C173.573 111.224 173.727 111.53 173.935 111.782C175.1 113.354 176.266 114.877 177.435 116.35C177.918 116.916 178.541 117.284 179.212 117.4C179.883 117.516 180.568 117.374 181.167 116.994Z" fill="white"/>
<path d="M145.285 141.643L152.656 136.587C152.918 136.433 153.145 136.205 153.316 135.923C153.488 135.642 153.6 135.314 153.641 134.97C153.683 134.626 153.653 134.275 153.556 133.947C153.458 133.619 153.294 133.325 153.08 133.089C151.915 131.603 150.757 130.077 149.593 128.521C149.13 127.939 148.519 127.555 147.855 127.425C147.19 127.296 146.508 127.43 145.914 127.805L138.543 132.861C135.671 134.834 134.805 138.435 136.664 140.865C138.523 143.294 142.414 143.609 145.285 141.643Z" fill="white"/>
<path d="M154.847 125.706C155.74 126.901 156.64 128.064 157.533 129.22C158.138 129.926 158.917 130.383 159.756 130.525C160.596 130.666 161.451 130.484 162.198 130.006L171.653 123.528C171.98 123.334 172.262 123.05 172.476 122.698C172.691 122.346 172.83 121.938 172.883 121.509C172.935 121.079 172.9 120.641 172.779 120.231C172.658 119.821 172.455 119.453 172.188 119.156C171.295 118.008 170.402 116.798 169.509 115.634C168.929 114.909 168.165 114.431 167.335 114.272C166.504 114.113 165.652 114.282 164.91 114.753L155.462 121.232C155.129 121.43 154.841 121.72 154.62 122.076C154.4 122.432 154.254 122.846 154.194 123.282C154.134 123.719 154.161 124.166 154.275 124.587C154.388 125.009 154.584 125.392 154.847 125.706Z" fill="white"/>
</g>
<path d="M169.184 149.97L167.239 150.025L161.794 145.087C161.313 144.693 160.752 144.461 160.169 144.417C159.586 144.373 159.004 144.517 158.485 144.835L150.162 150.536L147.548 150.614V153.146C147.56 153.4 147.621 153.647 147.727 153.868C147.832 154.089 147.98 154.278 148.157 154.42L154.932 160.568C155.413 160.961 155.975 161.191 156.557 161.236C157.14 161.28 157.721 161.136 158.241 160.82L168.423 153.838C168.639 153.716 168.823 153.528 168.955 153.293C169.088 153.058 169.165 152.784 169.178 152.501L169.184 149.97Z" fill="#F54748"/>
<path opacity="0.1" d="M169.184 149.97L167.239 150.025L161.794 145.087C161.313 144.693 160.752 144.461 160.169 144.417C159.586 144.373 159.004 144.517 158.485 144.835L150.162 150.536L147.548 150.614V153.146C147.56 153.4 147.621 153.647 147.727 153.868C147.832 154.089 147.98 154.278 148.157 154.42L154.932 160.568C155.413 160.961 155.975 161.191 156.557 161.236C157.14 161.28 157.721 161.136 158.241 160.82L168.423 153.838C168.639 153.716 168.823 153.528 168.955 153.293C169.088 153.058 169.165 152.784 169.178 152.501L169.184 149.97Z" fill="black"/>
<path d="M148.302 149.278L158.492 142.304C159.011 141.986 159.593 141.841 160.175 141.885C160.758 141.93 161.32 142.161 161.8 142.555L168.595 148.704C168.795 148.838 168.959 149.036 169.068 149.276C169.177 149.516 169.227 149.787 169.211 150.059C169.196 150.331 169.117 150.593 168.982 150.813C168.847 151.034 168.663 151.205 168.45 151.306L158.267 158.288C157.748 158.605 157.166 158.748 156.584 158.704C156.001 158.66 155.44 158.429 154.959 158.036L148.183 151.888C147.985 151.753 147.822 151.556 147.713 151.318C147.604 151.08 147.553 150.81 147.565 150.539C147.578 150.268 147.653 150.007 147.783 149.784C147.913 149.561 148.093 149.386 148.302 149.278Z" fill="#F54748"/>
<path opacity="0.75" d="M148.302 149.278L158.492 142.304C159.011 141.986 159.593 141.841 160.175 141.885C160.758 141.93 161.32 142.161 161.8 142.555L168.595 148.704C168.795 148.838 168.959 149.036 169.068 149.276C169.177 149.516 169.227 149.787 169.211 150.059C169.196 150.331 169.117 150.593 168.982 150.813C168.847 151.034 168.663 151.205 168.45 151.306L158.267 158.288C157.748 158.605 157.166 158.748 156.584 158.704C156.001 158.66 155.44 158.429 154.959 158.036L148.183 151.888C147.985 151.753 147.822 151.556 147.713 151.318C147.604 151.08 147.553 150.81 147.565 150.539C147.578 150.268 147.653 150.007 147.783 149.784C147.913 149.561 148.093 149.386 148.302 149.278Z" fill="white"/>
<path d="M208.956 186.002L207.011 186.065L201.566 181.12C201.085 180.727 200.523 180.497 199.941 180.452C199.358 180.408 198.777 180.552 198.257 180.868L189.927 186.576L187.314 186.647V189.179C187.324 189.433 187.384 189.681 187.49 189.902C187.596 190.123 187.744 190.312 187.922 190.452L194.698 196.601C195.178 196.995 195.74 197.227 196.323 197.271C196.905 197.315 197.487 197.171 198.006 196.852L208.162 189.847C208.377 189.724 208.561 189.534 208.692 189.297C208.824 189.061 208.899 188.786 208.91 188.503L208.956 186.002Z" fill="#F54748"/>
<path opacity="0.1" d="M208.956 186.002L207.011 186.065L201.566 181.12C201.085 180.727 200.523 180.497 199.941 180.452C199.358 180.408 198.777 180.552 198.257 180.868L189.927 186.576L187.314 186.647V189.179C187.324 189.433 187.384 189.681 187.49 189.902C187.596 190.123 187.744 190.312 187.922 190.452L194.698 196.601C195.178 196.995 195.74 197.227 196.323 197.271C196.905 197.315 197.487 197.171 198.006 196.852L208.162 189.847C208.377 189.724 208.561 189.534 208.692 189.297C208.824 189.061 208.899 188.786 208.91 188.503L208.956 186.002Z" fill="black"/>
<path d="M188.042 185.311L198.231 178.337C198.75 178.021 199.332 177.877 199.914 177.921C200.497 177.965 201.058 178.196 201.539 178.589L208.295 184.737C208.494 184.872 208.657 185.072 208.766 185.312C208.875 185.552 208.924 185.824 208.909 186.096C208.894 186.369 208.815 186.63 208.68 186.852C208.546 187.073 208.362 187.245 208.149 187.347L197.96 194.321C197.441 194.64 196.859 194.784 196.276 194.74C195.694 194.696 195.132 194.464 194.651 194.07L187.876 187.921C187.68 187.782 187.52 187.581 187.414 187.339C187.309 187.098 187.262 186.827 187.279 186.555C187.296 186.284 187.377 186.024 187.511 185.804C187.646 185.585 187.83 185.414 188.042 185.311Z" fill="#F54748"/>
<path opacity="0.75" d="M188.042 185.311L198.231 178.337C198.75 178.021 199.332 177.877 199.914 177.921C200.497 177.965 201.058 178.196 201.539 178.589L208.295 184.737C208.494 184.872 208.657 185.072 208.766 185.312C208.875 185.552 208.924 185.824 208.909 186.096C208.894 186.369 208.815 186.63 208.68 186.852C208.546 187.073 208.362 187.245 208.149 187.347L197.96 194.321C197.441 194.64 196.859 194.784 196.276 194.74C195.694 194.696 195.132 194.464 194.651 194.07L187.876 187.921C187.68 187.782 187.52 187.581 187.414 187.339C187.309 187.098 187.262 186.827 187.279 186.555C187.296 186.284 187.377 186.024 187.511 185.804C187.646 185.585 187.83 185.414 188.042 185.311Z" fill="white"/>
<path d="M182.431 161.984L180.485 162.039L175.04 157.101C174.559 156.707 173.998 156.475 173.416 156.43C172.833 156.384 172.251 156.526 171.732 156.842L163.401 162.55L160.755 162.628V165.16C160.767 165.414 160.829 165.66 160.934 165.881C161.04 166.102 161.187 166.291 161.364 166.434L168.185 172.551C168.666 172.945 169.227 173.177 169.809 173.222C170.392 173.268 170.974 173.126 171.493 172.81L181.676 165.828C181.892 165.707 182.075 165.519 182.208 165.283C182.341 165.048 182.418 164.775 182.431 164.492V161.984Z" fill="#F54748"/>
<path opacity="0.1" d="M182.431 161.984L180.485 162.039L175.04 157.101C174.559 156.707 173.998 156.475 173.416 156.43C172.833 156.384 172.251 156.526 171.732 156.842L163.401 162.55L160.755 162.628V165.16C160.767 165.414 160.829 165.66 160.934 165.881C161.04 166.102 161.187 166.291 161.364 166.434L168.185 172.551C168.666 172.945 169.227 173.177 169.809 173.222C170.392 173.268 170.974 173.126 171.493 172.81L181.676 165.828C181.892 165.707 182.075 165.519 182.208 165.283C182.341 165.048 182.418 164.775 182.431 164.492V161.984Z" fill="black"/>
<path d="M161.549 161.291L171.739 154.309C172.258 153.994 172.84 153.852 173.423 153.897C174.005 153.943 174.566 154.175 175.047 154.569L181.829 160.709C182.028 160.845 182.192 161.044 182.3 161.284C182.409 161.525 182.458 161.796 182.443 162.069C182.428 162.341 182.349 162.603 182.214 162.824C182.08 163.045 181.896 163.217 181.683 163.32L171.5 170.302C170.981 170.617 170.399 170.759 169.816 170.714C169.234 170.668 168.673 170.436 168.192 170.042L161.41 163.902C161.213 163.765 161.051 163.566 160.944 163.326C160.836 163.087 160.787 162.816 160.801 162.545C160.816 162.274 160.893 162.014 161.025 161.792C161.157 161.571 161.339 161.397 161.549 161.291Z" fill="#F54748"/>
<path opacity="0.75" d="M161.549 161.291L171.739 154.309C172.258 153.994 172.84 153.852 173.423 153.897C174.005 153.943 174.566 154.175 175.047 154.569L181.829 160.709C182.028 160.845 182.192 161.044 182.3 161.284C182.409 161.525 182.458 161.796 182.443 162.069C182.428 162.341 182.349 162.603 182.214 162.824C182.08 163.045 181.896 163.217 181.683 163.32L171.5 170.302C170.981 170.617 170.399 170.759 169.816 170.714C169.234 170.668 168.673 170.436 168.192 170.042L161.41 163.902C161.213 163.765 161.051 163.566 160.944 163.326C160.836 163.087 160.787 162.816 160.801 162.545C160.816 162.274 160.893 162.014 161.025 161.792C161.157 161.571 161.339 161.397 161.549 161.291Z" fill="white"/>
<path d="M195.677 173.99L193.731 174.052L188.286 169.107C187.805 168.714 187.243 168.484 186.661 168.439C186.079 168.395 185.497 168.539 184.978 168.855L176.648 174.563L174.034 174.642V177.174C174.045 177.427 174.106 177.673 174.212 177.893C174.317 178.113 174.465 178.3 174.643 178.44L181.418 184.588C181.899 184.982 182.46 185.214 183.043 185.258C183.626 185.303 184.207 185.158 184.726 184.84L194.909 177.866C195.124 177.743 195.307 177.553 195.439 177.316C195.571 177.079 195.646 176.805 195.657 176.521L195.677 173.99Z" fill="#F54748"/>
<path opacity="0.1" d="M195.677 173.99L193.731 174.052L188.286 169.107C187.805 168.714 187.243 168.484 186.661 168.439C186.079 168.395 185.497 168.539 184.978 168.855L176.648 174.563L174.034 174.642V177.174C174.045 177.427 174.106 177.673 174.212 177.893C174.317 178.113 174.465 178.3 174.643 178.44L181.418 184.588C181.899 184.982 182.46 185.214 183.043 185.258C183.626 185.303 184.207 185.158 184.726 184.84L194.909 177.866C195.124 177.743 195.307 177.553 195.439 177.316C195.571 177.079 195.646 176.805 195.657 176.521L195.677 173.99Z" fill="black"/>
<path d="M174.796 173.337L184.985 166.355C185.504 166.038 186.086 165.894 186.668 165.939C187.251 165.983 187.812 166.214 188.293 166.606L195.062 172.723C195.261 172.859 195.425 173.058 195.533 173.298C195.642 173.538 195.691 173.81 195.676 174.083C195.661 174.355 195.582 174.616 195.447 174.838C195.313 175.059 195.129 175.231 194.916 175.334L184.734 182.308C184.215 182.626 183.633 182.77 183.05 182.726C182.467 182.682 181.906 182.45 181.425 182.056L174.65 175.908C174.459 175.769 174.305 175.571 174.202 175.335C174.1 175.099 174.053 174.835 174.068 174.57C174.083 174.305 174.159 174.05 174.287 173.833C174.415 173.615 174.591 173.444 174.796 173.337Z" fill="#F54748"/>
<path opacity="0.75" d="M174.796 173.337L184.985 166.355C185.504 166.038 186.086 165.894 186.668 165.939C187.251 165.983 187.812 166.214 188.293 166.606L195.062 172.723C195.261 172.859 195.425 173.058 195.533 173.298C195.642 173.538 195.691 173.81 195.676 174.083C195.661 174.355 195.582 174.616 195.447 174.838C195.313 175.059 195.129 175.231 194.916 175.334L184.734 182.308C184.215 182.626 183.633 182.77 183.05 182.726C182.467 182.682 181.906 182.45 181.425 182.056L174.65 175.908C174.459 175.769 174.305 175.571 174.202 175.335C174.1 175.099 174.053 174.835 174.068 174.57C174.083 174.305 174.159 174.05 174.287 173.833C174.415 173.615 174.591 173.444 174.796 173.337Z" fill="white"/>
<path d="M189.63 135.966L187.685 136.029L182.239 131.084C181.758 130.691 181.197 130.46 180.614 130.416C180.032 130.372 179.45 130.516 178.931 130.832L170.581 136.54L167.934 136.619V139.151C167.947 139.403 168.008 139.649 168.114 139.868C168.22 140.088 168.366 140.275 168.543 140.416L175.384 146.604C175.865 146.998 176.427 147.23 177.009 147.274C177.592 147.319 178.174 147.174 178.693 146.856L188.882 139.882C189.097 139.759 189.28 139.569 189.412 139.332C189.544 139.095 189.619 138.821 189.63 138.537V135.966Z" fill="#F54748"/>
<path opacity="0.1" d="M189.63 135.966L187.685 136.029L182.239 131.084C181.758 130.691 181.197 130.46 180.614 130.416C180.032 130.372 179.45 130.516 178.931 130.832L170.581 136.54L167.934 136.619V139.151C167.947 139.403 168.008 139.649 168.114 139.868C168.22 140.088 168.366 140.275 168.543 140.416L175.384 146.604C175.865 146.998 176.427 147.23 177.009 147.274C177.592 147.319 178.174 147.174 178.693 146.856L188.882 139.882C189.097 139.759 189.28 139.569 189.412 139.332C189.544 139.095 189.619 138.821 189.63 138.537V135.966Z" fill="black"/>
<path d="M168.748 135.283L178.937 128.301C179.456 127.985 180.038 127.841 180.62 127.885C181.203 127.929 181.764 128.16 182.245 128.553L189.021 134.701C189.218 134.838 189.38 135.037 189.487 135.276C189.595 135.516 189.644 135.786 189.63 136.057C189.615 136.328 189.538 136.589 189.406 136.811C189.274 137.032 189.092 137.205 188.882 137.311L178.692 144.285C178.173 144.604 177.592 144.748 177.009 144.704C176.426 144.66 175.865 144.428 175.384 144.034L168.596 137.885C168.398 137.749 168.237 137.549 168.13 137.309C168.023 137.069 167.975 136.799 167.991 136.528C168.007 136.257 168.086 135.997 168.22 135.777C168.353 135.557 168.536 135.386 168.748 135.283Z" fill="#F54748"/>
<path opacity="0.75" d="M168.748 135.283L178.937 128.301C179.456 127.985 180.038 127.841 180.62 127.885C181.203 127.929 181.764 128.16 182.245 128.553L189.021 134.701C189.218 134.838 189.38 135.037 189.487 135.276C189.595 135.516 189.644 135.786 189.63 136.057C189.615 136.328 189.538 136.589 189.406 136.811C189.274 137.032 189.092 137.205 188.882 137.311L178.692 144.285C178.173 144.604 177.592 144.748 177.009 144.704C176.426 144.66 175.865 144.428 175.384 144.034L168.596 137.885C168.398 137.749 168.237 137.549 168.13 137.309C168.023 137.069 167.975 136.799 167.991 136.528C168.007 136.257 168.086 135.997 168.22 135.777C168.353 135.557 168.536 135.386 168.748 135.283Z" fill="white"/>
<path d="M229.368 172.008L227.423 172.063L221.977 167.118C221.496 166.727 220.934 166.497 220.352 166.453C219.77 166.408 219.189 166.551 218.669 166.866L210.346 172.551L207.699 172.629V175.161C207.711 175.415 207.772 175.662 207.877 175.883C207.983 176.104 208.13 176.293 208.308 176.435L215.083 182.575C215.564 182.969 216.125 183.201 216.707 183.247C217.289 183.292 217.871 183.15 218.391 182.835L228.574 175.853C228.789 175.73 228.972 175.54 229.104 175.303C229.236 175.066 229.311 174.792 229.322 174.508L229.368 172.008Z" fill="#F54748"/>
<path opacity="0.1" d="M229.368 172.008L227.423 172.063L221.977 167.118C221.496 166.727 220.934 166.497 220.352 166.453C219.77 166.408 219.189 166.551 218.669 166.866L210.346 172.551L207.699 172.629V175.161C207.711 175.415 207.772 175.662 207.877 175.883C207.983 176.104 208.13 176.293 208.308 176.435L215.083 182.575C215.564 182.969 216.125 183.201 216.707 183.247C217.289 183.292 217.871 183.15 218.391 182.835L228.574 175.853C228.789 175.73 228.972 175.54 229.104 175.303C229.236 175.066 229.311 174.792 229.322 174.508L229.368 172.008Z" fill="black"/>
<path d="M208.486 171.316L218.676 164.334C219.196 164.019 219.778 163.876 220.36 163.922C220.943 163.968 221.504 164.2 221.984 164.594L228.759 170.734C228.959 170.87 229.122 171.069 229.231 171.309C229.339 171.549 229.389 171.821 229.374 172.094C229.359 172.366 229.279 172.627 229.145 172.849C229.011 173.07 228.827 173.242 228.614 173.345L218.431 180.326C217.911 180.642 217.329 180.784 216.747 180.739C216.164 180.693 215.603 180.461 215.123 180.067L208.347 173.926C208.15 173.79 207.989 173.591 207.881 173.351C207.773 173.112 207.724 172.841 207.738 172.57C207.753 172.299 207.83 172.038 207.963 171.817C208.095 171.595 208.276 171.422 208.486 171.316Z" fill="#F54748"/>
<path opacity="0.75" d="M208.486 171.316L218.676 164.334C219.196 164.019 219.778 163.876 220.36 163.922C220.943 163.968 221.504 164.2 221.984 164.594L228.759 170.734C228.959 170.87 229.122 171.069 229.231 171.309C229.339 171.549 229.389 171.821 229.374 172.094C229.359 172.366 229.279 172.627 229.145 172.849C229.011 173.07 228.827 173.242 228.614 173.345L218.431 180.326C217.911 180.642 217.329 180.784 216.747 180.739C216.164 180.693 215.603 180.461 215.123 180.067L208.347 173.926C208.15 173.79 207.989 173.591 207.881 173.351C207.773 173.112 207.724 172.841 207.738 172.57C207.753 172.299 207.83 172.038 207.963 171.817C208.095 171.595 208.276 171.422 208.486 171.316Z" fill="white"/>
<path d="M202.876 147.98L200.931 148.043L195.485 143.098C195.005 142.704 194.443 142.472 193.86 142.428C193.278 142.383 192.696 142.528 192.177 142.846L183.847 148.546L181.233 148.625V151.157C181.245 151.411 181.306 151.658 181.412 151.879C181.517 152.1 181.664 152.289 181.842 152.431L188.617 158.579C189.098 158.972 189.66 159.202 190.242 159.246C190.825 159.291 191.406 159.147 191.925 158.831L202.115 151.857C202.328 151.736 202.511 151.551 202.644 151.318C202.776 151.086 202.854 150.816 202.869 150.536L202.876 147.98Z" fill="#F54748"/>
<path opacity="0.1" d="M202.876 147.98L200.931 148.043L195.485 143.098C195.005 142.704 194.443 142.472 193.86 142.428C193.278 142.383 192.696 142.528 192.177 142.846L183.847 148.546L181.233 148.625V151.157C181.245 151.411 181.306 151.658 181.412 151.879C181.517 152.1 181.664 152.289 181.842 152.431L188.617 158.579C189.098 158.972 189.66 159.202 190.242 159.246C190.825 159.291 191.406 159.147 191.925 158.831L202.115 151.857C202.328 151.736 202.511 151.551 202.644 151.318C202.776 151.086 202.854 150.816 202.869 150.536L202.876 147.98Z" fill="black"/>
<path d="M181.994 147.288L192.183 140.314C192.703 139.998 193.284 139.854 193.867 139.898C194.449 139.943 195.011 140.173 195.492 140.566L202.267 146.714C202.464 146.851 202.626 147.05 202.734 147.29C202.841 147.529 202.89 147.8 202.876 148.071C202.862 148.342 202.784 148.602 202.652 148.824C202.52 149.045 202.338 149.219 202.128 149.325L191.939 156.299C191.419 156.615 190.838 156.759 190.255 156.715C189.673 156.67 189.111 156.44 188.63 156.047L181.829 149.899C181.632 149.76 181.472 149.558 181.367 149.317C181.261 149.075 181.214 148.804 181.232 148.533C181.249 148.262 181.329 148.002 181.464 147.782C181.599 147.562 181.782 147.391 181.994 147.288Z" fill="#F54748"/>
<path opacity="0.75" d="M181.994 147.288L192.183 140.314C192.703 139.998 193.284 139.854 193.867 139.898C194.449 139.943 195.011 140.173 195.492 140.566L202.267 146.714C202.464 146.851 202.626 147.05 202.734 147.29C202.841 147.529 202.89 147.8 202.876 148.071C202.862 148.342 202.784 148.602 202.652 148.824C202.52 149.045 202.338 149.219 202.128 149.325L191.939 156.299C191.419 156.615 190.838 156.759 190.255 156.715C189.673 156.67 189.111 156.44 188.63 156.047L181.829 149.899C181.632 149.76 181.472 149.558 181.367 149.317C181.261 149.075 181.214 148.804 181.232 148.533C181.249 148.262 181.329 148.002 181.464 147.782C181.599 147.562 181.782 147.391 181.994 147.288Z" fill="white"/>
<path d="M216.122 159.971L214.177 160.026L208.731 155.088C208.251 154.694 207.689 154.462 207.106 154.418C206.524 154.374 205.942 154.518 205.423 154.836L197.093 160.537L194.479 160.615V163.147C194.491 163.401 194.552 163.648 194.658 163.869C194.763 164.09 194.911 164.279 195.088 164.421L201.863 170.569C202.345 170.96 202.906 171.19 203.488 171.234C204.071 171.278 204.652 171.136 205.172 170.821L215.361 163.902C215.576 163.78 215.76 163.592 215.893 163.357C216.026 163.122 216.103 162.848 216.115 162.565L216.122 159.971Z" fill="#F54748"/>
<path opacity="0.1" d="M216.122 159.971L214.177 160.026L208.731 155.088C208.251 154.694 207.689 154.462 207.106 154.418C206.524 154.374 205.942 154.518 205.423 154.836L197.093 160.537L194.479 160.615V163.147C194.491 163.401 194.552 163.648 194.658 163.869C194.763 164.09 194.911 164.279 195.088 164.421L201.863 170.569C202.345 170.96 202.906 171.19 203.488 171.234C204.071 171.278 204.652 171.136 205.172 170.821L215.361 163.902C215.576 163.78 215.76 163.592 215.893 163.357C216.026 163.122 216.103 162.848 216.115 162.565L216.122 159.971Z" fill="black"/>
<path d="M195.24 159.302L205.43 152.328C205.949 152.01 206.531 151.865 207.113 151.909C207.696 151.954 208.258 152.185 208.738 152.58L215.513 158.728C215.713 158.862 215.877 159.06 215.986 159.3C216.095 159.54 216.145 159.812 216.13 160.084C216.114 160.356 216.035 160.617 215.9 160.838C215.765 161.058 215.581 161.229 215.368 161.33L205.185 168.312C204.666 168.629 204.084 168.773 203.502 168.728C202.919 168.684 202.358 168.453 201.877 168.061L195.102 161.912C194.904 161.776 194.743 161.576 194.635 161.337C194.527 161.097 194.478 160.827 194.492 160.556C194.507 160.285 194.585 160.024 194.717 159.803C194.849 159.581 195.03 159.408 195.24 159.302Z" fill="#F54748"/>
<path opacity="0.75" d="M195.24 159.302L205.43 152.328C205.949 152.01 206.531 151.865 207.113 151.909C207.696 151.954 208.258 152.185 208.738 152.58L215.513 158.728C215.713 158.862 215.877 159.06 215.986 159.3C216.095 159.54 216.145 159.812 216.13 160.084C216.114 160.356 216.035 160.617 215.9 160.838C215.765 161.058 215.581 161.229 215.368 161.33L205.185 168.312C204.666 168.629 204.084 168.773 203.502 168.728C202.919 168.684 202.358 168.453 201.877 168.061L195.102 161.912C194.904 161.776 194.743 161.576 194.635 161.337C194.527 161.097 194.478 160.827 194.492 160.556C194.507 160.285 194.585 160.024 194.717 159.803C194.849 159.581 195.03 159.408 195.24 159.302Z" fill="white"/>
<path d="M210.068 121.963L208.122 122.018L202.677 117.081C202.197 116.687 201.635 116.455 201.052 116.411C200.47 116.366 199.888 116.511 199.369 116.829L191.039 122.529L188.425 122.608V125.14C188.437 125.394 188.498 125.641 188.603 125.862C188.709 126.083 188.856 126.272 189.034 126.413L195.809 132.562C196.29 132.954 196.852 133.185 197.434 133.229C198.016 133.274 198.598 133.13 199.117 132.813L209.3 125.832C209.516 125.71 209.699 125.522 209.832 125.287C209.965 125.051 210.042 124.778 210.054 124.495L210.068 121.963Z" fill="#F54748"/>
<path opacity="0.1" d="M210.068 121.963L208.122 122.018L202.677 117.081C202.197 116.687 201.635 116.455 201.052 116.411C200.47 116.366 199.888 116.511 199.369 116.829L191.039 122.529L188.425 122.608V125.14C188.437 125.394 188.498 125.641 188.603 125.862C188.709 126.083 188.856 126.272 189.034 126.413L195.809 132.562C196.29 132.954 196.852 133.185 197.434 133.229C198.016 133.274 198.598 133.13 199.117 132.813L209.3 125.832C209.516 125.71 209.699 125.522 209.832 125.287C209.965 125.051 210.042 124.778 210.054 124.495L210.068 121.963Z" fill="black"/>
<path d="M189.186 121.272L199.375 114.298C199.894 113.98 200.476 113.835 201.059 113.88C201.642 113.924 202.203 114.156 202.684 114.55L209.459 120.698C209.659 120.832 209.823 121.031 209.932 121.27C210.041 121.51 210.09 121.782 210.075 122.054C210.06 122.326 209.98 122.587 209.846 122.808C209.711 123.028 209.526 123.199 209.313 123.301L199.131 130.282C198.611 130.599 198.03 130.743 197.447 130.698C196.865 130.654 196.303 130.423 195.822 130.031L189.047 123.882C188.85 123.746 188.688 123.547 188.581 123.307C188.473 123.068 188.424 122.797 188.438 122.526C188.452 122.255 188.53 121.994 188.662 121.773C188.794 121.551 188.976 121.378 189.186 121.272Z" fill="#F54748"/>
<path opacity="0.75" d="M189.186 121.272L199.375 114.298C199.894 113.98 200.476 113.835 201.059 113.88C201.642 113.924 202.203 114.156 202.684 114.55L209.459 120.698C209.659 120.832 209.823 121.031 209.932 121.27C210.041 121.51 210.09 121.782 210.075 122.054C210.06 122.326 209.98 122.587 209.846 122.808C209.711 123.028 209.526 123.199 209.313 123.301L199.131 130.282C198.611 130.599 198.03 130.743 197.447 130.698C196.865 130.654 196.303 130.423 195.822 130.031L189.047 123.882C188.85 123.746 188.688 123.547 188.581 123.307C188.473 123.068 188.424 122.797 188.438 122.526C188.452 122.255 188.53 121.994 188.662 121.773C188.794 121.551 188.976 121.378 189.186 121.272Z" fill="white"/>
<path d="M249.807 157.997L247.861 158.06L242.416 153.115C241.936 152.721 241.374 152.489 240.791 152.445C240.209 152.4 239.627 152.545 239.108 152.863L230.791 158.564L228.177 158.642V161.174C228.187 161.428 228.248 161.676 228.354 161.897C228.459 162.119 228.607 162.307 228.786 162.448L235.561 168.62C236.042 169.014 236.603 169.245 237.186 169.29C237.769 169.334 238.351 169.189 238.87 168.871L249.059 161.897C249.274 161.774 249.457 161.584 249.589 161.347C249.72 161.111 249.796 160.836 249.807 160.553V157.997Z" fill="#F54748"/>
<path opacity="0.1" d="M249.807 157.997L247.861 158.06L242.416 153.115C241.936 152.721 241.374 152.489 240.791 152.445C240.209 152.4 239.627 152.545 239.108 152.863L230.791 158.564L228.177 158.642V161.174C228.187 161.428 228.248 161.676 228.354 161.897C228.459 162.119 228.607 162.307 228.786 162.448L235.561 168.62C236.042 169.014 236.603 169.245 237.186 169.29C237.769 169.334 238.351 169.189 238.87 168.871L249.059 161.897C249.274 161.774 249.457 161.584 249.589 161.347C249.72 161.111 249.796 160.836 249.807 160.553V157.997Z" fill="black"/>
<path d="M228.925 157.305L239.114 150.331C239.633 150.015 240.215 149.871 240.798 149.916C241.38 149.96 241.941 150.191 242.422 150.583L249.198 156.732C249.397 156.867 249.561 157.066 249.669 157.306C249.778 157.547 249.827 157.819 249.812 158.091C249.797 158.363 249.718 158.625 249.583 158.846C249.449 159.067 249.265 159.239 249.052 159.342L238.863 166.316C238.344 166.634 237.762 166.779 237.179 166.734C236.597 166.69 236.035 166.458 235.555 166.064L228.806 159.916C228.608 159.781 228.445 159.584 228.336 159.346C228.226 159.107 228.175 158.838 228.188 158.567C228.2 158.296 228.275 158.035 228.406 157.812C228.536 157.589 228.716 157.414 228.925 157.305Z" fill="#F54748"/>
<path opacity="0.75" d="M228.925 157.305L239.114 150.331C239.633 150.015 240.215 149.871 240.798 149.916C241.38 149.96 241.941 150.191 242.422 150.583L249.198 156.732C249.397 156.867 249.561 157.066 249.669 157.306C249.778 157.547 249.827 157.819 249.812 158.091C249.797 158.363 249.718 158.625 249.583 158.846C249.449 159.067 249.265 159.239 249.052 159.342L238.863 166.316C238.344 166.634 237.762 166.779 237.179 166.734C236.597 166.69 236.035 166.458 235.555 166.064L228.806 159.916C228.608 159.781 228.445 159.584 228.336 159.346C228.226 159.107 228.175 158.838 228.188 158.567C228.2 158.296 228.275 158.035 228.406 157.812C228.536 157.589 228.716 157.414 228.925 157.305Z" fill="white"/>
<path d="M236.56 145.983L234.615 146.046L229.17 141.101C228.689 140.708 228.127 140.478 227.545 140.433C226.962 140.389 226.381 140.533 225.862 140.849L217.558 146.557L214.911 146.636V149.168C214.922 149.42 214.983 149.667 215.089 149.887C215.195 150.106 215.342 150.294 215.52 150.433L222.295 156.582C222.775 156.978 223.337 157.21 223.92 157.255C224.503 157.299 225.085 157.153 225.603 156.834L235.793 149.86C236.008 149.736 236.191 149.546 236.323 149.31C236.454 149.073 236.53 148.798 236.541 148.515L236.56 145.983Z" fill="#F54748"/>
<path opacity="0.1" d="M236.56 145.983L234.615 146.046L229.17 141.101C228.689 140.708 228.127 140.478 227.545 140.433C226.962 140.389 226.381 140.533 225.862 140.849L217.558 146.557L214.911 146.636V149.168C214.922 149.42 214.983 149.667 215.089 149.887C215.195 150.106 215.342 150.294 215.52 150.433L222.295 156.582C222.775 156.978 223.337 157.21 223.92 157.255C224.503 157.299 225.085 157.153 225.603 156.834L235.793 149.86C236.008 149.736 236.191 149.546 236.323 149.31C236.454 149.073 236.53 148.798 236.541 148.515L236.56 145.983Z" fill="black"/>
<path d="M215.679 145.299L225.868 138.318C226.387 138.001 226.969 137.857 227.551 137.902C228.134 137.946 228.695 138.177 229.176 138.569L235.952 144.718C236.151 144.853 236.314 145.052 236.423 145.292C236.532 145.533 236.581 145.805 236.566 146.077C236.551 146.349 236.471 146.611 236.337 146.832C236.203 147.053 236.019 147.225 235.806 147.328L225.617 154.302C225.098 154.622 224.516 154.767 223.933 154.723C223.35 154.679 222.788 154.446 222.308 154.05L215.573 147.902C215.374 147.77 215.21 147.574 215.099 147.338C214.989 147.101 214.936 146.832 214.947 146.562C214.958 146.291 215.032 146.03 215.161 145.807C215.291 145.584 215.47 145.408 215.679 145.299Z" fill="#F54748"/>
<path opacity="0.75" d="M215.679 145.299L225.868 138.318C226.387 138.001 226.969 137.857 227.551 137.902C228.134 137.946 228.695 138.177 229.176 138.569L235.952 144.718C236.151 144.853 236.314 145.052 236.423 145.292C236.532 145.533 236.581 145.805 236.566 146.077C236.551 146.349 236.471 146.611 236.337 146.832C236.203 147.053 236.019 147.225 235.806 147.328L225.617 154.302C225.098 154.622 224.516 154.767 223.933 154.723C223.35 154.679 222.788 154.446 222.308 154.05L215.573 147.902C215.374 147.77 215.21 147.574 215.099 147.338C214.989 147.101 214.936 146.832 214.947 146.562C214.958 146.291 215.032 146.03 215.161 145.807C215.291 145.584 215.47 145.408 215.679 145.299Z" fill="white"/>
<path d="M223.314 133.977L221.369 134.032L215.924 129.095C215.443 128.701 214.882 128.469 214.3 128.423C213.717 128.378 213.135 128.52 212.615 128.835L204.325 134.544L201.711 134.622V137.17C201.723 137.424 201.783 137.671 201.889 137.892C201.995 138.113 202.142 138.302 202.32 138.443L209.096 144.584C209.576 144.978 210.137 145.21 210.72 145.255C211.302 145.301 211.884 145.159 212.404 144.843L222.587 137.862C222.801 137.739 222.983 137.55 223.115 137.315C223.246 137.08 223.322 136.807 223.334 136.525L223.314 133.977Z" fill="#F54748"/>
<path opacity="0.1" d="M223.314 133.977L221.369 134.032L215.924 129.095C215.443 128.701 214.882 128.469 214.3 128.423C213.717 128.378 213.135 128.52 212.615 128.835L204.325 134.544L201.711 134.622V137.17C201.723 137.424 201.783 137.671 201.889 137.892C201.995 138.113 202.142 138.302 202.32 138.443L209.096 144.584C209.576 144.978 210.137 145.21 210.72 145.255C211.302 145.301 211.884 145.159 212.404 144.843L222.587 137.862C222.801 137.739 222.983 137.55 223.115 137.315C223.246 137.08 223.322 136.807 223.334 136.525L223.314 133.977Z" fill="black"/>
<path d="M202.432 133.286L212.622 126.304C213.141 125.988 213.723 125.846 214.306 125.892C214.888 125.937 215.449 126.169 215.93 126.563L222.705 132.704C222.905 132.839 223.068 133.038 223.176 133.279C223.285 133.519 223.335 133.791 223.32 134.063C223.304 134.335 223.225 134.597 223.091 134.818C222.956 135.039 222.772 135.211 222.56 135.314L212.377 142.296C211.857 142.611 211.275 142.754 210.693 142.708C210.11 142.662 209.549 142.43 209.069 142.037L202.293 135.896C202.096 135.759 201.934 135.56 201.827 135.321C201.719 135.081 201.67 134.811 201.684 134.54C201.699 134.269 201.776 134.008 201.908 133.787C202.04 133.565 202.222 133.392 202.432 133.286Z" fill="#F54748"/>
<path opacity="0.75" d="M202.432 133.286L212.622 126.304C213.141 125.988 213.723 125.846 214.306 125.892C214.888 125.937 215.449 126.169 215.93 126.563L222.705 132.704C222.905 132.839 223.068 133.038 223.176 133.279C223.285 133.519 223.335 133.791 223.32 134.063C223.304 134.335 223.225 134.597 223.091 134.818C222.956 135.039 222.772 135.211 222.56 135.314L212.377 142.296C211.857 142.611 211.275 142.754 210.693 142.708C210.11 142.662 209.549 142.43 209.069 142.037L202.293 135.896C202.096 135.759 201.934 135.56 201.827 135.321C201.719 135.081 201.67 134.811 201.684 134.54C201.699 134.269 201.776 134.008 201.908 133.787C202.04 133.565 202.222 133.392 202.432 133.286Z" fill="white"/>
<path d="M59.1974 59.6773V50.9579C59.1904 48.7968 58.4631 46.727 57.1746 45.2018C55.8861 43.6766 54.1415 42.8203 52.3229 42.8203V51.5397C52.3299 53.7008 53.0572 55.7706 54.3457 57.2958C55.6342 58.821 57.3788 59.6773 59.1974 59.6773Z" fill="#263238"/>
<path d="M81.5617 131.257L59.5883 117.993L61.5732 161.865L83.5467 175.129L81.5617 131.257Z" fill="#F54748"/>
<path opacity="0.5" d="M81.5617 131.257L59.5883 117.993L61.5732 161.865L83.5467 175.129L81.5617 131.257Z" fill="white"/>
<path d="M83.5466 175.129L93.875 167.141L85.697 128.065L81.5616 131.257L83.5466 175.129Z" fill="#F54748"/>
<path d="M93.8753 167.141L86.8617 166.512L83.5469 175.129L93.8753 167.141Z" fill="#F54748"/>
<path opacity="0.3" d="M93.8753 167.141L86.8617 166.512L83.5469 175.129L93.8753 167.141Z" fill="black"/>
<path d="M86.8614 166.512L81.4292 128.332L81.5615 131.257L83.5465 175.129L86.8614 166.512Z" fill="#F54748"/>
<path opacity="0.1" d="M86.8614 166.512L81.4292 128.332L81.5615 131.257L83.5465 175.129L86.8614 166.512Z" fill="black"/>
<path d="M59.5883 117.993L63.8493 117.726L63.717 114.801L85.697 128.065L81.4294 128.332L81.5617 131.257L59.5883 117.993Z" fill="#F54748"/>
<path d="M74.5949 129.732C74.5949 130.101 74.3964 130.274 74.1119 130.101C73.9626 129.998 73.8357 129.855 73.7415 129.682C73.6473 129.51 73.5883 129.315 73.5693 129.11C73.5693 128.733 73.7678 128.568 74.0523 128.733C74.2018 128.838 74.3286 128.983 74.4228 129.156C74.517 129.33 74.5759 129.527 74.5949 129.732Z" fill="#455A64"/>
<path d="M68.0242 125.832C68.0242 126.21 67.8257 126.383 67.5412 126.21C67.3929 126.105 67.2669 125.961 67.1728 125.79C67.0787 125.618 67.0191 125.423 66.9987 125.219C66.9987 124.842 67.1971 124.677 67.4817 124.842C67.6313 124.944 67.7585 125.088 67.8527 125.26C67.947 125.432 68.0058 125.628 68.0242 125.832Z" fill="#455A64"/>
<path d="M78.6106 126.626C78.6106 127.004 78.4122 127.169 78.1276 126.996C77.9776 126.894 77.8502 126.751 77.7559 126.578C77.6616 126.406 77.603 126.21 77.5851 126.005C77.5851 125.628 77.7836 125.463 78.0681 125.636C78.2181 125.738 78.3455 125.881 78.4398 126.053C78.5342 126.226 78.5927 126.422 78.6106 126.626Z" fill="#455A64"/>
<path d="M72.08 122.687C72.08 123.064 71.8815 123.229 71.597 123.064C71.4465 122.961 71.3188 122.816 71.2245 122.643C71.1302 122.469 71.0719 122.271 71.0544 122.066C71.0544 121.688 71.2529 121.523 71.5374 121.696C71.6868 121.799 71.8136 121.943 71.9078 122.115C72.0021 122.287 72.061 122.483 72.08 122.687Z" fill="#455A64"/>
<path d="M85.6969 128.065L81.4292 128.332L86.8614 166.512L93.8749 167.141L85.6969 128.065Z" fill="#F54748"/>
<path opacity="0.2" d="M85.6969 128.065L81.4292 128.332L86.8614 166.512L93.8749 167.141L85.6969 128.065Z" fill="black"/>
<path d="M63.717 114.801L63.8494 117.726L63.9817 120.651L65.0999 121.319L63.717 114.801Z" fill="#F54748"/>
<path opacity="0.2" d="M63.717 114.801L63.8494 117.726L63.9817 120.651L65.0999 121.319L63.717 114.801Z" fill="black"/>
<path d="M53.8384 49.9749C56.8026 49.7862 62.8038 50.085 65.0004 60.1961C66.8531 68.6875 71.8618 87.2743 73.1652 95.5298C74.1577 101.82 75.5207 106.223 75.7192 110.61C75.3487 112.867 73.8335 115.327 69.6651 116.114C65.6952 114.864 66.3899 114.085 66.112 109.902C65.8341 105.72 67.647 104.524 67.0714 99.5633C65.8672 89.1456 58.02 67.4374 58.02 67.4374L53.8384 49.9749Z" fill="#B16668"/>
<path d="M78.0946 126.689C78.0238 126.688 77.9555 126.658 77.9003 126.606C77.8452 126.553 77.8064 126.48 77.7902 126.398C77.7902 126.343 76.811 121.24 75.7193 117.372C74.8591 114.329 72.9668 113.645 71.306 113.04C70.9355 112.906 70.5848 112.78 70.2672 112.639C70.1905 112.6 70.1291 112.528 70.0958 112.438C70.0626 112.347 70.06 112.244 70.0886 112.151C70.1033 112.105 70.1256 112.062 70.1542 112.026C70.1828 111.99 70.2171 111.961 70.2552 111.94C70.2933 111.92 70.3345 111.908 70.3763 111.907C70.4181 111.905 70.4597 111.914 70.4988 111.931C70.8032 112.073 71.1605 112.191 71.4913 112.324C73.2116 112.946 75.3553 113.724 76.3213 117.136C77.4197 121.067 78.3989 126.178 78.4056 126.233C78.4153 126.281 78.4168 126.331 78.4101 126.38C78.4033 126.428 78.3884 126.475 78.3662 126.517C78.344 126.559 78.3149 126.595 78.2808 126.623C78.2466 126.651 78.2081 126.671 78.1674 126.681L78.0946 126.689Z" fill="#263238"/>
<path d="M72.9473 106.223C72.295 107.685 71.8077 109.242 71.4983 110.854C71.3924 111.727 70.175 111.043 69.9302 109.911C69.7346 108.104 69.6506 106.283 69.6787 104.462C69.6787 104.462 69.1097 107.945 69.4207 109.604C69.7317 111.263 70.0824 111.593 71.1013 111.963C72.1202 112.333 71.9614 111.263 72.1996 109.879C72.4378 108.496 72.9473 106.223 72.9473 106.223Z" fill="#9A4A4D"/>
<path d="M73.7079 129.221L73.2514 119.086C73.1587 116.853 73.0462 114.313 69.8769 112.379C68.7654 111.703 67.9449 111.507 67.5545 111.837C67.1642 112.167 67.2634 112.985 67.2634 112.993L67.8258 125.431C67.8148 125.521 67.777 125.603 67.7193 125.662C67.6616 125.721 67.5878 125.754 67.5115 125.754C67.4352 125.754 67.3615 125.721 67.3038 125.662C67.246 125.603 67.2082 125.521 67.1972 125.431L66.6348 113.032C66.5918 112.695 66.6194 112.351 66.7152 112.03C66.811 111.709 66.9721 111.421 67.184 111.192C67.7993 110.665 68.7786 110.823 70.1681 111.672C73.6616 113.81 73.7873 116.688 73.8799 119.007L74.3431 129.126C74.3467 129.227 74.3168 129.326 74.2599 129.401C74.203 129.476 74.1236 129.521 74.0387 129.527C73.9616 129.533 73.8855 129.505 73.8246 129.448C73.7637 129.392 73.7222 129.311 73.7079 129.221Z" fill="#263238"/>
<path d="M71.5645 122.64C71.4937 122.639 71.4253 122.609 71.3702 122.557C71.3151 122.504 71.2763 122.431 71.2601 122.349L69.8508 114.77C69.842 114.721 69.8414 114.671 69.849 114.622C69.8566 114.573 69.8722 114.527 69.895 114.485C69.9177 114.444 69.9471 114.408 69.9815 114.38C70.016 114.352 70.0547 114.332 70.0956 114.322C70.1779 114.303 70.2632 114.322 70.3335 114.377C70.4038 114.431 70.4537 114.515 70.4727 114.612L71.8754 122.184C71.8852 122.232 71.8867 122.282 71.8799 122.331C71.8732 122.379 71.8582 122.426 71.836 122.468C71.8138 122.51 71.7848 122.546 71.7506 122.574C71.7165 122.602 71.6779 122.622 71.6372 122.632L71.5645 122.64Z" fill="#263238"/>
<path d="M69.4273 112.127C68.2297 111.263 65.9007 109.997 65.3581 110.767C64.8156 111.538 64.1208 114.698 66.8203 115.815C68.6193 116.41 70.5385 116.215 72.226 115.265L69.4273 112.127Z" fill="#9A4A4D"/>
<path d="M49.4981 44.7862H46.911C43.4014 44.7862 40.0356 43.1295 37.5539 40.1805C35.0722 37.2316 33.678 33.2319 33.678 29.0614C33.678 24.6094 35.1663 20.3397 37.8155 17.1917C40.4647 14.0436 44.0578 12.2751 47.8043 12.2751H48.6313C52.371 12.2834 55.9552 14.0535 58.5983 17.1972C61.2414 20.341 62.7276 24.6018 62.7311 29.0457C62.7329 31.112 62.3919 33.1585 61.7276 35.0681C61.0634 36.9778 60.0889 38.7131 58.8599 40.175C57.631 41.6368 56.1716 42.7965 54.5652 43.5878C52.9589 44.379 51.237 44.7862 49.4981 44.7862Z" fill="#263238"/>
<path d="M35.5107 16.6933C36.0051 16.811 36.4401 17.1568 36.7204 17.6549C37.0007 18.153 37.1034 18.7629 37.006 19.3508L33.2743 18.4466C33.3779 17.8634 33.6707 17.3523 34.0894 17.024C34.5081 16.6958 35.0187 16.577 35.5107 16.6933Z" fill="#263238"/>
<path d="M37.9456 15.7345C38.0231 16.0164 38.053 16.3137 38.0337 16.6093C38.0145 16.9049 37.9463 17.1931 37.8333 17.4575C37.7202 17.7218 37.5644 17.9571 37.3748 18.1498C37.1852 18.3425 36.9654 18.489 36.7282 18.5807L35.5504 14.28C35.788 14.1881 36.0386 14.1529 36.2877 14.1763C36.5368 14.1997 36.7796 14.2813 37.0021 14.4165C37.2246 14.5516 37.4225 14.7376 37.5844 14.9638C37.7463 15.1899 37.869 15.4519 37.9456 15.7345Z" fill="#263238"/>
<path d="M56.6108 222.87C55.744 222.084 54.7648 221.345 54.0039 220.512C52.3167 218.68 51.8006 214.041 51.6749 212.476C51.5458 211.145 51.5347 209.801 51.6418 208.466C51.9792 205.322 53.9245 198.41 53.9245 198.41C53.9245 198.41 47.6586 193.512 47.566 193.575C47.4734 193.638 46.4346 202.578 45.409 204.04C44.1651 205.337 43.0999 205.699 42.3985 207.413C41.7832 209.528 42.0346 210.668 42.9808 212.869C43.6802 214.777 44.1994 216.77 44.529 218.813C45.065 221.392 44.84 225.614 50.2325 226.904C53.0908 227.588 55.0691 227.132 56.4321 226.409C57.9672 225.599 57.9539 224.073 56.6108 222.87Z" fill="#B16668"/>
<path d="M42.3985 207.421C41.7832 209.536 42.0346 210.676 42.9808 212.877C43.6802 214.785 44.1994 216.778 44.529 218.821C45.065 221.4 44.84 225.622 50.2325 226.912C53.0908 227.596 55.0691 227.14 56.4321 226.416C57.9672 225.63 57.9539 224.058 56.6108 222.87C55.9491 222.257 55.1816 221.667 54.5266 221.039C55.2412 222.564 51.8072 222.925 49.8289 221.518C47.8505 220.111 45.3826 210.196 45.1377 207.979C44.9894 206.661 45.0819 205.32 45.409 204.048C45.4818 203.93 45.5744 203.757 45.5744 203.757C45.5744 203.757 45.3627 203.655 45.1377 203.859C43.995 204.765 43.0548 205.987 42.3985 207.421Z" fill="#263238"/>
<path d="M63.221 94.068C64.187 106.648 67.1115 149.797 66.3241 157.927C65.9734 161.614 52.8198 202.656 52.8198 202.656C52.8198 202.656 49.6108 203.828 46.587 199.755C48.1485 182.112 49.6439 163.21 52.886 157.353C52.2706 151.283 45.8989 121.044 45.8989 121.044L63.221 94.068Z" fill="#37474F"/>
<path d="M39.4873 216.706V215.597C39.8578 216.894 41.5715 222.508 44.1652 225.315C46.2229 227.556 49.0349 230.135 49.7495 232.627C50.4641 235.12 45.8392 236.087 43.9137 235.678C41.6707 235.214 38.7793 233.704 37.2046 231.401C36.093 229.781 35.3851 227.863 34.5977 226.589C33.8103 225.315 31.9511 223.9 31.5541 222.43C31.3159 221.643 31.6004 219.843 31.9246 218.349C32.2488 216.855 32.5863 215.463 32.9568 215.597V216.438C33.4266 217.067 34.7433 217.689 36.2187 217.751C37.1781 217.799 39.5005 217.571 39.4873 216.706Z" fill="#263238"/>
<path d="M46.0307 227.281C45.369 226.605 44.7471 225.944 44.1648 225.307C42.3519 223.35 40.969 220.016 40.1949 217.744C39.7515 216.446 39.5267 215.056 39.5332 213.655V209.229H32.9564V216.431V216.619C33.2674 218.231 36.2647 222.524 37.9717 225.323C39.1164 227.202 41.28 229.585 43.8803 230.001C46.3681 230.418 47.6252 229.498 46.0307 227.281Z" fill="#B16668"/>
<path d="M34.2803 95.9938C29.212 109.148 34.4655 155.473 34.4655 155.473C34.3134 157.612 32.2556 161.81 31.4947 171.198C30.5883 182.292 32.9107 210.164 32.9107 210.164C33.9084 210.854 35.0333 211.243 36.1868 211.296C37.3403 211.35 38.4873 211.066 39.5272 210.471C39.5272 210.471 45.7599 168.501 46.9311 157.47C47.95 147.839 50.7554 118.213 50.7554 118.213L63.2606 94.0597L34.2803 95.9938Z" fill="#37474F"/>
<path d="M45.0587 50.1326L38.2503 50.5179C37.3174 50.8638 34.8097 53.6629 33.8239 57.9479C33.1179 61.4755 33.2763 65.1695 34.2804 68.5936L38.8061 84.1534C38.8061 84.1534 36.6888 90.2467 34.2275 95.9942C45.588 103.534 59.7738 99.5716 63.1946 94.0679C63.3335 92.9042 63.1416 87.6443 63.4129 81.6688C63.7107 75.2845 64.4451 68.0826 63.6048 64.1435C62.0367 56.8236 59.099 49.9518 53.2566 49.9518L45.0587 50.1326Z" fill="#F54748"/>
<path d="M57.9404 19.2331C59.4754 20.3103 61.3743 24.9019 61.1891 34.5255C61.0303 42.6789 58.8005 44.6917 57.6889 45.2735C56.5774 45.8553 54.4138 45.5015 52.3229 45.0848V49.9831C52.3229 49.9831 55.2144 53.9772 55.0357 56.218C54.8571 58.4588 50.8541 58.9934 48.1479 56.7998C46.3911 55.3093 44.8833 53.4429 43.7016 51.2961V40.4617C43.087 40.7221 42.4293 40.8066 41.7821 40.7082C41.1348 40.6098 40.5162 40.3314 39.9765 39.8956C37.6475 38.103 37.588 33.5349 38.9113 31.9152C40.2346 30.2956 43.1525 30.8066 43.695 33.0474C43.695 33.0474 47.0363 33.1889 51.4826 30.2877C53.2151 29.1788 54.7028 27.5997 55.8249 25.6788C56.947 23.758 57.6718 21.5495 57.9404 19.2331Z" fill="#B16668"/>
<path d="M53.8186 32.5991C53.8211 32.8014 53.7733 33.0001 53.6813 33.1703C53.5893 33.3405 53.4571 33.4748 53.3013 33.5564C53.1455 33.6379 52.9729 33.6631 52.8051 33.6288C52.6373 33.5945 52.4817 33.5023 52.3578 33.3636C52.2338 33.2249 52.147 33.0459 52.1081 32.8489C52.0692 32.652 52.08 32.4457 52.1392 32.256C52.1983 32.0663 52.3031 31.9015 52.4406 31.7821C52.5781 31.6627 52.7421 31.5941 52.9122 31.5848C53.0278 31.5807 53.1429 31.6036 53.251 31.6523C53.3591 31.701 53.4581 31.7746 53.5423 31.8687C53.6265 31.9629 53.6942 32.0759 53.7416 32.2012C53.7891 32.3266 53.8152 32.4618 53.8186 32.5991Z" fill="#263238"/>
<path d="M53.7527 39.4083L55.7377 40.1945C55.7023 40.357 55.6392 40.5092 55.5522 40.6415C55.4653 40.7739 55.3565 40.8836 55.2324 40.964C55.1084 41.0443 54.9718 41.0935 54.831 41.1086C54.6903 41.1237 54.5485 41.1042 54.4144 41.0515C54.1466 40.9325 53.9281 40.6948 53.8048 40.3884C53.6814 40.082 53.6627 39.7307 53.7527 39.4083Z" fill="#9A4A4D"/>
<path d="M60.6006 29.3442L58.8539 27.8818C58.9269 27.7421 59.0232 27.6215 59.1367 27.5274C59.2503 27.4333 59.3788 27.3677 59.5144 27.3346C59.65 27.3015 59.7898 27.3016 59.9254 27.3348C60.061 27.3681 60.1894 27.4338 60.3029 27.528C60.5415 27.7254 60.706 28.0254 60.7615 28.3644C60.8171 28.7034 60.7594 29.0549 60.6006 29.3442Z" fill="#263238"/>
<path d="M60.3492 32.4264C60.3516 32.6287 60.3038 32.8274 60.2118 32.9976C60.1198 33.1678 59.9876 33.3021 59.8318 33.3836C59.676 33.4652 59.5034 33.4904 59.3356 33.4561C59.1678 33.4218 59.0122 33.3296 58.8883 33.1909C58.7643 33.0522 58.6775 32.8732 58.6386 32.6762C58.5997 32.4792 58.6105 32.273 58.6697 32.0833C58.7288 31.8936 58.8337 31.7287 58.9711 31.6094C59.1086 31.49 59.2726 31.4214 59.4427 31.4121C59.6756 31.4057 59.9013 31.5086 60.071 31.6984C60.2406 31.8882 60.3405 32.1497 60.3492 32.4264Z" fill="#263238"/>
<path d="M56.1278 31.1608L56.2668 37.3407L58.9994 36.3343L56.1278 31.1608Z" fill="#9A4A4D"/>
<path d="M52.3231 45.1006C50.1132 44.7625 45.5743 43.2057 44.8663 41.075C45.1499 42.155 45.7067 43.1049 46.4609 43.7954C47.7842 45.1792 52.3231 46.736 52.3231 46.736V45.1006Z" fill="#9A4A4D"/>
<path d="M50.9471 146.023L49.0018 136.132L50.7155 118.221C50.7155 118.221 56.108 115.807 58.9663 110.846C57.693 114.462 55.5677 117.563 52.846 119.778L49.9083 136.084L50.9471 146.023Z" fill="#263238"/>
<path d="M45.76 126.768L22.1059 110.54L17.3751 157.872L41.0292 174.1L45.76 126.768Z" fill="#F54748"/>
<path opacity="0.5" d="M45.76 126.768L22.1059 110.54L17.3751 157.872L41.0292 174.1L45.76 126.768Z" fill="#FDC55E"/>
<path d="M52.8528 165.985L45.7599 164.358L41.0291 174.099L52.8528 165.985Z" fill="#F54748"/>
<path opacity="0.3" d="M52.8528 165.985L45.7599 164.358L41.0291 174.099L52.8528 165.985Z" fill="black"/>
<path d="M45.7599 164.358L48.122 121.901L45.7599 126.768L41.0291 174.1L45.7599 164.358Z" fill="#F54748"/>
<path opacity="0.1" d="M45.7599 164.358L48.122 121.901L45.7599 126.768L41.0291 174.1L45.7599 164.358Z" fill="black"/>
<path d="M22.1058 110.54L29.1987 108.92V105.673L52.8528 121.901H48.122L45.7599 126.768L22.1058 110.54Z" fill="#F54748"/>
<path d="M37.0724 126.304C37.0724 126.72 36.8209 126.886 36.5166 126.681C36.3566 126.555 36.2236 126.387 36.1282 126.189C36.0329 125.991 35.9778 125.769 35.9674 125.541C35.9674 125.124 36.2122 124.951 36.5166 125.164C36.6782 125.288 36.8127 125.457 36.9093 125.655C37.0059 125.853 37.0618 126.075 37.0724 126.304Z" fill="#455A64"/>
<path d="M30.1383 121.068C30.1383 121.492 29.8935 121.658 29.5825 121.453C29.4225 121.327 29.2895 121.158 29.1941 120.961C29.0988 120.763 29.0437 120.541 29.0333 120.313C29.0333 119.896 29.2781 119.723 29.5825 119.936C29.7447 120.058 29.8799 120.224 29.9766 120.421C30.0733 120.618 30.1288 120.84 30.1383 121.068Z" fill="#455A64"/>
<path d="M44.4166 120.658C44.4166 121.075 44.1718 121.248 43.8674 121.036C43.7063 120.912 43.572 120.745 43.4754 120.549C43.3789 120.352 43.3227 120.131 43.3116 119.903C43.3116 119.479 43.5631 119.314 43.8674 119.518C44.0274 119.644 44.1604 119.813 44.2558 120.011C44.3512 120.209 44.4062 120.43 44.4166 120.658Z" fill="#455A64"/>
<path d="M37.4029 116.004C37.4029 116.421 37.1515 116.594 36.8471 116.381C36.6869 116.258 36.5536 116.09 36.4582 115.894C36.3627 115.697 36.3078 115.476 36.298 115.249C36.298 114.833 36.5428 114.66 36.8471 114.872C37.0082 114.995 37.1426 115.162 37.2391 115.359C37.3357 115.556 37.3918 115.777 37.4029 116.004Z" fill="#455A64"/>
<path d="M52.8527 121.901H48.1219L45.7598 164.358L52.8527 165.986V121.901Z" fill="#F54748"/>
<path d="M29.1987 108.92V115.406L22.1058 110.54L29.1987 108.92Z" fill="#F54748"/>
<path opacity="0.2" d="M52.8527 121.901H48.1219L45.7598 164.358L52.8527 165.986V121.901Z" fill="black"/>
<path opacity="0.2" d="M29.1987 108.92V115.406L22.1058 110.54L29.1987 108.92Z" fill="black"/>
<path d="M29.5828 120.941C29.5414 120.953 29.4985 120.953 29.4571 120.941C29.3773 120.898 29.3143 120.821 29.2811 120.724C29.2479 120.628 29.2469 120.52 29.2784 120.422L35.2995 103.495C35.3345 103.399 35.3998 103.322 35.4814 103.283C35.563 103.243 35.6544 103.243 35.7361 103.282C35.816 103.326 35.8789 103.403 35.9121 103.5C35.9453 103.596 35.9463 103.704 35.9148 103.801L29.8938 120.729C29.8634 120.795 29.8183 120.85 29.7634 120.887C29.7085 120.925 29.646 120.943 29.5828 120.941Z" fill="#263238"/>
<path d="M36.8475 115.941C36.7598 115.941 36.6757 115.9 36.6136 115.826C36.5516 115.752 36.5167 115.652 36.5167 115.548V103.833C36.5167 103.729 36.5516 103.629 36.6136 103.555C36.6757 103.481 36.7598 103.44 36.8475 103.44C36.9353 103.44 37.0194 103.481 37.0815 103.555C37.1435 103.629 37.1784 103.729 37.1784 103.833V115.556C37.1766 115.659 37.141 115.757 37.0792 115.829C37.0173 115.901 36.9342 115.941 36.8475 115.941Z" fill="#263238"/>
<path d="M25.6786 85.6553L34.8557 70.3943C36.3173 68.638 37.4178 66.5042 38.0714 64.1594C39.6725 58.1289 39.924 54.5908 38.2434 50.5181C34.5117 50.5181 32.3282 50.9663 28.087 59.497C24.6266 66.4552 19.4856 78.3196 18.2284 80.8828C16.6603 84.0278 16.2038 84.9005 17.5668 88.014C18.9298 91.1275 24.0642 99.1236 28.3848 105.138C32.7054 111.153 35.2329 113.182 38.4617 114.07C41.6906 114.959 43.133 114.212 44.9525 112.222C46.7721 110.233 45.4885 108.464 43.7946 108C42.188 107.588 40.6557 106.84 39.2689 105.791C38.2434 104.91 37.9456 104.218 38.8786 104.171C40.1092 104.108 41.2605 103.817 41.5781 102.795C41.9751 101.514 40.9561 101.86 39.5468 101.341C37.7261 100.684 35.8521 100.257 33.9559 100.067C31.6335 100.216 25.6786 85.6553 25.6786 85.6553Z" fill="#B16668"/>
<path d="M42.7958 42.7025H43.7023V52.9237C43.7023 54.9026 43.0407 56.8004 41.8632 58.1997C40.6856 59.599 39.0885 60.3851 37.4232 60.3851H36.5167V50.1639C36.5167 48.185 37.1783 46.2872 38.3558 44.8879C39.5334 43.4886 41.1305 42.7025 42.7958 42.7025Z" fill="#263238"/>
<path d="M43.5432 120.171V111.294C43.5432 109.997 43.219 107.929 42.3258 107.544C42.2838 107.527 42.245 107.501 42.2117 107.466C42.1784 107.432 42.1513 107.39 42.1319 107.342C42.1126 107.295 42.1014 107.244 42.0991 107.191C42.0968 107.139 42.1033 107.086 42.1184 107.037C42.1334 106.987 42.1566 106.942 42.1867 106.903C42.2167 106.865 42.253 106.834 42.2933 106.812C42.3336 106.791 42.3772 106.779 42.4214 106.777C42.4656 106.776 42.5096 106.785 42.5507 106.805C44.1585 107.504 44.2049 110.909 44.2049 111.294V120.171C44.2049 120.275 44.17 120.375 44.108 120.449C44.0459 120.523 43.9618 120.564 43.874 120.564C43.7863 120.564 43.7022 120.523 43.6401 120.449C43.5781 120.375 43.5432 120.275 43.5432 120.171Z" fill="#263238"/>
<path d="M36.6024 126.264C36.5608 126.272 36.5184 126.272 36.4767 126.264C36.4361 126.244 36.3992 126.215 36.3681 126.178C36.3371 126.141 36.3125 126.097 36.2959 126.049C36.2792 126.001 36.2709 125.949 36.2713 125.897C36.2716 125.845 36.2808 125.793 36.2981 125.745C36.2981 125.698 37.9191 121.169 39.8313 114.675C41.6905 108.385 41.0355 107.127 40.665 106.891C40.6267 106.866 40.5928 106.833 40.5654 106.793C40.538 106.752 40.5176 106.706 40.5053 106.656C40.493 106.607 40.4891 106.555 40.4938 106.503C40.4985 106.452 40.5117 106.402 40.5326 106.356C40.5759 106.266 40.6469 106.199 40.7309 106.17C40.8148 106.14 40.9051 106.151 40.9826 106.199C42.1537 106.985 41.9883 109.729 40.4599 114.934C38.5411 121.444 36.9266 125.981 36.9266 126.028C36.9004 126.103 36.8549 126.166 36.7967 126.208C36.7385 126.251 36.6705 126.27 36.6024 126.264Z" fill="#263238"/>
</svg>
