<svg width="16" height="18" viewBox="0 0 16 18" fill="none" xmlns="http://www.w3.org/2000/svg">
<path d="M2 18C1.45 18 0.979001 17.832 0.587001 17.496C0.195002 17.16 -0.000664969 16.7566 1.69779e-06 16.2857V7.71429C1.69779e-06 7.24286 0.196001 6.83914 0.588001 6.50314C0.980001 6.16714 1.45067 5.99943 2 6H3V4.28571C3 3.1 3.48767 2.08914 4.463 1.25314C5.43833 0.417143 6.61733 -0.000570843 8 5.8548e-07C9.38333 5.8548e-07 10.5627 0.418001 11.538 1.254C12.5133 2.09 13.0007 3.10057 13 4.28571V6H14C14.55 6 15.021 6.168 15.413 6.504C15.805 6.84 16.0007 7.24343 16 7.71429V16.2857C16 16.7571 15.804 17.1609 15.412 17.4969C15.02 17.8329 14.5493 18.0006 14 18H2ZM8 13.7143C8.55 13.7143 9.021 13.5463 9.413 13.2103C9.805 12.8743 10.0007 12.4709 10 12C10 11.5286 9.804 11.1249 9.412 10.7889C9.02 10.4529 8.54933 10.2851 8 10.2857C7.45 10.2857 6.979 10.4537 6.587 10.7897C6.195 11.1257 5.99933 11.5291 6 12C6 12.4714 6.196 12.8751 6.588 13.2111C6.98 13.5471 7.45067 13.7149 8 13.7143ZM5 6H11V4.28571C11 3.57143 10.7083 2.96429 10.125 2.46429C9.54167 1.96429 8.83333 1.71429 8 1.71429C7.16667 1.71429 6.45833 1.96429 5.875 2.46429C5.29167 2.96429 5 3.57143 5 4.28571V6Z" fill="#F56A6B"/>
</svg>
