<svg width="12" height="12" viewBox="0 0 12 12" fill="none" xmlns="http://www.w3.org/2000/svg">
<rect width="12" height="12" rx="4" fill="#F54748" fill-opacity="0.8"/>
<path d="M9.99992 6.66671H6.66658V10C6.66658 10.1769 6.59635 10.3464 6.47132 10.4714C6.3463 10.5965 6.17673 10.6667 5.99992 10.6667C5.82311 10.6667 5.65354 10.5965 5.52851 10.4714C5.40349 10.3464 5.33325 10.1769 5.33325 10V6.66671H1.99992C1.82311 6.66671 1.65354 6.59647 1.52851 6.47145C1.40349 6.34642 1.33325 6.17685 1.33325 6.00004C1.33325 5.82323 1.40349 5.65366 1.52851 5.52864C1.65354 5.40361 1.82311 5.33337 1.99992 5.33337H5.33325V2.00004C5.33325 1.82323 5.40349 1.65366 5.52851 1.52864C5.65354 1.40361 5.82311 1.33337 5.99992 1.33337C6.17673 1.33337 6.3463 1.40361 6.47132 1.52864C6.59635 1.65366 6.66658 1.82323 6.66658 2.00004V5.33337H9.99992C10.1767 5.33337 10.3463 5.40361 10.4713 5.52864C10.5963 5.65366 10.6666 5.82323 10.6666 6.00004C10.6666 6.17685 10.5963 6.34642 10.4713 6.47145C10.3463 6.59647 10.1767 6.66671 9.99992 6.66671Z" fill="#FAFAFA"/>
</svg>
