<svg width="77" height="12" viewBox="0 0 77 12" fill="none" xmlns="http://www.w3.org/2000/svg">
<path d="M6.5 9.64421L10.517 12L9.451 7.56L13 4.57263L8.3265 4.18737L6.5 0L4.6735 4.18737L0 4.57263L3.549 7.56L2.483 12L6.5 9.64421Z" fill="#FCB32B"/>
<path d="M22.5 9.64421L26.517 12L25.451 7.56L29 4.57263L24.3265 4.18737L22.5 0L20.6735 4.18737L16 4.57263L19.549 7.56L18.483 12L22.5 9.64421Z" fill="#FCB32B"/>
<path d="M38.5 9.64421L42.517 12L41.451 7.56L45 4.57263L40.3265 4.18737L38.5 0L36.6735 4.18737L32 4.57263L35.549 7.56L34.483 12L38.5 9.64421Z" fill="#FCB32B"/>
<path d="M54.5 9.64421L58.517 12L57.451 7.56L61 4.57263L56.3265 4.18737L54.5 0L52.6735 4.18737L48 4.57263L51.549 7.56L50.483 12L54.5 9.64421Z" fill="#FCB32B"/>
<path d="M77 4.57263L72.3265 4.18105L70.5 0L68.6735 4.18737L64 4.57263L67.549 7.56L66.483 12L70.5 9.64421L74.517 12L73.4575 7.56L77 4.57263ZM70.5 8.46316V2.58947L71.6115 5.14105L74.4585 5.38105L72.3005 7.2L72.9505 9.90316L70.5 8.46316Z" fill="#FCB32B"/>
</svg>
