<svg width="8" height="8" viewBox="0 0 8 8" fill="none" xmlns="http://www.w3.org/2000/svg">
<path d="M2.94385 1.52846C3.42276 0.669644 3.66203 0.240234 4.01999 0.240234C4.37795 0.240234 4.61722 0.669644 5.09613 1.52846L5.22011 1.75073C5.35619 1.99492 5.42423 2.11701 5.53006 2.19752C5.6359 2.27804 5.7682 2.3079 6.03279 2.36762L6.27319 2.42206C7.20305 2.6326 7.6676 2.73769 7.77836 3.09339C7.88873 3.44871 7.57197 3.81953 6.93808 4.56079L6.77403 4.75243C6.59411 4.96298 6.50377 5.06844 6.46332 5.19848C6.42288 5.32889 6.43649 5.4695 6.4637 5.75036L6.48865 6.00626C6.58428 6.99549 6.63229 7.48992 6.34275 7.70954C6.0532 7.92953 5.61776 7.72881 4.74762 7.32813L4.52196 7.22456C4.27476 7.11041 4.15115 7.05371 4.01999 7.05371C3.88883 7.05371 3.76522 7.11041 3.51764 7.22456L3.29273 7.32813C2.42222 7.72881 1.98678 7.92916 1.69761 7.70992C1.40769 7.48992 1.4557 6.99549 1.55133 6.00626L1.57628 5.75073C1.60349 5.4695 1.6171 5.32889 1.57628 5.19885C1.53621 5.06844 1.44587 4.96298 1.26595 4.75281L1.1019 4.56079C0.468008 3.81991 0.151251 3.44909 0.261625 3.09339C0.372376 2.73769 0.837305 2.63223 1.76716 2.42206L2.00757 2.36762C2.27178 2.3079 2.4037 2.27804 2.50992 2.19752C2.61575 2.11701 2.68379 1.99492 2.81987 1.75073L2.94385 1.52846Z" fill="#FFC700"/>
</svg>
