<svg width="15" height="14" viewBox="0 0 15 14" fill="none" xmlns="http://www.w3.org/2000/svg">
<path d="M7.5 0C8.49456 0 9.44839 0.368749 10.1517 1.02513C10.8549 1.6815 11.25 2.57174 11.25 3.5C11.25 4.42826 10.8549 5.3185 10.1517 5.97487C9.44839 6.63125 8.49456 7 7.5 7C6.50544 7 5.55161 6.63125 4.84835 5.97487C4.14509 5.3185 3.75 4.42826 3.75 3.5C3.75 2.57174 4.14509 1.6815 4.84835 1.02513C5.55161 0.368749 6.50544 0 7.5 0ZM7.5 8.75C11.6438 8.75 15 10.3162 15 12.25V14H0V12.25C0 10.3162 3.35625 8.75 7.5 8.75Z" fill="#F54748" fill-opacity="0.8"/>
</svg>
